<?xml version="1.0" encoding="utf-8" standalone="no"?>
<!DOCTYPE svg PUBLIC "-//W3C//DTD SVG 1.1//EN"
  "http://www.w3.org/Graphics/SVG/1.1/DTD/svg11.dtd">
<!-- Created with matplotlib (http://matplotlib.org/) -->
<svg height="143pt" version="1.1" viewBox="0 0 234 143" width="234pt" xmlns="http://www.w3.org/2000/svg" xmlns:xlink="http://www.w3.org/1999/xlink">
 <defs>
  <style type="text/css">
*{stroke-linecap:butt;stroke-linejoin:round;}
  </style>
 </defs>
 <g id="figure_1">
  <g id="patch_1">
   <path d="M 0 143.860822 
L 234.63059 143.860822 
L 234.63059 0 
L 0 0 
z
" style="fill:#ffffff;"/>
  </g>
  <g id="axes_1">
   <g id="patch_2">
    <path d="M 41.09297 118.320598 
L 231.03059 118.320598 
L 231.03059 3.961835 
L 41.09297 3.961835 
z
" style="fill:#ffffff;"/>
   </g>
   <g id="matplotlib.axis_1">
    <g id="xtick_1">
     <g id="line2d_1">
      <defs>
       <path d="M 0 0 
L 0 -4 
" id="m95e336f08b" style="stroke:#000000;stroke-width:0.5;"/>
      </defs>
      <g>
       <use style="stroke:#000000;stroke-width:0.5;" x="73.214773" xlink:href="#m95e336f08b" y="118.320598"/>
      </g>
     </g>
     <g id="text_1">
      <!-- $10$ -->
      <defs>
       <path d="M 26.59375 63.40625 
C 26.59375 65.5 26.5 65.5 25.09375 65.5 
C 21.203125 61.1875 15.296875 59.796875 9.703125 59.796875 
C 9.40625 59.796875 8.90625 59.796875 8.796875 59.5 
C 8.703125 59.296875 8.703125 59.09375 8.703125 57 
C 11.796875 57 17 57.59375 21 59.984375 
L 21 7.203125 
C 21 3.6875 20.796875 2.5 12.203125 2.5 
L 9.203125 2.5 
L 9.203125 0 
C 14 0 19 0 23.796875 0 
C 28.59375 0 33.59375 0 38.40625 0 
L 38.40625 2.5 
L 35.40625 2.5 
C 26.796875 2.5 26.59375 3.59375 26.59375 7.15625 
z
" id="CMR17-49"/>
       <path d="M 42 31.640625 
C 42 37.75 41.90625 48.125 37.703125 56.109375 
C 34 63.109375 28.09375 65.59375 22.90625 65.59375 
C 18.09375 65.59375 12 63.40625 8.203125 56.203125 
C 4.203125 48.71875 3.796875 39.4375 3.796875 31.640625 
C 3.796875 25.953125 3.90625 17.28125 7 9.671875 
C 11.296875 -0.609375 19 -2 22.90625 -2 
C 27.5 -2 34.5 -0.109375 38.59375 9.375 
C 41.59375 16.28125 42 24.359375 42 31.640625 
M 22.90625 -0.40625 
C 16.5 -0.40625 12.703125 5.078125 11.296875 12.6875 
C 10.203125 18.5625 10.203125 27.15625 10.203125 32.75 
C 10.203125 40.4375 10.203125 46.828125 11.5 52.921875 
C 13.40625 61.390625 19 64 22.90625 64 
C 27 64 32.296875 61.296875 34.203125 53.125 
C 35.5 47.4375 35.59375 40.734375 35.59375 32.75 
C 35.59375 26.25 35.59375 18.265625 34.40625 12.375 
C 32.296875 1.484375 26.40625 -0.40625 22.90625 -0.40625 
" id="CMR17-48"/>
      </defs>
      <g transform="translate(68.980591 127.8554)scale(0.08 -0.08)">
       <use transform="scale(0.996264)" xlink:href="#CMR17-49"/>
       <use transform="translate(45.690477 0)scale(0.996264)" xlink:href="#CMR17-48"/>
      </g>
     </g>
    </g>
    <g id="xtick_2">
     <g id="line2d_2">
      <g>
       <use style="stroke:#000000;stroke-width:0.5;" x="108.129777" xlink:href="#m95e336f08b" y="118.320598"/>
      </g>
     </g>
     <g id="text_2">
      <!-- $15$ -->
      <defs>
       <path d="M 11.40625 57.6875 
C 12.40625 57.28125 16.5 56 20.703125 56 
C 30 56 35.09375 61.109375 38 64.0625 
C 38 64.953125 38 65.5 37.40625 65.5 
C 37.296875 65.5 37.09375 65.5 36.296875 65.046875 
C 32.796875 63.40625 28.703125 62.078125 23.703125 62.078125 
C 20.703125 62.078125 16.203125 62.484375 11.296875 64.671875 
C 10.203125 65.171875 10 65.171875 9.90625 65.171875 
C 9.40625 65.171875 9.296875 65.0625 9.296875 63.078125 
L 9.296875 34.421875 
C 9.296875 32.640625 9.296875 32.140625 10.296875 32.140625 
C 10.796875 32.140625 11 32.34375 11.5 33.03125 
C 14.703125 37.515625 19.09375 39.40625 24.09375 39.40625 
C 27.59375 39.40625 35.09375 37.21875 35.09375 20.140625 
C 35.09375 16.953125 35.09375 11.171875 32.09375 6.578125 
C 29.59375 2.484375 25.703125 0.390625 21.40625 0.390625 
C 14.796875 0.390625 8.09375 5 6.296875 12.71875 
C 6.703125 12.609375 7.5 12.421875 7.90625 12.421875 
C 9.203125 12.421875 11.703125 13.125 11.703125 16.21875 
C 11.703125 18.90625 9.796875 20 7.90625 20 
C 5.59375 20 4.09375 18.59375 4.09375 15.796875 
C 4.09375 7.09375 11 -2 21.59375 -2 
C 31.90625 -2 41.703125 6.875 41.703125 19.75 
C 41.703125 31.71875 33.90625 41 24.203125 41 
C 19.09375 41 14.796875 39.109375 11.40625 35.53125 
z
" id="CMR17-53"/>
      </defs>
      <g transform="translate(103.895594 127.8554)scale(0.08 -0.08)">
       <use transform="scale(0.996264)" xlink:href="#CMR17-49"/>
       <use transform="translate(45.690477 0)scale(0.996264)" xlink:href="#CMR17-53"/>
      </g>
     </g>
    </g>
    <g id="xtick_3">
     <g id="line2d_3">
      <g>
       <use style="stroke:#000000;stroke-width:0.5;" x="143.044781" xlink:href="#m95e336f08b" y="118.320598"/>
      </g>
     </g>
     <g id="text_3">
      <!-- $20$ -->
      <defs>
       <path d="M 41.703125 15.453125 
L 39.90625 15.453125 
C 38.90625 8.375 38.09375 7.171875 37.703125 6.5625 
C 37.203125 5.765625 30 5.765625 28.59375 5.765625 
L 9.40625 5.765625 
C 13 9.671875 20 16.75 28.5 24.953125 
C 34.59375 30.734375 41.703125 37.53125 41.703125 47.421875 
C 41.703125 59.21875 32.296875 66 21.796875 66 
C 10.796875 66 4.09375 56.3125 4.09375 47.34375 
C 4.09375 43.4375 7 42.9375 8.203125 42.9375 
C 9.203125 42.9375 12.203125 43.546875 12.203125 47.03125 
C 12.203125 50.109375 9.59375 51 8.203125 51 
C 7.59375 51 7 50.90625 6.59375 50.703125 
C 8.5 59.21875 14.296875 63.40625 20.40625 63.40625 
C 29.09375 63.40625 34.796875 56.515625 34.796875 47.421875 
C 34.796875 38.734375 29.703125 31.25 24 24.75 
L 4.09375 2.28125 
L 4.09375 0 
L 39.296875 0 
z
" id="CMR17-50"/>
      </defs>
      <g transform="translate(138.810598 127.8554)scale(0.08 -0.08)">
       <use transform="scale(0.996264)" xlink:href="#CMR17-50"/>
       <use transform="translate(45.690477 0)scale(0.996264)" xlink:href="#CMR17-48"/>
      </g>
     </g>
    </g>
    <g id="xtick_4">
     <g id="line2d_4">
      <g>
       <use style="stroke:#000000;stroke-width:0.5;" x="177.959784" xlink:href="#m95e336f08b" y="118.320598"/>
      </g>
     </g>
     <g id="text_4">
      <!-- $25$ -->
      <g transform="translate(173.725602 127.8554)scale(0.08 -0.08)">
       <use transform="scale(0.996264)" xlink:href="#CMR17-50"/>
       <use transform="translate(45.690477 0)scale(0.996264)" xlink:href="#CMR17-53"/>
      </g>
     </g>
    </g>
    <g id="xtick_5">
     <g id="line2d_5">
      <g>
       <use style="stroke:#000000;stroke-width:0.5;" x="212.874788" xlink:href="#m95e336f08b" y="118.320598"/>
      </g>
     </g>
     <g id="text_5">
      <!-- $30$ -->
      <defs>
       <path d="M 22.09375 33.703125 
C 31 33.703125 34.90625 25.96875 34.90625 17.03125 
C 34.90625 5 28.5 0.390625 22.703125 0.390625 
C 17.40625 0.390625 8.796875 3.03125 6.09375 10.828125 
C 6.59375 10.625 7.09375 10.625 7.59375 10.625 
C 10 10.625 11.796875 12.21875 11.796875 14.8125 
C 11.796875 17.703125 9.59375 19 7.59375 19 
C 5.90625 19 3.296875 18.203125 3.296875 14.46875 
C 3.296875 5.234375 12.296875 -2 22.90625 -2 
C 34 -2 42.5 6.71875 42.5 16.953125 
C 42.5 26.671875 34.5 33.6875 25 34.796875 
C 32.59375 36.375 39.90625 43.0625 39.90625 52.015625 
C 39.90625 59.6875 32 65.296875 23 65.296875 
C 13.90625 65.296875 5.90625 59.828125 5.90625 52.015625 
C 5.90625 48.59375 8.5 48 9.796875 48 
C 11.90625 48 13.703125 49.296875 13.703125 51.890625 
C 13.703125 54.46875 11.90625 55.765625 9.796875 55.765625 
C 9.40625 55.765625 8.90625 55.765625 8.5 55.578125 
C 11.40625 61.859375 19.296875 63 22.796875 63 
C 26.296875 63 32.90625 61.328125 32.90625 51.875 
C 32.90625 49.109375 32.5 44.1875 29.09375 39.84375 
C 26.09375 36 22.703125 36 19.40625 35.6875 
C 18.90625 35.6875 16.59375 35.453125 16.203125 35.453125 
C 15.5 35.359375 15.09375 35.265625 15.09375 34.5 
C 15.09375 33.796875 15.203125 33.703125 17.203125 33.703125 
z
" id="CMR17-51"/>
      </defs>
      <g transform="translate(208.640605 127.8554)scale(0.08 -0.08)">
       <use transform="scale(0.996264)" xlink:href="#CMR17-51"/>
       <use transform="translate(45.690477 0)scale(0.996264)" xlink:href="#CMR17-48"/>
      </g>
     </g>
    </g>
    <g id="text_6">
     <!-- $L$ -->
     <defs>
      <path d="M 36.703125 60.328125 
C 37.59375 64.109375 37.90625 65.109375 46.703125 65.109375 
C 49.40625 65.109375 50.09375 65.109375 50.09375 67 
C 50.09375 68 49 68 48.59375 68 
C 46.59375 68 44.296875 68 42.296875 68 
L 28.90625 68 
C 27 68 24.796875 68 22.90625 68 
C 22.09375 68 21 68 21 66.109375 
C 21 65.109375 21.90625 65.109375 23.40625 65.109375 
C 29.5 65.109375 29.5 64.3125 29.5 63.21875 
C 29.5 63.03125 29.5 62.421875 29.09375 60.921875 
L 15.59375 7.375 
C 14.703125 3.890625 14.5 2.890625 7.5 2.890625 
C 5.59375 2.890625 4.59375 2.890625 4.59375 1.09375 
C 4.59375 0 5.203125 0 7.203125 0 
L 52 0 
C 54.203125 0 54.296875 0.09375 55 1.890625 
L 62.703125 23.09375 
C 62.90625 23.59375 63.09375 24.1875 63.09375 24.484375 
C 63.09375 25.078125 62.59375 25.484375 62.09375 25.484375 
C 62 25.484375 61.5 25.484375 61.296875 25.078125 
C 61.09375 24.984375 61.09375 24.78125 60.296875 22.890625 
C 57.09375 14.140625 52.59375 2.890625 35.703125 2.890625 
L 26.09375 2.890625 
C 24.703125 2.890625 24.5 2.890625 23.90625 3 
C 22.796875 3.09375 22.703125 3.296875 22.703125 4.09375 
C 22.703125 4.796875 22.90625 5.390625 23.09375 6.265625 
z
" id="CMMI12-76"/>
     </defs>
     <g transform="translate(132.671707 138.323644)scale(0.1 -0.1)">
      <use transform="scale(0.996264)" xlink:href="#CMMI12-76"/>
     </g>
    </g>
   </g>
   <g id="matplotlib.axis_2">
    <g id="ytick_1">
     <g id="line2d_6">
      <defs>
       <path d="M 0 0 
L 4 0 
" id="me9e268535d" style="stroke:#000000;stroke-width:0.5;"/>
      </defs>
      <g>
       <use style="stroke:#000000;stroke-width:0.5;" x="41.09297" xlink:href="#me9e268535d" y="99.386158"/>
      </g>
     </g>
     <g id="text_7">
      <!-- $10^{-14}$ -->
      <defs>
       <path d="M 65.90625 23 
C 67.59375 23 69.40625 23 69.40625 25 
C 69.40625 27 67.59375 27 65.90625 27 
L 11.796875 27 
C 10.09375 27 8.296875 27 8.296875 25 
C 8.296875 23 10.09375 23 11.796875 23 
z
" id="CMSY10-0"/>
       <path d="M 33.59375 64.40625 
C 33.59375 66.5 33.5 66.5 31.703125 66.5 
L 2 19.59375 
L 2 17 
L 27.796875 17 
L 27.796875 7.140625 
C 27.796875 3.5 27.59375 2.5 20.59375 2.5 
L 18.703125 2.5 
L 18.703125 0 
C 21.90625 0 27.296875 0 30.703125 0 
C 34.09375 0 39.5 0 42.703125 0 
L 42.703125 2.5 
L 40.796875 2.5 
C 33.796875 2.5 33.59375 3.5 33.59375 7.140625 
L 33.59375 17 
L 43.796875 17 
L 43.796875 19.59375 
L 33.59375 19.59375 
z
M 28.09375 57.859375 
L 28.09375 19.59375 
L 4 19.59375 
z
" id="CMR17-52"/>
      </defs>
      <g transform="translate(15.56264 102.153559)scale(0.08 -0.08)">
       <use transform="scale(0.996264)" xlink:href="#CMR17-49"/>
       <use transform="translate(45.690477 0)scale(0.996264)" xlink:href="#CMR17-48"/>
       <use transform="translate(91.380954 36.153639)scale(0.697382)" xlink:href="#CMSY10-0"/>
       <use transform="translate(145.621947 36.153639)scale(0.697382)" xlink:href="#CMR17-49"/>
       <use transform="translate(177.605129 36.153639)scale(0.697382)" xlink:href="#CMR17-52"/>
      </g>
     </g>
    </g>
    <g id="ytick_2">
     <g id="line2d_7">
      <g>
       <use style="stroke:#000000;stroke-width:0.5;" x="41.09297" xlink:href="#me9e268535d" y="78.339863"/>
      </g>
     </g>
     <g id="text_8">
      <!-- $10^{-11}$ -->
      <g transform="translate(15.56264 81.107264)scale(0.08 -0.08)">
       <use transform="scale(0.996264)" xlink:href="#CMR17-49"/>
       <use transform="translate(45.690477 0)scale(0.996264)" xlink:href="#CMR17-48"/>
       <use transform="translate(91.380954 36.153639)scale(0.697382)" xlink:href="#CMSY10-0"/>
       <use transform="translate(145.621947 36.153639)scale(0.697382)" xlink:href="#CMR17-49"/>
       <use transform="translate(177.605129 36.153639)scale(0.697382)" xlink:href="#CMR17-49"/>
      </g>
     </g>
    </g>
    <g id="ytick_3">
     <g id="line2d_8">
      <g>
       <use style="stroke:#000000;stroke-width:0.5;" x="41.09297" xlink:href="#me9e268535d" y="57.293568"/>
      </g>
     </g>
     <g id="text_9">
      <!-- $10^{-8}$ -->
      <defs>
       <path d="M 27.203125 35.375 
C 33.5 38.546875 39.90625 43.328125 39.90625 50.984375 
C 39.90625 60.015625 31.09375 65.296875 23 65.296875 
C 13.90625 65.296875 5.90625 58.734375 5.90625 49.6875 
C 5.90625 47.203125 6.5 42.921875 10.40625 39.140625 
C 11.40625 38.15625 15.59375 35.171875 18.296875 33.28125 
C 13.796875 30.984375 3.296875 25.53125 3.296875 14.59375 
C 3.296875 4.359375 13.09375 -2 22.796875 -2 
C 33.5 -2 42.5 5.65625 42.5 15.78125 
C 42.5 24.84375 36.40625 29.015625 32.40625 31.703125 
z
M 14.09375 44.09375 
C 13.296875 44.59375 9.296875 47.671875 9.296875 52.359375 
C 9.296875 58.421875 15.59375 63 22.796875 63 
C 30.703125 63 36.5 57.4375 36.5 50.96875 
C 36.5 41.703125 26.09375 36.421875 25.59375 36.421875 
C 25.5 36.421875 25.40625 36.421875 24.59375 37.03125 
z
M 32.5 23.734375 
C 34 22.640625 38.796875 19.375 38.796875 13.296875 
C 38.796875 5.953125 31.40625 0.390625 23 0.390625 
C 13.90625 0.390625 7 6.84375 7 14.6875 
C 7 22.546875 13.09375 29.09375 20 32.1875 
z
" id="CMR17-56"/>
      </defs>
      <g transform="translate(19.215552 60.060969)scale(0.08 -0.08)">
       <use transform="scale(0.996264)" xlink:href="#CMR17-49"/>
       <use transform="translate(45.690477 0)scale(0.996264)" xlink:href="#CMR17-48"/>
       <use transform="translate(91.380954 36.153639)scale(0.697382)" xlink:href="#CMSY10-0"/>
       <use transform="translate(145.621947 36.153639)scale(0.697382)" xlink:href="#CMR17-56"/>
      </g>
     </g>
    </g>
    <g id="ytick_4">
     <g id="line2d_9">
      <g>
       <use style="stroke:#000000;stroke-width:0.5;" x="41.09297" xlink:href="#me9e268535d" y="36.247273"/>
      </g>
     </g>
     <g id="text_10">
      <!-- $10^{-5}$ -->
      <g transform="translate(19.215552 39.014674)scale(0.08 -0.08)">
       <use transform="scale(0.996264)" xlink:href="#CMR17-49"/>
       <use transform="translate(45.690477 0)scale(0.996264)" xlink:href="#CMR17-48"/>
       <use transform="translate(91.380954 36.153639)scale(0.697382)" xlink:href="#CMSY10-0"/>
       <use transform="translate(145.621947 36.153639)scale(0.697382)" xlink:href="#CMR17-53"/>
      </g>
     </g>
    </g>
    <g id="ytick_5">
     <g id="line2d_10">
      <g>
       <use style="stroke:#000000;stroke-width:0.5;" x="41.09297" xlink:href="#me9e268535d" y="15.200978"/>
      </g>
     </g>
     <g id="text_11">
      <!-- $10^{-2}$ -->
      <g transform="translate(19.215552 17.968379)scale(0.08 -0.08)">
       <use transform="scale(0.996264)" xlink:href="#CMR17-49"/>
       <use transform="translate(45.690477 0)scale(0.996264)" xlink:href="#CMR17-48"/>
       <use transform="translate(91.380954 36.153639)scale(0.697382)" xlink:href="#CMSY10-0"/>
       <use transform="translate(145.621947 36.153639)scale(0.697382)" xlink:href="#CMR17-50"/>
      </g>
     </g>
    </g>
    <g id="text_12">
     <!-- $1-{\sf{Cyc}}(L,L)/{\sf{Cyc}}_{{\rm{tot}}}(L,L)$ -->
     <defs>
      <path d="M 54.703125 11.15625 
C 48 6.671875 44.90625 5.375 36.796875 5.375 
C 22.796875 5.375 14.59375 20.359375 14.59375 34.046875 
C 14.59375 48.625 23 63 37.203125 63 
C 43.59375 63 47.796875 61.21875 52.90625 58.046875 
L 54.296875 65.890625 
C 49.5 68.28125 43.40625 69.375 37.296875 69.375 
C 18.09375 69.375 6.203125 51.8125 6.203125 34.046875 
C 6.203125 14.484375 20.296875 -1 36.296875 -1 
C 44.90625 -1 47.90625 -0.296875 55.296875 4.375 
z
" id="CMSS17-67"/>
      <path d="M 41.796875 43 
L 34 43 
C 25.5 20.21875 22.59375 10.96875 22.40625 5.984375 
L 22.296875 5.984375 
C 22 10.875 17.59375 22.8125 14.09375 31.359375 
L 9.40625 43 
L 1.296875 43 
L 19 0.203125 
C 17.90625 -2.78125 16.296875 -7.265625 15.796875 -8.265625 
C 13.59375 -13.828125 12.09375 -13.828125 10.5 -13.828125 
C 10.09375 -13.828125 6.90625 -13.828125 3.296875 -12.640625 
L 3.90625 -19.203125 
C 6.40625 -19.703125 8.90625 -20 10.703125 -20 
C 13.203125 -20 18.203125 -20 22.796875 -7.765625 
z
" id="CMSS17-121"/>
      <path d="M 38.5 39.703125 
C 38.5 40.390625 33.90625 42.40625 32.703125 42.796875 
C 29.40625 44 25.203125 44 24.09375 44 
C 11.09375 44 3.296875 32.703125 3.296875 21.296875 
C 3.296875 9.296875 12 -1 23.703125 -1 
C 30.40625 -1 35.203125 1.1875 39.09375 3.78125 
L 38.5 10.375 
C 34.203125 7.078125 29.203125 5.265625 23.796875 5.265625 
C 16 5.265625 10.90625 12.09375 10.90625 21.390625 
C 10.90625 28.609375 14.203125 37.71875 24.203125 37.71875 
C 29.703125 37.71875 32.796875 36.609375 37.40625 33.515625 
z
" id="CMSS17-99"/>
      <path d="M 30.59375 -24.390625 
C 30.59375 -24.296875 30.59375 -24.09375 30.296875 -23.796875 
C 25.703125 -19.125 13.40625 -6.359375 13.40625 24.6875 
C 13.40625 55.765625 25.5 68.421875 30.40625 73.390625 
C 30.40625 73.5 30.59375 73.703125 30.59375 74 
C 30.59375 74.296875 30.296875 74.5 29.90625 74.5 
C 28.796875 74.5 20.296875 67.125 15.40625 56.15625 
C 10.40625 45.109375 9 34.359375 9 24.8125 
C 9 17.625 9.703125 5.484375 15.703125 -7.359375 
C 20.5 -17.734375 28.703125 -25 29.90625 -25 
C 30.40625 -25 30.59375 -24.796875 30.59375 -24.390625 
" id="CMR17-40"/>
      <path d="M 19.5 -0.484375 
C 19.5 5.359375 17.59375 9.671875 13.5 9.671875 
C 10.296875 9.671875 8.703125 7.078125 8.703125 4.890625 
C 8.703125 2.6875 10.203125 0 13.59375 0 
C 14.90625 0 16 0.40625 16.90625 1.296875 
C 17.09375 1.5 17.203125 1.5 17.296875 1.5 
C 17.5 1.5 17.5 0.078125 17.5 -0.421875 
C 17.5 -3.75 16.90625 -10.296875 11.09375 -16.875 
C 10 -18.078125 10 -18.28125 10 -18.484375 
C 10 -19 10.5 -19.5 11 -19.5 
C 11.796875 -19.5 19.5 -12.046875 19.5 -0.484375 
" id="CMMI12-59"/>
      <path d="M 26.296875 24.6875 
C 26.296875 31.875 25.59375 44.015625 19.59375 56.859375 
C 14.796875 67.234375 6.59375 74.5 5.40625 74.5 
C 5.09375 74.5 4.703125 74.390625 4.703125 73.890625 
C 4.703125 73.703125 4.796875 73.59375 4.90625 73.390625 
C 9.703125 68.40625 21.90625 55.75 21.90625 24.75 
C 21.90625 -6.359375 9.796875 -19.015625 4.90625 -24.015625 
C 4.796875 -24.203125 4.703125 -24.3125 4.703125 -24.5 
C 4.703125 -25 5.09375 -25 5.40625 -25 
C 6.5 -25 15 -17.625 19.90625 -6.65625 
C 24.90625 4.390625 26.296875 15.140625 26.296875 24.6875 
" id="CMR17-41"/>
      <path d="M 42.90625 71.296875 
C 42.90625 71.40625 43.5 72.90625 43.5 73.09375 
C 43.5 74.296875 42.5 75 41.703125 75 
C 41.203125 75 40.296875 75 39.5 72.796875 
L 6 -21.296875 
C 6 -21.40625 5.40625 -22.890625 5.40625 -23.09375 
C 5.40625 -24.296875 6.40625 -25 7.203125 -25 
C 7.796875 -25 8.703125 -24.890625 9.40625 -22.796875 
z
" id="CMMI12-61"/>
      <path d="M 15.09375 40 
L 29.09375 40 
L 29.09375 42.578125 
L 15.09375 42.578125 
L 15.09375 61 
L 13.296875 61 
C 13.09375 50.703125 9.59375 41.6875 1.09375 41.6875 
L 1.09375 40 
L 9.796875 40 
L 9.796875 12.046875 
C 9.796875 10.15625 9.796875 -1 21.40625 -1 
C 27.296875 -1 30.703125 4.78125 30.703125 12.140625 
L 30.703125 17.8125 
L 28.90625 17.8125 
L 28.90625 12.234375 
C 28.90625 5.375 26.203125 0.796875 22 0.796875 
C 19.09375 0.796875 15.09375 2.78125 15.09375 11.84375 
z
" id="CMR17-116"/>
      <path d="M 43.09375 21.1875 
C 43.09375 34 33.796875 44 22.90625 44 
C 12 44 2.703125 34 2.703125 21.1875 
C 2.703125 8.609375 12 -1 22.90625 -1 
C 33.796875 -1 43.09375 8.609375 43.09375 21.1875 
M 22.90625 0.796875 
C 18.203125 0.796875 14.203125 3.59375 11.90625 7.5 
C 9.40625 11.984375 9.09375 17.59375 9.09375 22 
C 9.09375 26.203125 9.296875 31.40625 11.90625 35.90625 
C 13.90625 39.203125 17.796875 42.40625 22.90625 42.40625 
C 27.40625 42.40625 31.203125 39.90625 33.59375 36.40625 
C 36.703125 31.703125 36.703125 25.109375 36.703125 22 
C 36.703125 18.09375 36.5 12.109375 33.796875 7.296875 
C 31 2.703125 26.703125 0.796875 22.90625 0.796875 
" id="CMR17-111"/>
     </defs>
     <g transform="translate(11.625462 118.682433)rotate(-90)scale(0.1 -0.1)">
      <use transform="translate(0 22.865092)scale(0.996264)" xlink:href="#CMR17-49"/>
      <use transform="translate(67.829684 22.865092)scale(0.996264)" xlink:href="#CMSY10-0"/>
      <use transform="translate(167.456359 22.865092)scale(0.996264)" xlink:href="#CMSS17-67"/>
      <use transform="translate(227.31213 22.865092)scale(0.996264)" xlink:href="#CMSS17-121"/>
      <use transform="translate(270.312272 22.865092)scale(0.996264)" xlink:href="#CMSS17-99"/>
      <use transform="translate(311.951094 22.865092)scale(0.996264)" xlink:href="#CMR17-40"/>
      <use transform="translate(347.231862 22.865092)scale(0.996264)" xlink:href="#CMMI12-76"/>
      <use transform="translate(413.602737 22.865092)scale(0.996264)" xlink:href="#CMMI12-59"/>
      <use transform="translate(457.30432 22.865092)scale(0.996264)" xlink:href="#CMMI12-76"/>
      <use transform="translate(523.675195 22.865092)scale(0.996264)" xlink:href="#CMR17-41"/>
      <use transform="translate(558.955963 22.865092)scale(0.996264)" xlink:href="#CMMI12-61"/>
      <use transform="translate(607.730882 22.865092)scale(0.996264)" xlink:href="#CMSS17-67"/>
      <use transform="translate(667.586653 22.865092)scale(0.996264)" xlink:href="#CMSS17-121"/>
      <use transform="translate(710.586795 22.865092)scale(0.996264)" xlink:href="#CMSS17-99"/>
      <use transform="translate(752.225617 0)scale(0.697382)" xlink:href="#CMR17-116"/>
      <use transform="translate(776.922037 0)scale(0.697382)" xlink:href="#CMR17-111"/>
      <use transform="translate(808.905219 0)scale(0.697382)" xlink:href="#CMR17-116"/>
      <use transform="translate(834.099772 22.865092)scale(0.996264)" xlink:href="#CMR17-40"/>
      <use transform="translate(869.38054 22.865092)scale(0.996264)" xlink:href="#CMMI12-76"/>
      <use transform="translate(935.751415 22.865092)scale(0.996264)" xlink:href="#CMMI12-59"/>
      <use transform="translate(979.452997 22.865092)scale(0.996264)" xlink:href="#CMMI12-76"/>
      <use transform="translate(1045.823873 22.865092)scale(0.996264)" xlink:href="#CMR17-41"/>
     </g>
    </g>
   </g>
   <g id="line2d_11">
    <defs>
     <path d="M 0 2 
C 0.530406 2 1.03916 1.789267 1.414214 1.414214 
C 1.789267 1.03916 2 0.530406 2 0 
C 2 -0.530406 1.789267 -1.03916 1.414214 -1.414214 
C 1.03916 -1.789267 0.530406 -2 0 -2 
C -0.530406 -2 -1.03916 -1.789267 -1.414214 -1.414214 
C -1.789267 -1.03916 -2 -0.530406 -2 0 
C -2 0.530406 -1.789267 1.03916 -1.414214 1.414214 
C -1.03916 1.789267 -0.530406 2 0 2 
z
" id="m260ad13208" style="stroke:#ff8c00;stroke-width:0.75;"/>
    </defs>
    <g clip-path="url(#pa5c01d7ca2)">
     <use style="fill:#fed098;stroke:#ff8c00;stroke-width:0.75;" x="45.282771" xlink:href="#m260ad13208" y="9.617536"/>
     <use style="fill:#fed098;stroke:#ff8c00;stroke-width:0.75;" x="52.265771" xlink:href="#m260ad13208" y="17.943556"/>
     <use style="fill:#fed098;stroke:#ff8c00;stroke-width:0.75;" x="59.248772" xlink:href="#m260ad13208" y="14.558961"/>
     <use style="fill:#fed098;stroke:#ff8c00;stroke-width:0.75;" x="66.231773" xlink:href="#m260ad13208" y="21.023412"/>
     <use style="fill:#fed098;stroke:#ff8c00;stroke-width:0.75;" x="73.214773" xlink:href="#m260ad13208" y="18.953335"/>
     <use style="fill:#fed098;stroke:#ff8c00;stroke-width:0.75;" x="80.197774" xlink:href="#m260ad13208" y="32.781964"/>
     <use style="fill:#fed098;stroke:#ff8c00;stroke-width:0.75;" x="87.180775" xlink:href="#m260ad13208" y="22.970697"/>
     <use style="fill:#fed098;stroke:#ff8c00;stroke-width:0.75;" x="94.163776" xlink:href="#m260ad13208" y="40.471166"/>
     <use style="fill:#fed098;stroke:#ff8c00;stroke-width:0.75;" x="101.146776" xlink:href="#m260ad13208" y="27.572739"/>
     <use style="fill:#fed098;stroke:#ff8c00;stroke-width:0.75;" x="108.129777" xlink:href="#m260ad13208" y="38.009151"/>
     <use style="fill:#fed098;stroke:#ff8c00;stroke-width:0.75;" x="115.112778" xlink:href="#m260ad13208" y="31.794627"/>
     <use style="fill:#fed098;stroke:#ff8c00;stroke-width:0.75;" x="122.095779" xlink:href="#m260ad13208" y="56.146886"/>
     <use style="fill:#fed098;stroke:#ff8c00;stroke-width:0.75;" x="129.078779" xlink:href="#m260ad13208" y="35.949175"/>
     <use style="fill:#fed098;stroke:#ff8c00;stroke-width:0.75;" x="136.06178" xlink:href="#m260ad13208" y="64.088348"/>
     <use style="fill:#fed098;stroke:#ff8c00;stroke-width:0.75;" x="143.044781" xlink:href="#m260ad13208" y="40.251158"/>
     <use style="fill:#fed098;stroke:#ff8c00;stroke-width:0.75;" x="150.027782" xlink:href="#m260ad13208" y="55.269909"/>
     <use style="fill:#fed098;stroke:#ff8c00;stroke-width:0.75;" x="157.010782" xlink:href="#m260ad13208" y="44.48027"/>
     <use style="fill:#fed098;stroke:#ff8c00;stroke-width:0.75;" x="163.993783" xlink:href="#m260ad13208" y="80.113526"/>
     <use style="fill:#fed098;stroke:#ff8c00;stroke-width:0.75;" x="170.976784" xlink:href="#m260ad13208" y="48.679908"/>
     <use style="fill:#fed098;stroke:#ff8c00;stroke-width:0.75;" x="177.959784" xlink:href="#m260ad13208" y="78.254557"/>
     <use style="fill:#fed098;stroke:#ff8c00;stroke-width:0.75;" x="184.942785" xlink:href="#m260ad13208" y="52.925198"/>
     <use style="fill:#fed098;stroke:#ff8c00;stroke-width:0.75;" x="191.925786" xlink:href="#m260ad13208" y="72.201024"/>
     <use style="fill:#fed098;stroke:#ff8c00;stroke-width:0.75;" x="198.908787" xlink:href="#m260ad13208" y="57.147597"/>
     <use style="fill:#fed098;stroke:#ff8c00;stroke-width:0.75;" x="205.891787" xlink:href="#m260ad13208" y="104.399848"/>
     <use style="fill:#fed098;stroke:#ff8c00;stroke-width:0.75;" x="212.874788" xlink:href="#m260ad13208" y="61.365196"/>
     <use style="fill:#fed098;stroke:#ff8c00;stroke-width:0.75;" x="219.857789" xlink:href="#m260ad13208" y="112.543328"/>
     <use style="fill:#fed098;stroke:#ff8c00;stroke-width:0.75;" x="226.84079" xlink:href="#m260ad13208" y="65.593535"/>
     <use style="fill:#fed098;stroke:#ff8c00;stroke-width:0.75;" x="233.82379" xlink:href="#m260ad13208" y="89.093632"/>
    </g>
   </g>
   <g id="line2d_12">
    <path clip-path="url(#pa5c01d7ca2)" d="M 45.282771 6.642332 
L 52.265771 8.91485 
L 59.248772 10.664579 
L 66.231773 12.333868 
L 73.214773 14.010554 
L 80.197774 15.716543 
L 87.180775 17.455685 
L 94.163776 19.226258 
L 101.146776 21.024967 
L 108.129777 22.848343 
L 115.112778 24.693215 
L 122.095779 26.556835 
L 129.078779 28.436871 
L 136.06178 30.33136 
L 143.044781 32.238651 
L 150.027782 34.157346 
L 157.010782 36.086261 
L 163.993783 38.024382 
L 170.976784 39.970837 
L 177.959784 41.924873 
L 184.942785 43.885831 
L 191.925786 45.853137 
L 198.908787 47.826283 
L 205.891787 49.804821 
L 212.874788 51.788351 
L 219.857789 53.776516 
L 226.84079 55.768998 
L 233.82379 57.765508 
" style="fill:none;stroke:#8caad1;stroke-linecap:square;stroke-width:2;"/>
   </g>
   <g id="line2d_13">
    <path clip-path="url(#pa5c01d7ca2)" d="M 45.282771 14.521112 
L 52.265771 17.943556 
L 59.248772 21.574392 
L 66.231773 25.247123 
L 73.214773 28.994969 
L 80.197774 32.781964 
L 87.180775 36.612082 
L 94.163776 40.471166 
L 101.146776 44.358541 
L 108.129777 48.268505 
L 115.112778 52.198905 
L 122.095779 56.146886 
L 129.078779 60.110636 
L 136.06178 64.088348 
L 143.044781 68.078647 
L 150.027782 72.080282 
L 157.010782 76.092214 
L 163.993783 80.113526 
L 170.976784 84.143423 
L 177.959784 88.181205 
L 184.942785 92.226258 
L 191.925786 96.278032 
L 198.908787 100.336041 
L 205.891787 104.399848 
L 212.874788 108.469062 
L 219.857789 112.543328 
L 226.84079 116.622326 
L 233.82379 120.705767 
" style="fill:none;stroke:#000000;stroke-dasharray:2.2,2.2;stroke-dashoffset:0;stroke-width:2;"/>
   </g>
   <g id="patch_3">
    <path d="M 41.09297 118.320598 
L 41.09297 3.961835 
" style="fill:none;stroke:#000000;stroke-linecap:square;stroke-linejoin:miter;"/>
   </g>
   <g id="patch_4">
    <path d="M 231.03059 118.320598 
L 231.03059 3.961835 
" style="fill:none;stroke:#000000;stroke-linecap:square;stroke-linejoin:miter;"/>
   </g>
   <g id="patch_5">
    <path d="M 41.09297 118.320598 
L 231.03059 118.320598 
" style="fill:none;stroke:#000000;stroke-linecap:square;stroke-linejoin:miter;"/>
   </g>
   <g id="patch_6">
    <path d="M 41.09297 3.961835 
L 231.03059 3.961835 
" style="fill:none;stroke:#000000;stroke-linecap:square;stroke-linejoin:miter;"/>
   </g>
   <g id="legend_1">
    <g id="line2d_14">
     <path d="M 52.690475 91.20879 
L 72.690475 91.20879 
" style="fill:none;stroke:#8caad1;stroke-linecap:square;stroke-width:2;"/>
    </g>
    <g id="line2d_15"/>
    <g id="text_13">
     <!-- $\frac{L {\rm{e}}^{\gamma}\left(\ln\ln L+1\right)2^{-L}}{1-2^{-L+\frac{1.5379\ln(L)}{\ln\ln(L)}}}$ -->
     <defs>
      <path d="M 38.09375 23 
C 38.5 23.40625 38.5 23.609375 38.5 24.625 
C 38.5 34.96875 33.09375 44 21.703125 44 
C 11.09375 44 2.703125 33.890625 2.703125 21.609375 
C 2.703125 8.609375 12.203125 -1 22.796875 -1 
C 34 -1 38.40625 9.484375 38.40625 11.5625 
C 38.40625 12.25 37.796875 12.25 37.59375 12.25 
C 36.90625 12.25 36.796875 12.046875 36.40625 10.875 
C 34.203125 4.140625 28.703125 0.796875 23.5 0.796875 
C 19.203125 0.796875 14.90625 3.171875 12.203125 7.5 
C 9.09375 12.546875 9.09375 18.375 9.09375 23 
z
M 9.203125 24.5 
C 9.90625 39.140625 17.59375 42.40625 21.59375 42.40625 
C 28.40625 42.40625 33 35.890625 33.09375 24.5 
z
" id="CMR17-101"/>
      <path d="M 37.796875 11.875 
C 37.59375 16.734375 37.40625 24.390625 33.59375 33.328125 
C 31.59375 38.3125 28.203125 43.5625 20.90625 43.5625 
C 8.59375 43.5625 1.90625 27.96875 1.90625 25.390625 
C 1.90625 24.484375 2.59375 24.484375 2.90625 24.484375 
C 3.796875 24.484375 3.796875 24.6875 4.296875 25.984375 
C 6.40625 32.140625 12.796875 37 19.703125 37 
C 33.59375 37 35.59375 21.609375 35.59375 11.78125 
C 35.59375 5.5 34.90625 3.4375 34.296875 1.4375 
C 32.40625 -4.71875 29.09375 -17.03125 29.09375 -19.8125 
C 29.09375 -20.609375 29.40625 -21.5 30.203125 -21.5 
C 31.703125 -21.5 32.59375 -18.21875 33.703125 -14.25 
C 36.09375 -5.515625 36.703125 -1.140625 37.203125 2.828125 
C 37.5 5.21875 43.203125 21.625 51.09375 37.21875 
C 51.796875 38.796875 53.203125 41.484375 53.203125 41.78125 
C 53.203125 41.875 53.09375 42.578125 52.203125 42.578125 
C 52 42.578125 51.5 42.578125 51.296875 42.171875 
C 51.09375 41.984375 47.59375 35.21875 44.59375 28.46875 
C 43.09375 25.09375 41.09375 20.625 37.796875 11.875 
" id="CMMI12-13"/>
      <path d="M 15.296875 68.6875 
L 3.40625 67.59375 
L 3.40625 65 
C 9.296875 65 10.203125 64.40625 10.203125 59.640625 
L 10.203125 6.65625 
C 10.203125 2.875 9.796875 2.390625 3.40625 2.390625 
L 3.40625 -0.203125 
C 5.796875 0 10.203125 0 12.703125 0 
C 15.296875 0 19.703125 0 22.09375 -0.203125 
L 22.09375 2.390625 
C 15.703125 2.390625 15.296875 2.78125 15.296875 6.65625 
z
" id="CMR17-108"/>
      <path d="M 41.5 30.203125 
C 41.5 35.296875 40.5 43.59375 28.703125 43.59375 
C 20.796875 43.59375 16.703125 37.5 15.203125 33.5 
L 15.09375 33.5 
L 15.09375 43.59375 
L 3.296875 42.5 
L 3.296875 39.90625 
C 9.203125 39.90625 10.09375 39.296875 10.09375 34.5 
L 10.09375 6.6875 
C 10.09375 2.875 9.703125 2.390625 3.296875 2.390625 
L 3.296875 -0.203125 
C 5.703125 0 10.09375 0 12.703125 0 
C 15.296875 0 19.796875 0 22.203125 -0.203125 
L 22.203125 2.390625 
C 15.796875 2.390625 15.40625 2.78125 15.40625 6.6875 
L 15.40625 25.90625 
C 15.40625 35.109375 21 42 28 42 
C 35.40625 42 36.203125 35.40625 36.203125 30.59375 
L 36.203125 6.6875 
C 36.203125 2.875 35.796875 2.390625 29.40625 2.390625 
L 29.40625 -0.203125 
C 31.796875 0 36.203125 0 38.796875 0 
C 41.40625 0 45.90625 0 48.296875 -0.203125 
L 48.296875 2.390625 
C 41.90625 2.390625 41.5 2.78125 41.5 6.6875 
z
" id="CMR17-110"/>
      <path d="M 37.703125 23 
L 64.203125 23 
C 65.59375 23 67.296875 23 67.296875 24.6875 
C 67.296875 26.484375 65.703125 26.484375 64.203125 26.484375 
L 37.703125 26.484375 
L 37.703125 52.90625 
C 37.703125 54.296875 37.703125 56 36 56 
C 34.203125 56 34.203125 54.40625 34.203125 52.90625 
L 34.203125 26.484375 
L 7.703125 26.484375 
C 6.296875 26.484375 4.59375 26.484375 4.59375 24.796875 
C 4.59375 23 6.203125 23 7.703125 23 
L 34.203125 23 
L 34.203125 -3.40625 
C 34.203125 -4.796875 34.203125 -6.5 35.90625 -6.5 
C 37.703125 -6.5 37.703125 -4.90625 37.703125 -3.40625 
z
" id="CMR17-43"/>
      <path d="M 18.40625 4.796875 
C 18.40625 7.6875 16 9.671875 13.59375 9.671875 
C 10.703125 9.671875 8.703125 7.28125 8.703125 4.890625 
C 8.703125 2 11.09375 0 13.5 0 
C 16.40625 0 18.40625 2.390625 18.40625 4.796875 
" id="CMMI12-58"/>
      <path d="M 45.09375 61.578125 
L 45.09375 63.765625 
L 21.59375 63.765625 
C 9.90625 63.765625 9.703125 65.078125 9.296875 67 
L 7.5 67 
L 4.59375 48.34375 
L 6.40625 48.34375 
C 6.703125 50.234375 7.40625 55.3125 8.59375 57.203125 
C 9.203125 58 16.59375 58 18.296875 58 
L 40.296875 58 
L 29.203125 41.578125 
C 21.796875 30.53125 16.703125 15.609375 16.703125 2.578125 
C 16.703125 1.390625 16.703125 -2 20.296875 -2 
C 23.90625 -2 23.90625 1.390625 23.90625 2.671875 
L 23.90625 7.265625 
C 23.90625 23.5625 26.703125 34.3125 31.296875 41.1875 
z
" id="CMR17-55"/>
      <path d="M 35.203125 29.125 
C 35.203125 7.25 26.09375 0.484375 18.59375 0.484375 
C 16.296875 0.484375 10.703125 0.484375 8.40625 4.59375 
C 11 4.1875 12.90625 5.578125 12.90625 8.09375 
C 12.90625 10.8125 10.703125 11.703125 9.296875 11.703125 
C 8.40625 11.703125 5.703125 11.296875 5.703125 7.90625 
C 5.703125 1.109375 11.59375 -2 18.796875 -2 
C 30.296875 -2 42 10.53125 42 32.390625 
C 42 59.640625 30.796875 65.296875 23.203125 65.296875 
C 13.296875 65.296875 3.796875 56.6875 3.796875 43.40625 
C 3.796875 31.109375 11.90625 22 22.09375 22 
C 30.5 22 34.203125 29.734375 35.203125 33 
z
M 22.296875 23.59375 
C 19.59375 23.59375 15.796875 24.09375 12.703125 30.03125 
C 10.59375 33.890625 10.59375 38.453125 10.59375 43.296875 
C 10.59375 49.15625 10.59375 53.203125 13.40625 57.5625 
C 14.796875 59.640625 17.40625 63 23.203125 63 
C 35 63 35 45.078125 35 41.125 
C 35 34.09375 31.796875 23.59375 22.296875 23.59375 
" id="CMR17-57"/>
     </defs>
     <g transform="translate(77.690475 94.70879)scale(0.1 -0.1)">
      <use transform="translate(0 142.266154)scale(0.697382)" xlink:href="#CMMI12-76"/>
      <use transform="translate(46.459414 142.266154)scale(0.697382)" xlink:href="#CMR17-101"/>
      <use transform="translate(74.799245 167.57358)scale(0.498132)" xlink:href="#CMMI12-13"/>
      <use transform="translate(103.306661 142.268373)scale(0.697382)" xlink:href="#CMR17-40"/>
      <use transform="translate(128.003082 142.266154)scale(0.697382)" xlink:href="#CMR17-108"/>
      <use transform="translate(145.412741 142.266154)scale(0.697382)" xlink:href="#CMR17-110"/>
      <use transform="translate(192.662373 142.266154)scale(0.697382)" xlink:href="#CMR17-108"/>
      <use transform="translate(210.072032 142.266154)scale(0.697382)" xlink:href="#CMR17-110"/>
      <use transform="translate(257.321665 142.266154)scale(0.697382)" xlink:href="#CMMI12-76"/>
      <use transform="translate(303.781079 142.266154)scale(0.697382)" xlink:href="#CMR17-43"/>
      <use transform="translate(353.98121 142.266154)scale(0.697382)" xlink:href="#CMR17-49"/>
      <use transform="translate(385.964392 142.268373)scale(0.697382)" xlink:href="#CMR17-41"/>
      <use transform="translate(410.660812 142.266154)scale(0.697382)" xlink:href="#CMR17-50"/>
      <use transform="translate(442.643994 167.57358)scale(0.498132)" xlink:href="#CMSY10-0"/>
      <use transform="translate(481.387728 167.57358)scale(0.498132)" xlink:href="#CMMI12-76"/>
      <use transform="translate(21.880944 0)scale(0.697382)" xlink:href="#CMR17-49"/>
      <use transform="translate(53.864126 0)scale(0.697382)" xlink:href="#CMSY10-0"/>
      <use transform="translate(108.105119 0)scale(0.697382)" xlink:href="#CMR17-50"/>
      <use transform="translate(140.088301 47.768622)scale(0.498132)" xlink:href="#CMSY10-0"/>
      <use transform="translate(178.832035 47.768622)scale(0.498132)" xlink:href="#CMMI12-76"/>
      <use transform="translate(212.017465 47.768622)scale(0.498132)" xlink:href="#CMR17-43"/>
      <use transform="translate(249.070365 75.622255)scale(0.498132)" xlink:href="#CMR17-49"/>
      <use transform="translate(271.915604 75.622255)scale(0.498132)" xlink:href="#CMMI12-58"/>
      <use transform="translate(285.464193 75.622255)scale(0.498132)" xlink:href="#CMR17-53"/>
      <use transform="translate(308.309431 75.622255)scale(0.498132)" xlink:href="#CMR17-51"/>
      <use transform="translate(331.15467 75.622255)scale(0.498132)" xlink:href="#CMR17-55"/>
      <use transform="translate(353.999908 75.622255)scale(0.498132)" xlink:href="#CMR17-57"/>
      <use transform="translate(385.147327 75.622255)scale(0.498132)" xlink:href="#CMR17-108"/>
      <use transform="translate(397.582856 75.622255)scale(0.498132)" xlink:href="#CMR17-110"/>
      <use transform="translate(423.030533 75.622255)scale(0.498132)" xlink:href="#CMR17-40"/>
      <use transform="translate(440.670909 75.622255)scale(0.498132)" xlink:href="#CMMI12-76"/>
      <use transform="translate(473.85634 75.622255)scale(0.498132)" xlink:href="#CMR17-41"/>
      <use transform="translate(294.016153 19.918166)scale(0.498132)" xlink:href="#CMR17-108"/>
      <use transform="translate(306.451682 19.918166)scale(0.498132)" xlink:href="#CMR17-110"/>
      <use transform="translate(340.201539 19.918166)scale(0.498132)" xlink:href="#CMR17-108"/>
      <use transform="translate(352.637068 19.918166)scale(0.498132)" xlink:href="#CMR17-110"/>
      <use transform="translate(378.084746 19.918166)scale(0.498132)" xlink:href="#CMR17-40"/>
      <use transform="translate(395.725122 19.918166)scale(0.498132)" xlink:href="#CMMI12-76"/>
      <use transform="translate(428.910552 19.918166)scale(0.498132)" xlink:href="#CMR17-41"/>
      <path d="M 0 116.922259 
L 515.07129 116.922259 
L 515.07129 120.907209 
L 0 120.907209 
L 0 116.922259 
z
"/>
      <path d="M 249.070365 59.225688 
L 491.496716 59.225688 
L 491.496716 61.218155 
L 249.070365 61.218155 
L 249.070365 59.225688 
z
"/>
     </g>
    </g>
    <g id="line2d_16">
     <path d="M 52.690475 104.309069 
L 72.690475 104.309069 
" style="fill:none;stroke:#000000;stroke-dasharray:2.2,2.2;stroke-dashoffset:0;stroke-width:2;"/>
    </g>
    <g id="line2d_17"/>
    <g id="text_14">
     <!-- ${\sf{Cyc}}_{\rm{tot}}(L,L)^{-1}$ -->
     <g transform="translate(77.690475 107.809069)scale(0.1 -0.1)">
      <use transform="translate(0 22.865092)scale(0.996264)" xlink:href="#CMSS17-67"/>
      <use transform="translate(59.855772 22.865092)scale(0.996264)" xlink:href="#CMSS17-121"/>
      <use transform="translate(102.855913 22.865092)scale(0.996264)" xlink:href="#CMSS17-99"/>
      <use transform="translate(144.494735 0)scale(0.697382)" xlink:href="#CMR17-116"/>
      <use transform="translate(169.191156 0)scale(0.697382)" xlink:href="#CMR17-111"/>
      <use transform="translate(201.174338 0)scale(0.697382)" xlink:href="#CMR17-116"/>
      <use transform="translate(226.36889 22.865092)scale(0.996264)" xlink:href="#CMR17-40"/>
      <use transform="translate(261.649658 22.865092)scale(0.996264)" xlink:href="#CMMI12-76"/>
      <use transform="translate(328.020533 22.865092)scale(0.996264)" xlink:href="#CMMI12-59"/>
      <use transform="translate(371.722116 22.865092)scale(0.996264)" xlink:href="#CMMI12-76"/>
      <use transform="translate(438.092991 22.865092)scale(0.996264)" xlink:href="#CMR17-41"/>
      <use transform="translate(473.373759 59.018731)scale(0.697382)" xlink:href="#CMSY10-0"/>
      <use transform="translate(527.614752 59.018731)scale(0.697382)" xlink:href="#CMR17-49"/>
     </g>
    </g>
   </g>
  </g>
 </g>
 <defs>
  <clipPath id="pa5c01d7ca2">
   <rect height="114.358763" width="189.93762" x="41.09297" y="3.961835"/>
  </clipPath>
 </defs>
</svg>
