<?xml version="1.0" encoding="utf-8" standalone="no"?>
<!DOCTYPE svg PUBLIC "-//W3C//DTD SVG 1.1//EN"
  "http://www.w3.org/Graphics/SVG/1.1/DTD/svg11.dtd">
<!-- Created with matplotlib (http://matplotlib.org/) -->
<svg height="137pt" version="1.1" viewBox="0 0 229 137" width="229pt" xmlns="http://www.w3.org/2000/svg" xmlns:xlink="http://www.w3.org/1999/xlink">
 <defs>
  <style type="text/css">
*{stroke-linecap:butt;stroke-linejoin:round;}
  </style>
 </defs>
 <g id="figure_1">
  <g id="patch_1">
   <path d="M 0 137.275965 
L 229.870714 137.275965 
L 229.870714 0 
L 0 0 
z
" style="fill:#ffffff;"/>
  </g>
  <g id="axes_1">
   <g id="patch_2">
    <path d="M 36.333094 117.958763 
L 226.270714 117.958763 
L 226.270714 3.6 
L 36.333094 3.6 
z
" style="fill:#ffffff;"/>
   </g>
   <g id="line2d_1">
    <defs>
     <path d="M 0 2 
C 0.530406 2 1.03916 1.789267 1.414214 1.414214 
C 1.789267 1.03916 2 0.530406 2 0 
C 2 -0.530406 1.789267 -1.03916 1.414214 -1.414214 
C 1.03916 -1.789267 0.530406 -2 0 -2 
C -0.530406 -2 -1.03916 -1.789267 -1.414214 -1.414214 
C -1.789267 -1.03916 -2 -0.530406 -2 0 
C -2 0.530406 -1.789267 1.03916 -1.414214 1.414214 
C -1.03916 1.789267 -0.530406 2 0 2 
z
" id="ma2b86b17c3" style="stroke:#4173b3;stroke-width:0.25;"/>
    </defs>
    <g clip-path="url(#pf0d05a6088)">
     <use style="fill:#8caad1;stroke:#4173b3;stroke-width:0.25;" x="38.722837" xlink:href="#ma2b86b17c3" y="10.799669"/>
     <use style="fill:#8caad1;stroke:#4173b3;stroke-width:0.25;" x="41.333777" xlink:href="#ma2b86b17c3" y="12.111625"/>
     <use style="fill:#8caad1;stroke:#4173b3;stroke-width:0.25;" x="43.946807" xlink:href="#ma2b86b17c3" y="13.420278"/>
     <use style="fill:#8caad1;stroke:#4173b3;stroke-width:0.25;" x="46.564201" xlink:href="#ma2b86b17c3" y="14.725402"/>
     <use style="fill:#8caad1;stroke:#4173b3;stroke-width:0.25;" x="49.169618" xlink:href="#ma2b86b17c3" y="16.026757"/>
     <use style="fill:#8caad1;stroke:#4173b3;stroke-width:0.25;" x="51.775838" xlink:href="#ma2b86b17c3" y="17.32408"/>
     <use style="fill:#8caad1;stroke:#4173b3;stroke-width:0.25;" x="54.387733" xlink:href="#ma2b86b17c3" y="18.617091"/>
     <use style="fill:#8caad1;stroke:#4173b3;stroke-width:0.25;" x="57.004853" xlink:href="#ma2b86b17c3" y="19.905486"/>
     <use style="fill:#8caad1;stroke:#4173b3;stroke-width:0.25;" x="59.614367" xlink:href="#ma2b86b17c3" y="21.188943"/>
     <use style="fill:#8caad1;stroke:#4173b3;stroke-width:0.25;" x="62.221573" xlink:href="#ma2b86b17c3" y="22.467116"/>
     <use style="fill:#8caad1;stroke:#4173b3;stroke-width:0.25;" x="64.833976" xlink:href="#ma2b86b17c3" y="23.739639"/>
     <use style="fill:#8caad1;stroke:#4173b3;stroke-width:0.25;" x="67.446425" xlink:href="#ma2b86b17c3" y="25.006122"/>
     <use style="fill:#8caad1;stroke:#4173b3;stroke-width:0.25;" x="70.058185" xlink:href="#ma2b86b17c3" y="26.266156"/>
     <use style="fill:#8caad1;stroke:#4173b3;stroke-width:0.25;" x="72.67074" xlink:href="#ma2b86b17c3" y="27.519315"/>
     <use style="fill:#8caad1;stroke:#4173b3;stroke-width:0.25;" x="75.281797" xlink:href="#ma2b86b17c3" y="28.76515"/>
     <use style="fill:#8caad1;stroke:#4173b3;stroke-width:0.25;" x="77.890866" xlink:href="#ma2b86b17c3" y="30.003204"/>
     <use style="fill:#8caad1;stroke:#4173b3;stroke-width:0.25;" x="80.505379" xlink:href="#ma2b86b17c3" y="31.233006"/>
     <use style="fill:#8caad1;stroke:#4173b3;stroke-width:0.25;" x="83.113692" xlink:href="#ma2b86b17c3" y="32.454079"/>
     <use style="fill:#8caad1;stroke:#4173b3;stroke-width:0.25;" x="85.725666" xlink:href="#ma2b86b17c3" y="33.665949"/>
     <use style="fill:#8caad1;stroke:#4173b3;stroke-width:0.25;" x="88.339034" xlink:href="#ma2b86b17c3" y="34.868147"/>
     <use style="fill:#8caad1;stroke:#4173b3;stroke-width:0.25;" x="90.949098" xlink:href="#ma2b86b17c3" y="36.060221"/>
     <use style="fill:#8caad1;stroke:#4173b3;stroke-width:0.25;" x="93.560038" xlink:href="#ma2b86b17c3" y="37.241744"/>
     <use style="fill:#8caad1;stroke:#4173b3;stroke-width:0.25;" x="96.171266" xlink:href="#ma2b86b17c3" y="38.412324"/>
     <use style="fill:#8caad1;stroke:#4173b3;stroke-width:0.25;" x="98.782434" xlink:href="#ma2b86b17c3" y="39.571619"/>
     <use style="fill:#8caad1;stroke:#4173b3;stroke-width:0.25;" x="101.394448" xlink:href="#ma2b86b17c3" y="40.719346"/>
     <use style="fill:#8caad1;stroke:#4173b3;stroke-width:0.25;" x="104.005926" xlink:href="#ma2b86b17c3" y="41.855299"/>
     <use style="fill:#8caad1;stroke:#4173b3;stroke-width:0.25;" x="106.617405" xlink:href="#ma2b86b17c3" y="42.979359"/>
     <use style="fill:#8caad1;stroke:#4173b3;stroke-width:0.25;" x="109.228075" xlink:href="#ma2b86b17c3" y="44.091511"/>
     <use style="fill:#8caad1;stroke:#4173b3;stroke-width:0.25;" x="111.839725" xlink:href="#ma2b86b17c3" y="45.191858"/>
     <use style="fill:#8caad1;stroke:#4173b3;stroke-width:0.25;" x="114.451053" xlink:href="#ma2b86b17c3" y="46.280634"/>
     <use style="fill:#8caad1;stroke:#4173b3;stroke-width:0.25;" x="117.062389" xlink:href="#ma2b86b17c3" y="47.358221"/>
     <use style="fill:#8caad1;stroke:#4173b3;stroke-width:0.25;" x="119.673325" xlink:href="#ma2b86b17c3" y="48.425154"/>
     <use style="fill:#8caad1;stroke:#4173b3;stroke-width:0.25;" x="122.285016" xlink:href="#ma2b86b17c3" y="49.482139"/>
     <use style="fill:#8caad1;stroke:#4173b3;stroke-width:0.25;" x="124.895985" xlink:href="#ma2b86b17c3" y="50.530058"/>
     <use style="fill:#8caad1;stroke:#4173b3;stroke-width:0.25;" x="127.507606" xlink:href="#ma2b86b17c3" y="51.569981"/>
     <use style="fill:#8caad1;stroke:#4173b3;stroke-width:0.25;" x="130.11874" xlink:href="#ma2b86b17c3" y="52.603166"/>
     <use style="fill:#8caad1;stroke:#4173b3;stroke-width:0.25;" x="132.730202" xlink:href="#ma2b86b17c3" y="53.631069"/>
     <use style="fill:#8caad1;stroke:#4173b3;stroke-width:0.25;" x="135.341555" xlink:href="#ma2b86b17c3" y="54.655345"/>
     <use style="fill:#8caad1;stroke:#4173b3;stroke-width:0.25;" x="137.952783" xlink:href="#ma2b86b17c3" y="55.677851"/>
     <use style="fill:#8caad1;stroke:#4173b3;stroke-width:0.25;" x="140.564022" xlink:href="#ma2b86b17c3" y="56.700651"/>
     <use style="fill:#8caad1;stroke:#4173b3;stroke-width:0.25;" x="143.175359" xlink:href="#ma2b86b17c3" y="57.726011"/>
     <use style="fill:#8caad1;stroke:#4173b3;stroke-width:0.25;" x="145.786703" xlink:href="#ma2b86b17c3" y="58.756407"/>
     <use style="fill:#8caad1;stroke:#4173b3;stroke-width:0.25;" x="148.398068" xlink:href="#ma2b86b17c3" y="59.794528"/>
     <use style="fill:#8caad1;stroke:#4173b3;stroke-width:0.25;" x="151.009338" xlink:href="#ma2b86b17c3" y="60.843273"/>
     <use style="fill:#8caad1;stroke:#4173b3;stroke-width:0.25;" x="153.620566" xlink:href="#ma2b86b17c3" y="61.905766"/>
     <use style="fill:#8caad1;stroke:#4173b3;stroke-width:0.25;" x="156.231932" xlink:href="#ma2b86b17c3" y="62.985353"/>
     <use style="fill:#8caad1;stroke:#4173b3;stroke-width:0.25;" x="158.843211" xlink:href="#ma2b86b17c3" y="64.085616"/>
     <use style="fill:#8caad1;stroke:#4173b3;stroke-width:0.25;" x="161.454539" xlink:href="#ma2b86b17c3" y="65.210384"/>
     <use style="fill:#8caad1;stroke:#4173b3;stroke-width:0.25;" x="164.065896" xlink:href="#ma2b86b17c3" y="66.363741"/>
     <use style="fill:#8caad1;stroke:#4173b3;stroke-width:0.25;" x="166.677153" xlink:href="#ma2b86b17c3" y="67.550039"/>
     <use style="fill:#8caad1;stroke:#4173b3;stroke-width:0.25;" x="169.288506" xlink:href="#ma2b86b17c3" y="68.773914"/>
     <use style="fill:#8caad1;stroke:#4173b3;stroke-width:0.25;" x="171.899778" xlink:href="#ma2b86b17c3" y="70.040295"/>
     <use style="fill:#8caad1;stroke:#4173b3;stroke-width:0.25;" x="174.511106" xlink:href="#ma2b86b17c3" y="71.354413"/>
     <use style="fill:#8caad1;stroke:#4173b3;stroke-width:0.25;" x="177.122449" xlink:href="#ma2b86b17c3" y="72.721806"/>
     <use style="fill:#8caad1;stroke:#4173b3;stroke-width:0.25;" x="179.733731" xlink:href="#ma2b86b17c3" y="74.148327"/>
     <use style="fill:#8caad1;stroke:#4173b3;stroke-width:0.25;" x="182.345042" xlink:href="#ma2b86b17c3" y="75.640144"/>
     <use style="fill:#8caad1;stroke:#4173b3;stroke-width:0.25;" x="184.956355" xlink:href="#ma2b86b17c3" y="77.203755"/>
     <use style="fill:#8caad1;stroke:#4173b3;stroke-width:0.25;" x="187.567688" xlink:href="#ma2b86b17c3" y="78.845995"/>
     <use style="fill:#8caad1;stroke:#4173b3;stroke-width:0.25;" x="190.178987" xlink:href="#ma2b86b17c3" y="80.574061"/>
     <use style="fill:#8caad1;stroke:#4173b3;stroke-width:0.25;" x="192.790309" xlink:href="#ma2b86b17c3" y="82.395515"/>
     <use style="fill:#8caad1;stroke:#4173b3;stroke-width:0.25;" x="195.40162" xlink:href="#ma2b86b17c3" y="84.318302"/>
     <use style="fill:#8caad1;stroke:#4173b3;stroke-width:0.25;" x="198.012924" xlink:href="#ma2b86b17c3" y="86.350792"/>
     <use style="fill:#8caad1;stroke:#4173b3;stroke-width:0.25;" x="200.624239" xlink:href="#ma2b86b17c3" y="88.501861"/>
     <use style="fill:#8caad1;stroke:#4173b3;stroke-width:0.25;" x="203.235566" xlink:href="#ma2b86b17c3" y="90.781054"/>
     <use style="fill:#8caad1;stroke:#4173b3;stroke-width:0.25;" x="205.846869" xlink:href="#ma2b86b17c3" y="93.198861"/>
     <use style="fill:#8caad1;stroke:#4173b3;stroke-width:0.25;" x="208.45818" xlink:href="#ma2b86b17c3" y="95.767194"/>
     <use style="fill:#8caad1;stroke:#4173b3;stroke-width:0.25;" x="211.069495" xlink:href="#ma2b86b17c3" y="98.500198"/>
     <use style="fill:#8caad1;stroke:#4173b3;stroke-width:0.25;" x="213.68081" xlink:href="#ma2b86b17c3" y="101.415715"/>
     <use style="fill:#8caad1;stroke:#4173b3;stroke-width:0.25;" x="216.29212" xlink:href="#ma2b86b17c3" y="104.538227"/>
     <use style="fill:#8caad1;stroke:#4173b3;stroke-width:0.25;" x="218.903438" xlink:href="#ma2b86b17c3" y="107.905979"/>
     <use style="fill:#8caad1;stroke:#4173b3;stroke-width:0.25;" x="221.514753" xlink:href="#ma2b86b17c3" y="111.591334"/>
     <use style="fill:#8caad1;stroke:#4173b3;stroke-width:0.25;" x="224.126064" xlink:href="#ma2b86b17c3" y="115.765351"/>
     <use style="fill:#8caad1;stroke:#4173b3;stroke-width:0.25;" x="226.737378" xlink:href="#ma2b86b17c3" y="120.913453"/>
     <use style="fill:#8caad1;stroke:#4173b3;stroke-width:0.25;" x="229.34869" xlink:href="#ma2b86b17c3" y="128.71471"/>
     <use style="fill:#8caad1;stroke:#4173b3;stroke-width:0.25;" x="231.960001" xlink:href="#ma2b86b17c3" y="144.5958"/>
     <use style="fill:#8caad1;stroke:#4173b3;stroke-width:0.25;" x="234.571315" xlink:href="#ma2b86b17c3" y="137.523098"/>
     <use style="fill:#8caad1;stroke:#4173b3;stroke-width:0.25;" x="237.182627" xlink:href="#ma2b86b17c3" y="141.252094"/>
     <use style="fill:#8caad1;stroke:#4173b3;stroke-width:0.25;" x="239.793942" xlink:href="#ma2b86b17c3" y="147.169591"/>
     <use style="fill:#8caad1;stroke:#4173b3;stroke-width:0.25;" x="242.405254" xlink:href="#ma2b86b17c3" y="153.82429"/>
     <use style="fill:#8caad1;stroke:#4173b3;stroke-width:0.25;" x="245.016567" xlink:href="#ma2b86b17c3" y="160.710913"/>
     <use style="fill:#8caad1;stroke:#4173b3;stroke-width:0.25;" x="247.627881" xlink:href="#ma2b86b17c3" y="167.671475"/>
    </g>
   </g>
   <g id="line2d_2">
    <defs>
     <path d="M 0 -2 
L -2 2 
L 2 2 
z
" id="mcbe324955b" style="stroke:#ff8c00;stroke-linejoin:miter;stroke-width:0.25;"/>
    </defs>
    <g clip-path="url(#pf0d05a6088)">
     <use style="fill:#feb965;stroke:#ff8c00;stroke-linejoin:miter;stroke-width:0.25;" x="38.722837" xlink:href="#mcbe324955b" y="91.281094"/>
     <use style="fill:#feb965;stroke:#ff8c00;stroke-linejoin:miter;stroke-width:0.25;" x="41.333777" xlink:href="#mcbe324955b" y="91.284534"/>
     <use style="fill:#feb965;stroke:#ff8c00;stroke-linejoin:miter;stroke-width:0.25;" x="43.946807" xlink:href="#mcbe324955b" y="91.288392"/>
     <use style="fill:#feb965;stroke:#ff8c00;stroke-linejoin:miter;stroke-width:0.25;" x="46.564201" xlink:href="#mcbe324955b" y="91.292717"/>
     <use style="fill:#feb965;stroke:#ff8c00;stroke-linejoin:miter;stroke-width:0.25;" x="49.169618" xlink:href="#mcbe324955b" y="91.297565"/>
     <use style="fill:#feb965;stroke:#ff8c00;stroke-linejoin:miter;stroke-width:0.25;" x="51.775838" xlink:href="#mcbe324955b" y="91.303001"/>
     <use style="fill:#feb965;stroke:#ff8c00;stroke-linejoin:miter;stroke-width:0.25;" x="54.387733" xlink:href="#mcbe324955b" y="91.309094"/>
     <use style="fill:#feb965;stroke:#ff8c00;stroke-linejoin:miter;stroke-width:0.25;" x="57.004853" xlink:href="#mcbe324955b" y="91.315922"/>
     <use style="fill:#feb965;stroke:#ff8c00;stroke-linejoin:miter;stroke-width:0.25;" x="59.614367" xlink:href="#mcbe324955b" y="91.323574"/>
     <use style="fill:#feb965;stroke:#ff8c00;stroke-linejoin:miter;stroke-width:0.25;" x="62.221573" xlink:href="#mcbe324955b" y="91.332148"/>
     <use style="fill:#feb965;stroke:#ff8c00;stroke-linejoin:miter;stroke-width:0.25;" x="64.833976" xlink:href="#mcbe324955b" y="91.341753"/>
     <use style="fill:#feb965;stroke:#ff8c00;stroke-linejoin:miter;stroke-width:0.25;" x="67.446425" xlink:href="#mcbe324955b" y="91.352511"/>
     <use style="fill:#feb965;stroke:#ff8c00;stroke-linejoin:miter;stroke-width:0.25;" x="70.058185" xlink:href="#mcbe324955b" y="91.364559"/>
     <use style="fill:#feb965;stroke:#ff8c00;stroke-linejoin:miter;stroke-width:0.25;" x="72.67074" xlink:href="#mcbe324955b" y="91.378048"/>
     <use style="fill:#feb965;stroke:#ff8c00;stroke-linejoin:miter;stroke-width:0.25;" x="75.281797" xlink:href="#mcbe324955b" y="91.393146"/>
     <use style="fill:#feb965;stroke:#ff8c00;stroke-linejoin:miter;stroke-width:0.25;" x="77.890866" xlink:href="#mcbe324955b" y="91.410041"/>
     <use style="fill:#feb965;stroke:#ff8c00;stroke-linejoin:miter;stroke-width:0.25;" x="80.505379" xlink:href="#mcbe324955b" y="91.428942"/>
     <use style="fill:#feb965;stroke:#ff8c00;stroke-linejoin:miter;stroke-width:0.25;" x="83.113692" xlink:href="#mcbe324955b" y="91.45008"/>
     <use style="fill:#feb965;stroke:#ff8c00;stroke-linejoin:miter;stroke-width:0.25;" x="85.725666" xlink:href="#mcbe324955b" y="91.473711"/>
     <use style="fill:#feb965;stroke:#ff8c00;stroke-linejoin:miter;stroke-width:0.25;" x="88.339034" xlink:href="#mcbe324955b" y="91.500118"/>
     <use style="fill:#feb965;stroke:#ff8c00;stroke-linejoin:miter;stroke-width:0.25;" x="90.949098" xlink:href="#mcbe324955b" y="91.529616"/>
     <use style="fill:#feb965;stroke:#ff8c00;stroke-linejoin:miter;stroke-width:0.25;" x="93.560038" xlink:href="#mcbe324955b" y="91.562551"/>
     <use style="fill:#feb965;stroke:#ff8c00;stroke-linejoin:miter;stroke-width:0.25;" x="96.171266" xlink:href="#mcbe324955b" y="91.599306"/>
     <use style="fill:#feb965;stroke:#ff8c00;stroke-linejoin:miter;stroke-width:0.25;" x="98.782434" xlink:href="#mcbe324955b" y="91.640301"/>
     <use style="fill:#feb965;stroke:#ff8c00;stroke-linejoin:miter;stroke-width:0.25;" x="101.394448" xlink:href="#mcbe324955b" y="91.686"/>
     <use style="fill:#feb965;stroke:#ff8c00;stroke-linejoin:miter;stroke-width:0.25;" x="104.005926" xlink:href="#mcbe324955b" y="91.736911"/>
     <use style="fill:#feb965;stroke:#ff8c00;stroke-linejoin:miter;stroke-width:0.25;" x="106.617405" xlink:href="#mcbe324955b" y="91.793591"/>
     <use style="fill:#feb965;stroke:#ff8c00;stroke-linejoin:miter;stroke-width:0.25;" x="109.228075" xlink:href="#mcbe324955b" y="91.85665"/>
     <use style="fill:#feb965;stroke:#ff8c00;stroke-linejoin:miter;stroke-width:0.25;" x="111.839725" xlink:href="#mcbe324955b" y="91.926756"/>
     <use style="fill:#feb965;stroke:#ff8c00;stroke-linejoin:miter;stroke-width:0.25;" x="114.451053" xlink:href="#mcbe324955b" y="92.004637"/>
     <use style="fill:#feb965;stroke:#ff8c00;stroke-linejoin:miter;stroke-width:0.25;" x="117.062389" xlink:href="#mcbe324955b" y="92.091086"/>
     <use style="fill:#feb965;stroke:#ff8c00;stroke-linejoin:miter;stroke-width:0.25;" x="119.673325" xlink:href="#mcbe324955b" y="92.186967"/>
     <use style="fill:#feb965;stroke:#ff8c00;stroke-linejoin:miter;stroke-width:0.25;" x="122.285016" xlink:href="#mcbe324955b" y="92.293221"/>
     <use style="fill:#feb965;stroke:#ff8c00;stroke-linejoin:miter;stroke-width:0.25;" x="124.895985" xlink:href="#mcbe324955b" y="92.410868"/>
     <use style="fill:#feb965;stroke:#ff8c00;stroke-linejoin:miter;stroke-width:0.25;" x="127.507606" xlink:href="#mcbe324955b" y="92.541017"/>
     <use style="fill:#feb965;stroke:#ff8c00;stroke-linejoin:miter;stroke-width:0.25;" x="130.11874" xlink:href="#mcbe324955b" y="92.68487"/>
     <use style="fill:#feb965;stroke:#ff8c00;stroke-linejoin:miter;stroke-width:0.25;" x="132.730202" xlink:href="#mcbe324955b" y="92.843731"/>
     <use style="fill:#feb965;stroke:#ff8c00;stroke-linejoin:miter;stroke-width:0.25;" x="135.341555" xlink:href="#mcbe324955b" y="93.019012"/>
     <use style="fill:#feb965;stroke:#ff8c00;stroke-linejoin:miter;stroke-width:0.25;" x="137.952783" xlink:href="#mcbe324955b" y="93.212245"/>
     <use style="fill:#feb965;stroke:#ff8c00;stroke-linejoin:miter;stroke-width:0.25;" x="140.564022" xlink:href="#mcbe324955b" y="93.425086"/>
     <use style="fill:#feb965;stroke:#ff8c00;stroke-linejoin:miter;stroke-width:0.25;" x="143.175359" xlink:href="#mcbe324955b" y="93.65933"/>
     <use style="fill:#feb965;stroke:#ff8c00;stroke-linejoin:miter;stroke-width:0.25;" x="145.786703" xlink:href="#mcbe324955b" y="93.916921"/>
     <use style="fill:#feb965;stroke:#ff8c00;stroke-linejoin:miter;stroke-width:0.25;" x="148.398068" xlink:href="#mcbe324955b" y="94.19996"/>
     <use style="fill:#feb965;stroke:#ff8c00;stroke-linejoin:miter;stroke-width:0.25;" x="151.009338" xlink:href="#mcbe324955b" y="94.510721"/>
     <use style="fill:#feb965;stroke:#ff8c00;stroke-linejoin:miter;stroke-width:0.25;" x="153.620566" xlink:href="#mcbe324955b" y="94.851663"/>
     <use style="fill:#feb965;stroke:#ff8c00;stroke-linejoin:miter;stroke-width:0.25;" x="156.231932" xlink:href="#mcbe324955b" y="95.22544"/>
     <use style="fill:#feb965;stroke:#ff8c00;stroke-linejoin:miter;stroke-width:0.25;" x="158.843211" xlink:href="#mcbe324955b" y="95.634919"/>
     <use style="fill:#feb965;stroke:#ff8c00;stroke-linejoin:miter;stroke-width:0.25;" x="161.454539" xlink:href="#mcbe324955b" y="96.083188"/>
     <use style="fill:#feb965;stroke:#ff8c00;stroke-linejoin:miter;stroke-width:0.25;" x="164.065896" xlink:href="#mcbe324955b" y="96.573574"/>
     <use style="fill:#feb965;stroke:#ff8c00;stroke-linejoin:miter;stroke-width:0.25;" x="166.677153" xlink:href="#mcbe324955b" y="97.109648"/>
     <use style="fill:#feb965;stroke:#ff8c00;stroke-linejoin:miter;stroke-width:0.25;" x="169.288506" xlink:href="#mcbe324955b" y="97.695244"/>
     <use style="fill:#feb965;stroke:#ff8c00;stroke-linejoin:miter;stroke-width:0.25;" x="171.899778" xlink:href="#mcbe324955b" y="98.334461"/>
     <use style="fill:#feb965;stroke:#ff8c00;stroke-linejoin:miter;stroke-width:0.25;" x="174.511106" xlink:href="#mcbe324955b" y="99.031672"/>
     <use style="fill:#feb965;stroke:#ff8c00;stroke-linejoin:miter;stroke-width:0.25;" x="177.122449" xlink:href="#mcbe324955b" y="99.79153"/>
     <use style="fill:#feb965;stroke:#ff8c00;stroke-linejoin:miter;stroke-width:0.25;" x="179.733731" xlink:href="#mcbe324955b" y="100.618963"/>
     <use style="fill:#feb965;stroke:#ff8c00;stroke-linejoin:miter;stroke-width:0.25;" x="182.345042" xlink:href="#mcbe324955b" y="101.519177"/>
     <use style="fill:#feb965;stroke:#ff8c00;stroke-linejoin:miter;stroke-width:0.25;" x="184.956355" xlink:href="#mcbe324955b" y="102.497647"/>
     <use style="fill:#feb965;stroke:#ff8c00;stroke-linejoin:miter;stroke-width:0.25;" x="187.567688" xlink:href="#mcbe324955b" y="103.560108"/>
     <use style="fill:#feb965;stroke:#ff8c00;stroke-linejoin:miter;stroke-width:0.25;" x="190.178987" xlink:href="#mcbe324955b" y="104.712551"/>
     <use style="fill:#feb965;stroke:#ff8c00;stroke-linejoin:miter;stroke-width:0.25;" x="192.790309" xlink:href="#mcbe324955b" y="105.961214"/>
     <use style="fill:#feb965;stroke:#ff8c00;stroke-linejoin:miter;stroke-width:0.25;" x="195.40162" xlink:href="#mcbe324955b" y="107.312587"/>
     <use style="fill:#feb965;stroke:#ff8c00;stroke-linejoin:miter;stroke-width:0.25;" x="198.012924" xlink:href="#mcbe324955b" y="108.773437"/>
     <use style="fill:#feb965;stroke:#ff8c00;stroke-linejoin:miter;stroke-width:0.25;" x="200.624239" xlink:href="#mcbe324955b" y="110.350864"/>
     <use style="fill:#feb965;stroke:#ff8c00;stroke-linejoin:miter;stroke-width:0.25;" x="203.235566" xlink:href="#mcbe324955b" y="112.052404"/>
     <use style="fill:#feb965;stroke:#ff8c00;stroke-linejoin:miter;stroke-width:0.25;" x="205.846869" xlink:href="#mcbe324955b" y="113.886233"/>
     <use style="fill:#feb965;stroke:#ff8c00;stroke-linejoin:miter;stroke-width:0.25;" x="208.45818" xlink:href="#mcbe324955b" y="115.861514"/>
     <use style="fill:#feb965;stroke:#ff8c00;stroke-linejoin:miter;stroke-width:0.25;" x="211.069495" xlink:href="#mcbe324955b" y="117.988999"/>
     <use style="fill:#feb965;stroke:#ff8c00;stroke-linejoin:miter;stroke-width:0.25;" x="213.68081" xlink:href="#mcbe324955b" y="120.282105"/>
     <use style="fill:#feb965;stroke:#ff8c00;stroke-linejoin:miter;stroke-width:0.25;" x="216.29212" xlink:href="#mcbe324955b" y="122.758863"/>
     <use style="fill:#feb965;stroke:#ff8c00;stroke-linejoin:miter;stroke-width:0.25;" x="218.903438" xlink:href="#mcbe324955b" y="125.445631"/>
     <use style="fill:#feb965;stroke:#ff8c00;stroke-linejoin:miter;stroke-width:0.25;" x="221.514753" xlink:href="#mcbe324955b" y="128.384433"/>
     <use style="fill:#feb965;stroke:#ff8c00;stroke-linejoin:miter;stroke-width:0.25;" x="224.126064" xlink:href="#mcbe324955b" y="131.647623"/>
     <use style="fill:#feb965;stroke:#ff8c00;stroke-linejoin:miter;stroke-width:0.25;" x="226.737378" xlink:href="#mcbe324955b" y="135.364351"/>
     <use style="fill:#feb965;stroke:#ff8c00;stroke-linejoin:miter;stroke-width:0.25;" x="229.34869" xlink:href="#mcbe324955b" y="139.74575"/>
     <use style="fill:#feb965;stroke:#ff8c00;stroke-linejoin:miter;stroke-width:0.25;" x="231.960001" xlink:href="#mcbe324955b" y="145.010294"/>
     <use style="fill:#feb965;stroke:#ff8c00;stroke-linejoin:miter;stroke-width:0.25;" x="234.571315" xlink:href="#mcbe324955b" y="151.101167"/>
     <use style="fill:#feb965;stroke:#ff8c00;stroke-linejoin:miter;stroke-width:0.25;" x="237.182627" xlink:href="#mcbe324955b" y="157.63225"/>
     <use style="fill:#feb965;stroke:#ff8c00;stroke-linejoin:miter;stroke-width:0.25;" x="239.793942" xlink:href="#mcbe324955b" y="164.308605"/>
     <use style="fill:#feb965;stroke:#ff8c00;stroke-linejoin:miter;stroke-width:0.25;" x="242.405254" xlink:href="#mcbe324955b" y="171.055167"/>
     <use style="fill:#feb965;stroke:#ff8c00;stroke-linejoin:miter;stroke-width:0.25;" x="245.016567" xlink:href="#mcbe324955b" y="177.870005"/>
     <use style="fill:#feb965;stroke:#ff8c00;stroke-linejoin:miter;stroke-width:0.25;" x="247.627881" xlink:href="#mcbe324955b" y="184.750145"/>
    </g>
   </g>
   <g id="matplotlib.axis_1">
    <g id="xtick_1">
     <g id="line2d_3">
      <defs>
       <path d="M 0 0 
L 0 -4 
" id="m4045ea3cd8" style="stroke:#000000;stroke-width:0.5;"/>
      </defs>
      <g>
       <use style="stroke:#000000;stroke-width:0.5;" x="38.722837" xlink:href="#m4045ea3cd8" y="117.958763"/>
      </g>
     </g>
     <g id="text_1">
      <!-- $10^{-3}$ -->
      <defs>
       <path d="M 26.59375 63.40625 
C 26.59375 65.5 26.5 65.5 25.09375 65.5 
C 21.203125 61.1875 15.296875 59.796875 9.703125 59.796875 
C 9.40625 59.796875 8.90625 59.796875 8.796875 59.5 
C 8.703125 59.296875 8.703125 59.09375 8.703125 57 
C 11.796875 57 17 57.59375 21 59.984375 
L 21 7.203125 
C 21 3.6875 20.796875 2.5 12.203125 2.5 
L 9.203125 2.5 
L 9.203125 0 
C 14 0 19 0 23.796875 0 
C 28.59375 0 33.59375 0 38.40625 0 
L 38.40625 2.5 
L 35.40625 2.5 
C 26.796875 2.5 26.59375 3.59375 26.59375 7.15625 
z
" id="CMR17-49"/>
       <path d="M 42 31.640625 
C 42 37.75 41.90625 48.125 37.703125 56.109375 
C 34 63.109375 28.09375 65.59375 22.90625 65.59375 
C 18.09375 65.59375 12 63.40625 8.203125 56.203125 
C 4.203125 48.71875 3.796875 39.4375 3.796875 31.640625 
C 3.796875 25.953125 3.90625 17.28125 7 9.671875 
C 11.296875 -0.609375 19 -2 22.90625 -2 
C 27.5 -2 34.5 -0.109375 38.59375 9.375 
C 41.59375 16.28125 42 24.359375 42 31.640625 
M 22.90625 -0.40625 
C 16.5 -0.40625 12.703125 5.078125 11.296875 12.6875 
C 10.203125 18.5625 10.203125 27.15625 10.203125 32.75 
C 10.203125 40.4375 10.203125 46.828125 11.5 52.921875 
C 13.40625 61.390625 19 64 22.90625 64 
C 27 64 32.296875 61.296875 34.203125 53.125 
C 35.5 47.4375 35.59375 40.734375 35.59375 32.75 
C 35.59375 26.25 35.59375 18.265625 34.40625 12.375 
C 32.296875 1.484375 26.40625 -0.40625 22.90625 -0.40625 
" id="CMR17-48"/>
       <path d="M 65.90625 23 
C 67.59375 23 69.40625 23 69.40625 25 
C 69.40625 27 67.59375 27 65.90625 27 
L 11.796875 27 
C 10.09375 27 8.296875 27 8.296875 25 
C 8.296875 23 10.09375 23 11.796875 23 
z
" id="CMSY10-0"/>
       <path d="M 22.09375 33.703125 
C 31 33.703125 34.90625 25.96875 34.90625 17.03125 
C 34.90625 5 28.5 0.390625 22.703125 0.390625 
C 17.40625 0.390625 8.796875 3.03125 6.09375 10.828125 
C 6.59375 10.625 7.09375 10.625 7.59375 10.625 
C 10 10.625 11.796875 12.21875 11.796875 14.8125 
C 11.796875 17.703125 9.59375 19 7.59375 19 
C 5.90625 19 3.296875 18.203125 3.296875 14.46875 
C 3.296875 5.234375 12.296875 -2 22.90625 -2 
C 34 -2 42.5 6.71875 42.5 16.953125 
C 42.5 26.671875 34.5 33.6875 25 34.796875 
C 32.59375 36.375 39.90625 43.0625 39.90625 52.015625 
C 39.90625 59.6875 32 65.296875 23 65.296875 
C 13.90625 65.296875 5.90625 59.828125 5.90625 52.015625 
C 5.90625 48.59375 8.5 48 9.796875 48 
C 11.90625 48 13.703125 49.296875 13.703125 51.890625 
C 13.703125 54.46875 11.90625 55.765625 9.796875 55.765625 
C 9.40625 55.765625 8.90625 55.765625 8.5 55.578125 
C 11.40625 61.859375 19.296875 63 22.796875 63 
C 26.296875 63 32.90625 61.328125 32.90625 51.875 
C 32.90625 49.109375 32.5 44.1875 29.09375 39.84375 
C 26.09375 36 22.703125 36 19.40625 35.6875 
C 18.90625 35.6875 16.59375 35.453125 16.203125 35.453125 
C 15.5 35.359375 15.09375 35.265625 15.09375 34.5 
C 15.09375 33.796875 15.203125 33.703125 17.203125 33.703125 
z
" id="CMR17-51"/>
      </defs>
      <g transform="translate(29.784128 127.493565)scale(0.08 -0.08)">
       <use transform="scale(0.996264)" xlink:href="#CMR17-49"/>
       <use transform="translate(45.690477 0)scale(0.996264)" xlink:href="#CMR17-48"/>
       <use transform="translate(91.380954 36.153639)scale(0.697382)" xlink:href="#CMSY10-0"/>
       <use transform="translate(145.621947 36.153639)scale(0.697382)" xlink:href="#CMR17-51"/>
      </g>
     </g>
    </g>
    <g id="xtick_2">
     <g id="line2d_4">
      <g>
       <use style="stroke:#000000;stroke-width:0.5;" x="90.949098" xlink:href="#m4045ea3cd8" y="117.958763"/>
      </g>
     </g>
     <g id="text_2">
      <!-- $10^{-2}$ -->
      <defs>
       <path d="M 41.703125 15.453125 
L 39.90625 15.453125 
C 38.90625 8.375 38.09375 7.171875 37.703125 6.5625 
C 37.203125 5.765625 30 5.765625 28.59375 5.765625 
L 9.40625 5.765625 
C 13 9.671875 20 16.75 28.5 24.953125 
C 34.59375 30.734375 41.703125 37.53125 41.703125 47.421875 
C 41.703125 59.21875 32.296875 66 21.796875 66 
C 10.796875 66 4.09375 56.3125 4.09375 47.34375 
C 4.09375 43.4375 7 42.9375 8.203125 42.9375 
C 9.203125 42.9375 12.203125 43.546875 12.203125 47.03125 
C 12.203125 50.109375 9.59375 51 8.203125 51 
C 7.59375 51 7 50.90625 6.59375 50.703125 
C 8.5 59.21875 14.296875 63.40625 20.40625 63.40625 
C 29.09375 63.40625 34.796875 56.515625 34.796875 47.421875 
C 34.796875 38.734375 29.703125 31.25 24 24.75 
L 4.09375 2.28125 
L 4.09375 0 
L 39.296875 0 
z
" id="CMR17-50"/>
      </defs>
      <g transform="translate(82.010389 127.493565)scale(0.08 -0.08)">
       <use transform="scale(0.996264)" xlink:href="#CMR17-49"/>
       <use transform="translate(45.690477 0)scale(0.996264)" xlink:href="#CMR17-48"/>
       <use transform="translate(91.380954 36.153639)scale(0.697382)" xlink:href="#CMSY10-0"/>
       <use transform="translate(145.621947 36.153639)scale(0.697382)" xlink:href="#CMR17-50"/>
      </g>
     </g>
    </g>
    <g id="xtick_3">
     <g id="line2d_5">
      <g>
       <use style="stroke:#000000;stroke-width:0.5;" x="143.175359" xlink:href="#m4045ea3cd8" y="117.958763"/>
      </g>
     </g>
     <g id="text_3">
      <!-- $10^{-1}$ -->
      <g transform="translate(134.23665 127.493565)scale(0.08 -0.08)">
       <use transform="scale(0.996264)" xlink:href="#CMR17-49"/>
       <use transform="translate(45.690477 0)scale(0.996264)" xlink:href="#CMR17-48"/>
       <use transform="translate(91.380954 36.153639)scale(0.697382)" xlink:href="#CMSY10-0"/>
       <use transform="translate(145.621947 36.153639)scale(0.697382)" xlink:href="#CMR17-49"/>
      </g>
     </g>
    </g>
    <g id="xtick_4">
     <g id="line2d_6">
      <g>
       <use style="stroke:#000000;stroke-width:0.5;" x="195.40162" xlink:href="#m4045ea3cd8" y="117.958763"/>
      </g>
     </g>
     <g id="text_4">
      <!-- $10^{0}$ -->
      <g transform="translate(189.340981 127.493565)scale(0.08 -0.08)">
       <use transform="scale(0.996264)" xlink:href="#CMR17-49"/>
       <use transform="translate(45.690477 0)scale(0.996264)" xlink:href="#CMR17-48"/>
       <use transform="translate(91.380954 36.153639)scale(0.697382)" xlink:href="#CMR17-48"/>
      </g>
     </g>
    </g>
    <g id="xtick_5">
     <g id="line2d_7">
      <defs>
       <path d="M 0 0 
L 0 -2 
" id="m29b1c367f4" style="stroke:#000000;stroke-width:0.6;"/>
      </defs>
      <g>
       <use style="stroke:#000000;stroke-width:0.6;" x="36.333094" xlink:href="#m29b1c367f4" y="117.958763"/>
      </g>
     </g>
    </g>
    <g id="xtick_6">
     <g id="line2d_8">
      <g>
       <use style="stroke:#000000;stroke-width:0.6;" x="54.444508" xlink:href="#m29b1c367f4" y="117.958763"/>
      </g>
     </g>
    </g>
    <g id="xtick_7">
     <g id="line2d_9">
      <g>
       <use style="stroke:#000000;stroke-width:0.6;" x="63.641096" xlink:href="#m29b1c367f4" y="117.958763"/>
      </g>
     </g>
    </g>
    <g id="xtick_8">
     <g id="line2d_10">
      <g>
       <use style="stroke:#000000;stroke-width:0.6;" x="70.166179" xlink:href="#m29b1c367f4" y="117.958763"/>
      </g>
     </g>
    </g>
    <g id="xtick_9">
     <g id="line2d_11">
      <g>
       <use style="stroke:#000000;stroke-width:0.6;" x="75.227427" xlink:href="#m29b1c367f4" y="117.958763"/>
      </g>
     </g>
    </g>
    <g id="xtick_10">
     <g id="line2d_12">
      <g>
       <use style="stroke:#000000;stroke-width:0.6;" x="79.362767" xlink:href="#m29b1c367f4" y="117.958763"/>
      </g>
     </g>
    </g>
    <g id="xtick_11">
     <g id="line2d_13">
      <g>
       <use style="stroke:#000000;stroke-width:0.6;" x="82.859148" xlink:href="#m29b1c367f4" y="117.958763"/>
      </g>
     </g>
    </g>
    <g id="xtick_12">
     <g id="line2d_14">
      <g>
       <use style="stroke:#000000;stroke-width:0.6;" x="85.88785" xlink:href="#m29b1c367f4" y="117.958763"/>
      </g>
     </g>
    </g>
    <g id="xtick_13">
     <g id="line2d_15">
      <g>
       <use style="stroke:#000000;stroke-width:0.6;" x="88.559355" xlink:href="#m29b1c367f4" y="117.958763"/>
      </g>
     </g>
    </g>
    <g id="xtick_14">
     <g id="line2d_16">
      <g>
       <use style="stroke:#000000;stroke-width:0.6;" x="106.670769" xlink:href="#m29b1c367f4" y="117.958763"/>
      </g>
     </g>
    </g>
    <g id="xtick_15">
     <g id="line2d_17">
      <g>
       <use style="stroke:#000000;stroke-width:0.6;" x="115.867357" xlink:href="#m29b1c367f4" y="117.958763"/>
      </g>
     </g>
    </g>
    <g id="xtick_16">
     <g id="line2d_18">
      <g>
       <use style="stroke:#000000;stroke-width:0.6;" x="122.39244" xlink:href="#m29b1c367f4" y="117.958763"/>
      </g>
     </g>
    </g>
    <g id="xtick_17">
     <g id="line2d_19">
      <g>
       <use style="stroke:#000000;stroke-width:0.6;" x="127.453688" xlink:href="#m29b1c367f4" y="117.958763"/>
      </g>
     </g>
    </g>
    <g id="xtick_18">
     <g id="line2d_20">
      <g>
       <use style="stroke:#000000;stroke-width:0.6;" x="131.589028" xlink:href="#m29b1c367f4" y="117.958763"/>
      </g>
     </g>
    </g>
    <g id="xtick_19">
     <g id="line2d_21">
      <g>
       <use style="stroke:#000000;stroke-width:0.6;" x="135.085409" xlink:href="#m29b1c367f4" y="117.958763"/>
      </g>
     </g>
    </g>
    <g id="xtick_20">
     <g id="line2d_22">
      <g>
       <use style="stroke:#000000;stroke-width:0.6;" x="138.114111" xlink:href="#m29b1c367f4" y="117.958763"/>
      </g>
     </g>
    </g>
    <g id="xtick_21">
     <g id="line2d_23">
      <g>
       <use style="stroke:#000000;stroke-width:0.6;" x="140.785616" xlink:href="#m29b1c367f4" y="117.958763"/>
      </g>
     </g>
    </g>
    <g id="xtick_22">
     <g id="line2d_24">
      <g>
       <use style="stroke:#000000;stroke-width:0.6;" x="158.89703" xlink:href="#m29b1c367f4" y="117.958763"/>
      </g>
     </g>
    </g>
    <g id="xtick_23">
     <g id="line2d_25">
      <g>
       <use style="stroke:#000000;stroke-width:0.6;" x="168.093618" xlink:href="#m29b1c367f4" y="117.958763"/>
      </g>
     </g>
    </g>
    <g id="xtick_24">
     <g id="line2d_26">
      <g>
       <use style="stroke:#000000;stroke-width:0.6;" x="174.618701" xlink:href="#m29b1c367f4" y="117.958763"/>
      </g>
     </g>
    </g>
    <g id="xtick_25">
     <g id="line2d_27">
      <g>
       <use style="stroke:#000000;stroke-width:0.6;" x="179.679949" xlink:href="#m29b1c367f4" y="117.958763"/>
      </g>
     </g>
    </g>
    <g id="xtick_26">
     <g id="line2d_28">
      <g>
       <use style="stroke:#000000;stroke-width:0.6;" x="183.815289" xlink:href="#m29b1c367f4" y="117.958763"/>
      </g>
     </g>
    </g>
    <g id="xtick_27">
     <g id="line2d_29">
      <g>
       <use style="stroke:#000000;stroke-width:0.6;" x="187.31167" xlink:href="#m29b1c367f4" y="117.958763"/>
      </g>
     </g>
    </g>
    <g id="xtick_28">
     <g id="line2d_30">
      <g>
       <use style="stroke:#000000;stroke-width:0.6;" x="190.340372" xlink:href="#m29b1c367f4" y="117.958763"/>
      </g>
     </g>
    </g>
    <g id="xtick_29">
     <g id="line2d_31">
      <g>
       <use style="stroke:#000000;stroke-width:0.6;" x="193.011877" xlink:href="#m29b1c367f4" y="117.958763"/>
      </g>
     </g>
    </g>
    <g id="xtick_30">
     <g id="line2d_32">
      <g>
       <use style="stroke:#000000;stroke-width:0.6;" x="211.123291" xlink:href="#m29b1c367f4" y="117.958763"/>
      </g>
     </g>
    </g>
    <g id="xtick_31">
     <g id="line2d_33">
      <g>
       <use style="stroke:#000000;stroke-width:0.6;" x="220.319879" xlink:href="#m29b1c367f4" y="117.958763"/>
      </g>
     </g>
    </g>
    <g id="text_5">
     <!-- $U$ -->
     <defs>
      <path d="M 50.59375 23.03125 
C 47.09375 9.078125 35.5 0.890625 26.09375 0.890625 
C 18.90625 0.890625 14 5.671875 14 13.921875 
C 14 14.3125 14 17.296875 15.09375 21.671875 
L 24.90625 60.734375 
C 25.796875 64.109375 26 65.109375 33.09375 65.109375 
C 34.90625 65.109375 35.90625 65.109375 35.90625 66.90625 
C 35.90625 68 35 68 34.40625 68 
C 32.59375 68 30.5 68 28.59375 68 
L 16.796875 68 
C 14.90625 68 12.796875 68 10.90625 68 
C 10.203125 68 9 68 9 66.109375 
C 9 65.109375 9.703125 65.109375 11.59375 65.109375 
C 17.59375 65.109375 17.59375 64.3125 17.59375 63.21875 
C 17.59375 62.625 16.90625 59.75 16.40625 58.046875 
L 7.703125 23.25 
C 7.40625 22.15625 6.796875 19.46875 6.796875 16.796875 
C 6.796875 5.84375 14.703125 -2 25.59375 -2 
C 35.703125 -2 46.90625 6 52 18.703125 
C 52.703125 20.390625 53.59375 23.90625 54.203125 26.59375 
C 55.203125 30.203125 57.296875 39 58 41.59375 
L 61.796875 56.609375 
C 63.09375 61.8125 63.90625 65.109375 72.703125 65.109375 
C 73.5 65.203125 73.90625 66 73.90625 66.90625 
C 73.90625 68 73 68 72.59375 68 
C 71.203125 68 69.40625 68 68 68 
L 63.296875 68 
C 57.09375 68 53.90625 68 53.796875 68 
C 53.203125 68 52 68 52 66.109375 
C 52 65.109375 52.796875 65.109375 53.5 65.109375 
C 59.5 65.109375 59.90625 62.8125 59.90625 61.015625 
C 59.90625 60.125 59.90625 59.8125 59.5 58.421875 
z
" id="CMMI12-85"/>
     </defs>
     <g transform="translate(126.001395 131.738787)scale(0.1 -0.1)">
      <use transform="scale(0.996264)" xlink:href="#CMMI12-85"/>
     </g>
    </g>
   </g>
   <g id="matplotlib.axis_2">
    <g id="ytick_1">
     <g id="line2d_34">
      <defs>
       <path d="M 0 0 
L 4 0 
" id="m82d1ed0cf7" style="stroke:#000000;stroke-width:0.5;"/>
      </defs>
      <g>
       <use style="stroke:#000000;stroke-width:0.5;" x="36.333094" xlink:href="#m82d1ed0cf7" y="102.278604"/>
      </g>
     </g>
     <g id="text_6">
      <!-- $10^{-3}$ -->
      <g transform="translate(14.455677 105.046005)scale(0.08 -0.08)">
       <use transform="scale(0.996264)" xlink:href="#CMR17-49"/>
       <use transform="translate(45.690477 0)scale(0.996264)" xlink:href="#CMR17-48"/>
       <use transform="translate(91.380954 36.153639)scale(0.697382)" xlink:href="#CMSY10-0"/>
       <use transform="translate(145.621947 36.153639)scale(0.697382)" xlink:href="#CMR17-51"/>
      </g>
     </g>
    </g>
    <g id="ytick_2">
     <g id="line2d_35">
      <g>
       <use style="stroke:#000000;stroke-width:0.5;" x="36.333094" xlink:href="#m82d1ed0cf7" y="73.688913"/>
      </g>
     </g>
     <g id="text_7">
      <!-- $10^{-1}$ -->
      <g transform="translate(14.455677 76.456314)scale(0.08 -0.08)">
       <use transform="scale(0.996264)" xlink:href="#CMR17-49"/>
       <use transform="translate(45.690477 0)scale(0.996264)" xlink:href="#CMR17-48"/>
       <use transform="translate(91.380954 36.153639)scale(0.697382)" xlink:href="#CMSY10-0"/>
       <use transform="translate(145.621947 36.153639)scale(0.697382)" xlink:href="#CMR17-49"/>
      </g>
     </g>
    </g>
    <g id="ytick_3">
     <g id="line2d_36">
      <g>
       <use style="stroke:#000000;stroke-width:0.5;" x="36.333094" xlink:href="#m82d1ed0cf7" y="45.099222"/>
      </g>
     </g>
     <g id="text_8">
      <!-- $10^{1}$ -->
      <g transform="translate(20.211816 47.866623)scale(0.08 -0.08)">
       <use transform="scale(0.996264)" xlink:href="#CMR17-49"/>
       <use transform="translate(45.690477 0)scale(0.996264)" xlink:href="#CMR17-48"/>
       <use transform="translate(91.380954 36.153639)scale(0.697382)" xlink:href="#CMR17-49"/>
      </g>
     </g>
    </g>
    <g id="ytick_4">
     <g id="line2d_37">
      <g>
       <use style="stroke:#000000;stroke-width:0.5;" x="36.333094" xlink:href="#m82d1ed0cf7" y="16.509532"/>
      </g>
     </g>
     <g id="text_9">
      <!-- $10^{3}$ -->
      <g transform="translate(20.211816 19.276933)scale(0.08 -0.08)">
       <use transform="scale(0.996264)" xlink:href="#CMR17-49"/>
       <use transform="translate(45.690477 0)scale(0.996264)" xlink:href="#CMR17-48"/>
       <use transform="translate(91.380954 36.153639)scale(0.697382)" xlink:href="#CMR17-51"/>
      </g>
     </g>
    </g>
    <g id="ytick_5">
     <g id="line2d_38">
      <defs>
       <path d="M 0 0 
L 2 0 
" id="m8d405a9e57" style="stroke:#000000;stroke-width:0.6;"/>
      </defs>
      <g>
       <use style="stroke:#000000;stroke-width:0.6;" x="36.333094" xlink:href="#m8d405a9e57" y="117.958763"/>
      </g>
     </g>
    </g>
    <g id="ytick_6">
     <g id="line2d_39">
      <g>
       <use style="stroke:#000000;stroke-width:0.6;" x="36.333094" xlink:href="#m8d405a9e57" y="97.975427"/>
      </g>
     </g>
    </g>
    <g id="ytick_7">
     <g id="line2d_40">
      <g>
       <use style="stroke:#000000;stroke-width:0.6;" x="36.333094" xlink:href="#m8d405a9e57" y="93.672249"/>
      </g>
     </g>
    </g>
    <g id="ytick_8">
     <g id="line2d_41">
      <g>
       <use style="stroke:#000000;stroke-width:0.6;" x="36.333094" xlink:href="#m8d405a9e57" y="91.155052"/>
      </g>
     </g>
    </g>
    <g id="ytick_9">
     <g id="line2d_42">
      <g>
       <use style="stroke:#000000;stroke-width:0.6;" x="36.333094" xlink:href="#m8d405a9e57" y="89.369072"/>
      </g>
     </g>
    </g>
    <g id="ytick_10">
     <g id="line2d_43">
      <g>
       <use style="stroke:#000000;stroke-width:0.6;" x="36.333094" xlink:href="#m8d405a9e57" y="69.385736"/>
      </g>
     </g>
    </g>
    <g id="ytick_11">
     <g id="line2d_44">
      <g>
       <use style="stroke:#000000;stroke-width:0.6;" x="36.333094" xlink:href="#m8d405a9e57" y="65.082559"/>
      </g>
     </g>
    </g>
    <g id="ytick_12">
     <g id="line2d_45">
      <g>
       <use style="stroke:#000000;stroke-width:0.6;" x="36.333094" xlink:href="#m8d405a9e57" y="62.565361"/>
      </g>
     </g>
    </g>
    <g id="ytick_13">
     <g id="line2d_46">
      <g>
       <use style="stroke:#000000;stroke-width:0.6;" x="36.333094" xlink:href="#m8d405a9e57" y="60.779381"/>
      </g>
     </g>
    </g>
    <g id="ytick_14">
     <g id="line2d_47">
      <g>
       <use style="stroke:#000000;stroke-width:0.6;" x="36.333094" xlink:href="#m8d405a9e57" y="40.796045"/>
      </g>
     </g>
    </g>
    <g id="ytick_15">
     <g id="line2d_48">
      <g>
       <use style="stroke:#000000;stroke-width:0.6;" x="36.333094" xlink:href="#m8d405a9e57" y="36.492868"/>
      </g>
     </g>
    </g>
    <g id="ytick_16">
     <g id="line2d_49">
      <g>
       <use style="stroke:#000000;stroke-width:0.6;" x="36.333094" xlink:href="#m8d405a9e57" y="33.975671"/>
      </g>
     </g>
    </g>
    <g id="ytick_17">
     <g id="line2d_50">
      <g>
       <use style="stroke:#000000;stroke-width:0.6;" x="36.333094" xlink:href="#m8d405a9e57" y="32.189691"/>
      </g>
     </g>
    </g>
    <g id="ytick_18">
     <g id="line2d_51">
      <g>
       <use style="stroke:#000000;stroke-width:0.6;" x="36.333094" xlink:href="#m8d405a9e57" y="12.206354"/>
      </g>
     </g>
    </g>
    <g id="ytick_19">
     <g id="line2d_52">
      <g>
       <use style="stroke:#000000;stroke-width:0.6;" x="36.333094" xlink:href="#m8d405a9e57" y="7.903177"/>
      </g>
     </g>
    </g>
    <g id="ytick_20">
     <g id="line2d_53">
      <g>
       <use style="stroke:#000000;stroke-width:0.6;" x="36.333094" xlink:href="#m8d405a9e57" y="5.38598"/>
      </g>
     </g>
    </g>
    <g id="ytick_21">
     <g id="line2d_54">
      <g>
       <use style="stroke:#000000;stroke-width:0.6;" x="36.333094" xlink:href="#m8d405a9e57" y="3.6"/>
      </g>
     </g>
    </g>
    <g id="text_10">
     <!-- Relative Error -->
     <defs>
      <path d="M 39.203125 33.53125 
C 48.703125 35.4375 56.703125 41.8125 56.703125 49.78125 
C 56.703125 59.140625 46.09375 67.59375 32.09375 67.59375 
L 5.203125 67.59375 
L 5.203125 65 
C 12.09375 65 13.203125 65 13.203125 60.515625 
L 13.203125 6.484375 
C 13.203125 2 12.09375 2 5.203125 2 
L 5.203125 -0.40625 
C 8.09375 -0.40625 13.296875 -0.40625 16.40625 -0.40625 
C 19.5 -0.40625 24.703125 -0.40625 27.59375 -0.40625 
L 27.59375 2 
C 20.703125 2 19.59375 2 19.59375 6.515625 
L 19.59375 33 
L 31.296875 33 
C 37 33 40.203125 30.6875 41.59375 29.390625 
C 45.59375 25.5 45.59375 22.796875 45.59375 16 
C 45.59375 9.296875 45.59375 5.890625 48.59375 2.5 
C 52.40625 -1.59375 57.5 -2 59.703125 -2 
C 67.09375 -2 68.203125 6.1875 68.203125 7.859375 
C 68.203125 8.4375 68.203125 9.140625 67.296875 9.140625 
C 66.5 9.140625 66.40625 8.546875 66.40625 8.15625 
C 65.90625 1.75 63 -0.40625 59.90625 -0.40625 
C 54.40625 -0.40625 53.796875 5.859375 53.203125 11.9375 
C 52.90625 14.03125 52.703125 15.515625 52.5 17.703125 
C 51.90625 22.6875 51.09375 29.953125 39.203125 33.53125 
M 31 34.59375 
L 19.59375 34.59375 
L 19.59375 61.140625 
C 19.59375 64.515625 19.796875 65 23.796875 65 
L 31.09375 65 
C 39.40625 65 49.09375 62.140625 49.09375 49.84375 
C 49.09375 37.0625 38.5 34.59375 31 34.59375 
" id="CMR17-82"/>
      <path d="M 38.09375 23 
C 38.5 23.40625 38.5 23.609375 38.5 24.625 
C 38.5 34.96875 33.09375 44 21.703125 44 
C 11.09375 44 2.703125 33.890625 2.703125 21.609375 
C 2.703125 8.609375 12.203125 -1 22.796875 -1 
C 34 -1 38.40625 9.484375 38.40625 11.5625 
C 38.40625 12.25 37.796875 12.25 37.59375 12.25 
C 36.90625 12.25 36.796875 12.046875 36.40625 10.875 
C 34.203125 4.140625 28.703125 0.796875 23.5 0.796875 
C 19.203125 0.796875 14.90625 3.171875 12.203125 7.5 
C 9.09375 12.546875 9.09375 18.375 9.09375 23 
z
M 9.203125 24.5 
C 9.90625 39.140625 17.59375 42.40625 21.59375 42.40625 
C 28.40625 42.40625 33 35.890625 33.09375 24.5 
z
" id="CMR17-101"/>
      <path d="M 15.296875 68.6875 
L 3.40625 67.59375 
L 3.40625 65 
C 9.296875 65 10.203125 64.40625 10.203125 59.640625 
L 10.203125 6.65625 
C 10.203125 2.875 9.796875 2.390625 3.40625 2.390625 
L 3.40625 -0.203125 
C 5.796875 0 10.203125 0 12.703125 0 
C 15.296875 0 19.703125 0 22.09375 -0.203125 
L 22.09375 2.390625 
C 15.703125 2.390625 15.296875 2.78125 15.296875 6.65625 
z
" id="CMR17-108"/>
      <path d="M 36 25.828125 
C 36 32.375 36 35.84375 31.796875 39.734375 
C 28.09375 43 23.796875 44 20.40625 44 
C 12.5 44 6.796875 37.609375 6.796875 30.796875 
C 6.796875 27 9.796875 27 10.40625 27 
C 11.703125 27 14 27.78125 14 30.53125 
C 14 33 12.09375 34.078125 10.40625 34.078125 
C 10 34.078125 9.5 33.96875 9.203125 33.875 
C 11.296875 40.5 16.703125 42.40625 20.203125 42.40625 
C 25.203125 42.40625 30.703125 37.953125 30.703125 29.453125 
L 30.703125 25 
C 24.796875 25 17.703125 24.203125 12.09375 21.203125 
C 5.796875 17.703125 4 12.703125 4 8.90625 
C 4 1.203125 13 -1 18.296875 -1 
C 23.796875 -1 28.90625 2.171875 31.09375 7.984375 
C 31.296875 3.640625 34.09375 -0.28125 38.5 -0.28125 
C 40.59375 -0.28125 45.90625 1.09375 45.90625 8.859375 
L 45.90625 14.375 
L 44.09375 14.375 
L 44.09375 8.78125 
C 44.09375 2.78125 41.40625 2 40.09375 2 
C 36 2 36 7.15625 36 11.53125 
z
M 30.703125 13.59375 
C 30.703125 4.953125 24.5 0.59375 19 0.59375 
C 14 0.59375 10.09375 4.296875 10.09375 8.90625 
C 10.09375 11.890625 11.40625 17.1875 17.203125 20.390625 
C 22 23.09375 27.5 23.5 30.703125 23.5 
z
" id="CMR17-97"/>
      <path d="M 15.09375 40 
L 29.09375 40 
L 29.09375 42.578125 
L 15.09375 42.578125 
L 15.09375 61 
L 13.296875 61 
C 13.09375 50.703125 9.59375 41.6875 1.09375 41.6875 
L 1.09375 40 
L 9.796875 40 
L 9.796875 12.046875 
C 9.796875 10.15625 9.796875 -1 21.40625 -1 
C 27.296875 -1 30.703125 4.78125 30.703125 12.140625 
L 30.703125 17.8125 
L 28.90625 17.8125 
L 28.90625 12.234375 
C 28.90625 5.375 26.203125 0.796875 22 0.796875 
C 19.09375 0.796875 15.09375 2.78125 15.09375 11.84375 
z
" id="CMR17-116"/>
      <path d="M 15.5 61.078125 
C 15.5 63.265625 13.703125 65.15625 11.40625 65.15625 
C 9.203125 65.15625 7.296875 63.375 7.296875 61.078125 
C 7.296875 58.890625 9.09375 57 11.40625 57 
C 13.59375 57 15.5 58.796875 15.5 61.078125 
M 3.796875 42.28125 
L 3.796875 39.703125 
C 9.40625 39.703125 10.203125 39.09375 10.203125 34.328125 
L 10.203125 6.671875 
C 10.203125 2.875 9.796875 2.390625 3.40625 2.390625 
L 3.40625 -0.203125 
C 5.796875 0 10.09375 0 12.59375 0 
C 15 0 19.09375 0 21.40625 -0.203125 
L 21.40625 2.390625 
C 15.5 2.390625 15.296875 2.984375 15.296875 6.5625 
L 15.296875 43.375 
z
" id="CMR17-105"/>
      <path d="M 39.09375 33.796875 
C 40 36 41.59375 40 47.40625 40 
L 47.40625 42.59375 
C 45.5 42.59375 43 42.59375 41.09375 42.59375 
C 39 42.59375 35.703125 42.59375 33.703125 42.6875 
L 33.703125 40.09375 
C 36.203125 39.890625 37.59375 38.703125 37.59375 36.109375 
C 37.59375 35.203125 37.59375 35 37 33.609375 
L 26 5.890625 
L 14.09375 35.71875 
C 13.5 37.015625 13.5 37.203125 13.5 37.609375 
C 13.5 40 16.796875 40 18.296875 40 
L 18.296875 42.6875 
C 15.90625 42.59375 11.5 42.59375 9 42.59375 
C 6.296875 42.59375 3.203125 42.59375 1 42.6875 
L 1 40 
C 4.796875 40 6.90625 40 8.09375 36.90625 
L 22.59375 0.6875 
C 23.203125 -0.796875 23.296875 -1 24.203125 -1 
C 25.09375 -1 25.203125 -0.796875 25.796875 0.6875 
z
" id="CMR17-118"/>
      <path d="M 60.703125 25.234375 
L 58.90625 25.234375 
C 56.703125 10.5625 55.40625 2.59375 37.796875 2.59375 
L 23.90625 2.59375 
C 19.90625 2.59375 19.703125 3.078125 19.703125 6.46875 
L 19.703125 34 
L 29.09375 34 
C 38.5 34 39.40625 30.625 39.40625 22.34375 
L 41.203125 22.34375 
L 41.203125 48.140625 
L 39.40625 48.140625 
C 39.40625 39.953125 38.5 36.59375 29.09375 36.59375 
L 19.703125 36.59375 
L 19.703125 61.140625 
C 19.703125 64.5 19.90625 65 23.90625 65 
L 37.59375 65 
C 53.09375 65 54.90625 58.890625 56.296875 45.765625 
L 58.09375 45.765625 
L 55.703125 67.578125 
L 5.09375 67.578125 
L 5.09375 65 
C 12 65 13.09375 65 13.09375 60.53125 
L 13.09375 7.046875 
C 13.09375 2.59375 12 2.59375 5.09375 2.59375 
L 5.09375 0 
L 57.09375 0 
z
" id="CMR17-69"/>
      <path d="M 15 23.390625 
C 15 33 19.09375 42 26.59375 42 
C 27.296875 42 28 41.90625 28.703125 41.59375 
C 28.703125 41.59375 26.5 40.890625 26.5 38.3125 
C 26.5 35.90625 28.40625 34.90625 29.90625 34.90625 
C 31.09375 34.90625 33.296875 35.609375 33.296875 38.40625 
C 33.296875 41.609375 30.09375 43.59375 26.703125 43.59375 
C 19.09375 43.59375 15.796875 36.203125 14.796875 32.703125 
L 14.703125 32.703125 
L 14.703125 43.59375 
L 3.09375 42.5 
L 3.09375 39.90625 
C 9 39.90625 9.90625 39.296875 9.90625 34.5 
L 9.90625 6.6875 
C 9.90625 2.875 9.5 2.390625 3.09375 2.390625 
L 3.09375 -0.203125 
C 5.5 0 10.09375 0 12.703125 0 
C 15.59375 0 20.703125 0 23.40625 -0.203125 
L 23.40625 2.390625 
C 16.203125 2.390625 15 2.390625 15 6.875 
z
" id="CMR17-114"/>
      <path d="M 43.09375 21.1875 
C 43.09375 34 33.796875 44 22.90625 44 
C 12 44 2.703125 34 2.703125 21.1875 
C 2.703125 8.609375 12 -1 22.90625 -1 
C 33.796875 -1 43.09375 8.609375 43.09375 21.1875 
M 22.90625 0.796875 
C 18.203125 0.796875 14.203125 3.59375 11.90625 7.5 
C 9.40625 11.984375 9.09375 17.59375 9.09375 22 
C 9.09375 26.203125 9.296875 31.40625 11.90625 35.90625 
C 13.90625 39.203125 17.796875 42.40625 22.90625 42.40625 
C 27.40625 42.40625 31.203125 39.90625 33.59375 36.40625 
C 36.703125 31.703125 36.703125 25.109375 36.703125 22 
C 36.703125 18.09375 36.5 12.109375 33.796875 7.296875 
C 31 2.703125 26.703125 0.796875 22.90625 0.796875 
" id="CMR17-111"/>
     </defs>
     <g transform="translate(10.518498 91.954193)rotate(-90)scale(0.1 -0.1)">
      <use transform="scale(0.996264)" xlink:href="#CMR17-82"/>
      <use transform="translate(67.791102 0)scale(0.996264)" xlink:href="#CMR17-101"/>
      <use transform="translate(108.276762 0)scale(0.996264)" xlink:href="#CMR17-108"/>
      <use transform="translate(133.147821 0)scale(0.996264)" xlink:href="#CMR17-97"/>
      <use transform="translate(178.838298 0)scale(0.996264)" xlink:href="#CMR17-116"/>
      <use transform="translate(214.119066 0)scale(0.996264)" xlink:href="#CMR17-105"/>
      <use transform="translate(238.990124 0)scale(0.996264)" xlink:href="#CMR17-118"/>
      <use transform="translate(284.680586 0)scale(0.996264)" xlink:href="#CMR17-101"/>
      <use transform="translate(355.242213 0)scale(0.996264)" xlink:href="#CMR17-69"/>
      <use transform="translate(417.828514 0)scale(0.996264)" xlink:href="#CMR17-114"/>
      <use transform="translate(453.109281 0)scale(0.996264)" xlink:href="#CMR17-114"/>
      <use transform="translate(488.390049 0)scale(0.996264)" xlink:href="#CMR17-111"/>
      <use transform="translate(534.080526 0)scale(0.996264)" xlink:href="#CMR17-114"/>
     </g>
    </g>
   </g>
   <g id="patch_3">
    <path d="M 36.333094 117.958763 
L 36.333094 3.6 
" style="fill:none;stroke:#000000;stroke-linecap:square;stroke-linejoin:miter;"/>
   </g>
   <g id="patch_4">
    <path d="M 226.270714 117.958763 
L 226.270714 3.6 
" style="fill:none;stroke:#000000;stroke-linecap:square;stroke-linejoin:miter;"/>
   </g>
   <g id="patch_5">
    <path d="M 36.333094 117.958763 
L 226.270714 117.958763 
" style="fill:none;stroke:#000000;stroke-linecap:square;stroke-linejoin:miter;"/>
   </g>
   <g id="patch_6">
    <path d="M 36.333094 3.6 
L 226.270714 3.6 
" style="fill:none;stroke:#000000;stroke-linecap:square;stroke-linejoin:miter;"/>
   </g>
   <g id="text_11">
    <!-- $L=N=18$, $n_{\rm{max}}=4$ -->
    <defs>
     <path d="M 36.703125 60.328125 
C 37.59375 64.109375 37.90625 65.109375 46.703125 65.109375 
C 49.40625 65.109375 50.09375 65.109375 50.09375 67 
C 50.09375 68 49 68 48.59375 68 
C 46.59375 68 44.296875 68 42.296875 68 
L 28.90625 68 
C 27 68 24.796875 68 22.90625 68 
C 22.09375 68 21 68 21 66.109375 
C 21 65.109375 21.90625 65.109375 23.40625 65.109375 
C 29.5 65.109375 29.5 64.3125 29.5 63.21875 
C 29.5 63.03125 29.5 62.421875 29.09375 60.921875 
L 15.59375 7.375 
C 14.703125 3.890625 14.5 2.890625 7.5 2.890625 
C 5.59375 2.890625 4.59375 2.890625 4.59375 1.09375 
C 4.59375 0 5.203125 0 7.203125 0 
L 52 0 
C 54.203125 0 54.296875 0.09375 55 1.890625 
L 62.703125 23.09375 
C 62.90625 23.59375 63.09375 24.1875 63.09375 24.484375 
C 63.09375 25.078125 62.59375 25.484375 62.09375 25.484375 
C 62 25.484375 61.5 25.484375 61.296875 25.078125 
C 61.09375 24.984375 61.09375 24.78125 60.296875 22.890625 
C 57.09375 14.140625 52.59375 2.890625 35.703125 2.890625 
L 26.09375 2.890625 
C 24.703125 2.890625 24.5 2.890625 23.90625 3 
C 22.796875 3.09375 22.703125 3.296875 22.703125 4.09375 
C 22.703125 4.796875 22.90625 5.390625 23.09375 6.265625 
z
" id="CMMI12-76"/>
     <path d="M 64.296875 31.515625 
C 65.796875 31.515625 67.296875 31.515625 67.296875 33.203125 
C 67.296875 35 65.59375 35 63.90625 35 
L 8 35 
C 6.296875 35 4.59375 35 4.59375 33.203125 
C 4.59375 31.515625 6.09375 31.515625 7.59375 31.515625 
z
M 63.90625 14 
C 65.59375 14 67.296875 14 67.296875 15.796875 
C 67.296875 17.484375 65.796875 17.484375 64.296875 17.484375 
L 7.59375 17.484375 
C 6.09375 17.484375 4.59375 17.484375 4.59375 15.796875 
C 4.59375 14 6.296875 14 8 14 
z
" id="CMR17-61"/>
     <path d="M 74 57.78125 
C 75.09375 62.09375 76.703125 65.09375 84.296875 65.09375 
C 84.59375 65.09375 85.796875 65.09375 85.796875 66.859375 
C 85.796875 68 84.90625 68 84.5 68 
C 82.5 68 77.40625 68 75.40625 68 
L 70.59375 68 
C 69.203125 68 67.40625 68 66 68 
C 65.40625 68 64.203125 68 64.203125 66.09375 
C 64.203125 65.09375 65 65.09375 65.703125 65.09375 
C 71.703125 65.09375 72.09375 62.796875 72.09375 60.984375 
C 72.09375 60.09375 72 59.78125 71.703125 58.390625 
L 60.40625 13.28125 
L 39 66.390625 
C 38.296875 68 38.203125 68 36 68 
L 23.796875 68 
C 21.796875 68 20.90625 68 20.90625 66.09375 
C 20.90625 65.09375 21.59375 65.09375 23.5 65.09375 
C 24 65.09375 29.90625 65.09375 29.90625 64.296875 
C 29.90625 64.09375 29.703125 63.296875 29.59375 63 
L 16.296875 9.921875 
C 15.09375 5 12.703125 2.90625 6.09375 2.90625 
C 5.59375 2.90625 4.59375 2.90625 4.59375 1.046875 
C 4.59375 0 5.59375 0 5.90625 0 
C 7.90625 0 13 0 15 0 
L 19.796875 0 
C 21.203125 0 22.90625 0 24.296875 0 
C 25 0 26.09375 0 26.09375 1.90625 
C 26.09375 2.8125 25.09375 2.90625 24.703125 2.90625 
C 21.40625 2.90625 18.203125 3.5 18.203125 7.09375 
C 18.203125 7.890625 18.40625 8.78125 18.59375 9.578125 
L 32.09375 63 
C 32.703125 62 32.703125 61.8125 33.09375 60.90625 
L 56.90625 1.796875 
C 57.40625 0.59375 57.59375 0 58.5 0 
C 59.5 0 59.59375 0.296875 60 2 
z
" id="CMMI12-78"/>
     <path d="M 27.203125 35.375 
C 33.5 38.546875 39.90625 43.328125 39.90625 50.984375 
C 39.90625 60.015625 31.09375 65.296875 23 65.296875 
C 13.90625 65.296875 5.90625 58.734375 5.90625 49.6875 
C 5.90625 47.203125 6.5 42.921875 10.40625 39.140625 
C 11.40625 38.15625 15.59375 35.171875 18.296875 33.28125 
C 13.796875 30.984375 3.296875 25.53125 3.296875 14.59375 
C 3.296875 4.359375 13.09375 -2 22.796875 -2 
C 33.5 -2 42.5 5.65625 42.5 15.78125 
C 42.5 24.84375 36.40625 29.015625 32.40625 31.703125 
z
M 14.09375 44.09375 
C 13.296875 44.59375 9.296875 47.671875 9.296875 52.359375 
C 9.296875 58.421875 15.59375 63 22.796875 63 
C 30.703125 63 36.5 57.4375 36.5 50.96875 
C 36.5 41.703125 26.09375 36.421875 25.59375 36.421875 
C 25.5 36.421875 25.40625 36.421875 24.59375 37.03125 
z
M 32.5 23.734375 
C 34 22.640625 38.796875 19.375 38.796875 13.296875 
C 38.796875 5.953125 31.40625 0.390625 23 0.390625 
C 13.90625 0.390625 7 6.84375 7 14.6875 
C 7 22.546875 13.09375 29.09375 20 32.1875 
z
" id="CMR17-56"/>
     <path d="M 15.796875 1.59375 
C 16 0.703125 16 0.390625 16 -1.203125 
C 16 -7.234375 14 -12.765625 9.796875 -17.796875 
C 9.296875 -18.28125 9.296875 -18.484375 9.296875 -18.703125 
C 9.296875 -19.09375 9.703125 -19.5 10.09375 -19.5 
C 10.703125 -19.5 17.59375 -12.484375 17.59375 -1.359375 
C 17.59375 1.9375 17.203125 8.15625 12.5 8.15625 
C 10.296875 8.15625 8.40625 6.671875 8.40625 4.078125 
C 8.40625 1.5 10.296875 0 12.5 0 
C 13.703125 0 15 0.5 15.796875 1.59375 
" id="CMR17-44"/>
     <path d="M 20.59375 29.234375 
C 20.796875 29.84375 23.296875 34.828125 27 38.015625 
C 29.59375 40.40625 33 42.015625 36.90625 42.015625 
C 40.90625 42.015625 42.296875 39.015625 42.296875 35.03125 
C 42.296875 29.34375 38.203125 17.96875 36.203125 12.578125 
C 35.296875 10.171875 34.796875 8.875 34.796875 7.078125 
C 34.796875 2.59375 37.90625 -1 42.703125 -1 
C 52 -1 55.5 13.671875 55.5 14.265625 
C 55.5 14.765625 55.09375 15.171875 54.5 15.171875 
C 53.59375 15.171875 53.5 14.875 53 13.171875 
C 50.703125 4.984375 46.90625 1 43 1 
C 42 1 40.40625 1 40.40625 4.203125 
C 40.40625 6.703125 41.5 9.703125 42.09375 11.09375 
C 44.09375 16.609375 48.296875 27.8125 48.296875 33.515625 
C 48.296875 39.5 44.796875 44 37.203125 44 
C 28.296875 44 23.59375 37.734375 21.796875 35.234375 
C 21.5 40.90625 17.40625 44 13 44 
C 9.796875 44 7.59375 42.109375 5.90625 38.71875 
C 4.09375 35.125 2.703125 29.140625 2.703125 28.734375 
C 2.703125 28.34375 3.09375 27.84375 3.796875 27.84375 
C 4.59375 27.84375 4.703125 27.9375 5.296875 30.234375 
C 6.90625 36.328125 8.703125 42.015625 12.703125 42.015625 
C 15 42.015625 15.796875 40.40625 15.796875 37.421875 
C 15.796875 35.21875 14.796875 31.328125 14.09375 28.234375 
L 11.296875 17.46875 
C 10.90625 15.5625 9.796875 11.078125 9.296875 9.28125 
C 8.59375 6.6875 7.5 2 7.5 1.5 
C 7.5 0.09375 8.59375 -1 10.09375 -1 
C 11.296875 -1 12.703125 -0.40625 13.5 1.09375 
C 13.703125 1.59375 14.59375 5.09375 15.09375 7.078125 
L 17.296875 16.0625 
z
" id="CMMI12-110"/>
     <path d="M 67.59375 30.203125 
C 67.59375 35.1875 66.703125 43.59375 54.796875 43.59375 
C 48 43.59375 43.296875 39 41.5 33.609375 
L 41.40625 33.609375 
C 40.203125 41.8125 34.296875 43.59375 28.703125 43.59375 
C 20.796875 43.59375 16.703125 37.5 15.203125 33.5 
L 15.09375 33.5 
L 15.09375 43.59375 
L 3.296875 42.5 
L 3.296875 39.90625 
C 9.203125 39.90625 10.09375 39.296875 10.09375 34.5 
L 10.09375 6.6875 
C 10.09375 2.875 9.703125 2.390625 3.296875 2.390625 
L 3.296875 -0.203125 
C 5.703125 0 10.09375 0 12.703125 0 
C 15.296875 0 19.796875 0 22.203125 -0.203125 
L 22.203125 2.390625 
C 15.796875 2.390625 15.40625 2.78125 15.40625 6.6875 
L 15.40625 25.90625 
C 15.40625 35.109375 21 42 28 42 
C 35.40625 42 36.203125 35.40625 36.203125 30.59375 
L 36.203125 6.6875 
C 36.203125 2.875 35.796875 2.390625 29.40625 2.390625 
L 29.40625 -0.203125 
C 31.796875 0 36.203125 0 38.796875 0 
C 41.40625 0 45.90625 0 48.296875 -0.203125 
L 48.296875 2.390625 
C 41.90625 2.390625 41.5 2.78125 41.5 6.6875 
L 41.5 25.90625 
C 41.5 35.109375 47.09375 42 54.09375 42 
C 61.5 42 62.296875 35.40625 62.296875 30.59375 
L 62.296875 6.6875 
C 62.296875 2.875 61.90625 2.390625 55.5 2.390625 
L 55.5 -0.203125 
C 57.90625 0 62.296875 0 64.90625 0 
C 67.5 0 72 0 74.40625 -0.203125 
L 74.40625 2.390625 
C 68 2.390625 67.59375 2.78125 67.59375 6.6875 
z
" id="CMR17-109"/>
     <path d="M 26 23.078125 
C 29 26.96875 32.40625 31.34375 35.203125 34.625 
C 38.5 38.40625 42.296875 40 46.703125 40 
L 46.703125 42.59375 
C 45 42.59375 41.5 42.59375 39.703125 42.59375 
C 37 42.59375 33.90625 42.59375 31.59375 42.6875 
L 31.59375 40.09375 
C 33 39.890625 33.796875 38.890625 33.796875 37.5 
C 33.796875 35.703125 32.796875 34.609375 32.296875 33.921875 
L 24.90625 24.578125 
L 16.09375 36.03125 
C 15.203125 37.125 15.203125 37.3125 15.203125 37.8125 
C 15.203125 39.015625 16.203125 40 17.90625 40 
L 17.90625 42.6875 
C 15.5 42.59375 11.203125 42.59375 8.703125 42.59375 
C 6 42.59375 2.796875 42.59375 0.59375 42.6875 
L 0.59375 40 
C 6 40 7.203125 39.59375 9.59375 36.609375 
L 21.09375 21.796875 
C 21.296875 21.59375 21.796875 21 21.796875 20.703125 
C 21.796875 20.296875 13.09375 9.671875 12 8.28125 
C 7.5 2.890625 2.796875 2.5 0.09375 2.5 
L 0.09375 0 
C 1.796875 0 5.296875 0 7.09375 0 
C 9.09375 0 13.5 0 15.296875 -0.09375 
L 15.296875 2.5 
C 14.703125 2.59375 13.09375 2.796875 13.09375 5.078125 
C 13.09375 6.875 13.90625 7.96875 14.796875 9.15625 
L 23.09375 19.3125 
L 31.796875 8 
C 32.59375 6.90625 33.796875 5.40625 33.796875 4.703125 
C 33.796875 3.296875 32.59375 2.5 31 2.5 
L 31 -0.09375 
C 33.40625 0 37.703125 0 40.203125 0 
C 42.90625 0 46.09375 0 48.296875 -0.09375 
L 48.296875 2.5 
C 43.296875 2.5 41.796875 2.6875 39.40625 5.78125 
z
" id="CMR17-120"/>
     <path d="M 33.59375 64.40625 
C 33.59375 66.5 33.5 66.5 31.703125 66.5 
L 2 19.59375 
L 2 17 
L 27.796875 17 
L 27.796875 7.140625 
C 27.796875 3.5 27.59375 2.5 20.59375 2.5 
L 18.703125 2.5 
L 18.703125 0 
C 21.90625 0 27.296875 0 30.703125 0 
C 34.09375 0 39.5 0 42.703125 0 
L 42.703125 2.5 
L 40.796875 2.5 
C 33.796875 2.5 33.59375 3.5 33.59375 7.140625 
L 33.59375 17 
L 43.796875 17 
L 43.796875 19.59375 
L 33.59375 19.59375 
z
M 28.09375 57.859375 
L 28.09375 19.59375 
L 4 19.59375 
z
" id="CMR17-52"/>
    </defs>
    <g transform="translate(42.858177 107.967095)scale(0.1 -0.1)">
     <use transform="translate(0 14.943915)scale(0.996264)" xlink:href="#CMMI12-76"/>
     <use transform="translate(94.044884 14.943915)scale(0.996264)" xlink:href="#CMR17-61"/>
     <use transform="translate(193.433681 14.943915)scale(0.996264)" xlink:href="#CMMI12-78"/>
     <use transform="translate(309.629463 14.943915)scale(0.996264)" xlink:href="#CMR17-61"/>
     <use transform="translate(409.01826 14.943915)scale(0.996264)" xlink:href="#CMR17-49"/>
     <use transform="translate(454.708737 14.943915)scale(0.996264)" xlink:href="#CMR17-56"/>
     <use transform="translate(500.399214 14.943915)scale(0.996264)" xlink:href="#CMR17-44"/>
     <use transform="translate(555.346239 14.943915)scale(0.996264)" xlink:href="#CMMI12-110"/>
     <use transform="translate(613.576286 0)scale(0.697382)" xlink:href="#CMR17-109"/>
     <use transform="translate(667.419753 0)scale(0.697382)" xlink:href="#CMR17-97"/>
     <use transform="translate(699.402935 0)scale(0.697382)" xlink:href="#CMR17-120"/>
     <use transform="translate(761.379963 14.943915)scale(0.996264)" xlink:href="#CMR17-61"/>
     <use transform="translate(860.76876 14.943915)scale(0.996264)" xlink:href="#CMR17-52"/>
    </g>
   </g>
   <g id="legend_1">
    <g id="line2d_55"/>
    <g id="line2d_56">
     <g>
      <use style="fill:#8caad1;stroke:#4173b3;stroke-width:0.25;" x="54.198541" xlink:href="#ma2b86b17c3" y="63.169072"/>
     </g>
    </g>
    <g id="text_12">
     <!-- $\delta S^{\rm{acc}}(\ell) /S^{\rm{acc}}(\ell)$ -->
     <defs>
      <path d="M 26 43.671875 
C 13.203125 40.578125 4 27.3125 4 15.640625 
C 4 4.984375 11.203125 -1 19.203125 -1 
C 31 -1 39 15.15625 39 28.40625 
C 39 37.375 34.796875 42.875 32.296875 46.15625 
C 28.59375 50.84375 22.59375 58.53125 22.59375 63.3125 
C 22.59375 65.015625 23.90625 68 28.296875 68 
C 31.40625 68 33.296875 66.90625 36.296875 65.203125 
C 37.203125 64.59375 39.5 63.3125 40.796875 63.3125 
C 42.90625 63.3125 44.40625 65.390625 44.40625 66.984375 
C 44.40625 68.890625 42.90625 69.1875 39.40625 69.984375 
C 34.703125 70.984375 33.296875 70.984375 31.59375 70.984375 
C 29.90625 70.984375 20.09375 70.984375 20.09375 60.8125 
C 20.09375 55.921875 22.59375 50.25 26 43.671875 
M 27.09375 41.703125 
C 30.90625 33.828125 32.40625 30.84375 32.40625 24.375 
C 32.40625 16.609375 28.203125 0.984375 19.296875 0.984375 
C 15.40625 0.984375 9.796875 3.578125 9.796875 12.828125 
C 9.796875 19.296875 13.5 38.109375 27.09375 41.703125 
" id="CMMI12-14"/>
      <path d="M 63.5 69.109375 
C 63.5 70 62.796875 70 62.59375 70 
C 62.203125 70 62.09375 69.90625 60.90625 68.40625 
C 60.296875 67.703125 56.203125 62.515625 56.09375 62.421875 
C 52.796875 68.90625 46.203125 70 42 70 
C 29.296875 70 17.796875 58.484375 17.796875 47.265625 
C 17.796875 39.828125 22.296875 35.453125 27.203125 33.765625 
C 28.296875 33.359375 34.203125 31.765625 37.203125 31.078125 
C 42.296875 29.6875 43.59375 29.296875 45.703125 27.109375 
C 46.09375 26.609375 48.09375 24.328125 48.09375 19.65625 
C 48.09375 10.421875 39.5 0.890625 29.5 0.890625 
C 21.296875 0.890625 12.203125 4.375 12.203125 15.484375 
C 12.203125 17.375 12.59375 19.765625 12.90625 20.75 
C 12.90625 21.0625 13 21.53125 13 21.734375 
C 13 22.140625 12.796875 22.640625 12 22.640625 
C 11.09375 22.640625 11 22.4375 10.59375 20.75 
L 5.5 0.375 
C 5.5 0.28125 5.09375 -1 5.09375 -1.109375 
C 5.09375 -2 5.90625 -2 6.09375 -2 
C 6.5 -2 6.59375 -1.90625 7.796875 -0.40625 
L 12.40625 5.5625 
C 14.796875 1.96875 20 -2 29.296875 -2 
C 42.203125 -2 54 10.40625 54 22.8125 
C 54 27 53 30.671875 49.203125 34.328125 
C 47.09375 36.421875 45.296875 36.921875 36.09375 39.3125 
C 29.40625 41.09375 28.5 41.390625 26.703125 42.984375 
C 25 44.65625 23.703125 47.046875 23.703125 50.421875 
C 23.703125 58.765625 32.203125 67.3125 41.703125 67.3125 
C 51.5 67.3125 56.09375 61.34375 56.09375 51.921875 
C 56.09375 49.34375 55.59375 46.65625 55.59375 46.265625 
C 55.59375 45.359375 56.40625 45.359375 56.703125 45.359375 
C 57.59375 45.359375 57.703125 45.65625 58.09375 47.25 
z
" id="CMMI12-83"/>
      <path d="M 34.90625 35 
C 33 35 30.203125 35 30.203125 31.515625 
C 30.203125 28.71875 32.5 27.921875 33.796875 27.921875 
C 34.5 27.921875 37.40625 28.234375 37.40625 31.625 
C 37.40625 38.546875 30.59375 43.796875 22.90625 43.796875 
C 12.296875 43.796875 3.296875 34.03125 3.296875 21.296875 
C 3.296875 8.0625 12.703125 -1 22.90625 -1 
C 35.296875 -1 38.40625 10.578125 38.40625 11.6875 
C 38.40625 12.09375 38.296875 12.390625 37.59375 12.390625 
C 36.90625 12.390625 36.796875 12.296875 36.40625 10.984375 
C 33.796875 2.8125 28.09375 0.796875 23.796875 0.796875 
C 17.40625 0.796875 9.703125 6.671875 9.703125 21.390625 
C 9.703125 36.53125 17.09375 42 23 42 
C 26.90625 42 32.703125 40.203125 34.90625 35 
" id="CMR17-99"/>
      <path d="M 30.59375 -24.390625 
C 30.59375 -24.296875 30.59375 -24.09375 30.296875 -23.796875 
C 25.703125 -19.125 13.40625 -6.359375 13.40625 24.6875 
C 13.40625 55.765625 25.5 68.421875 30.40625 73.390625 
C 30.40625 73.5 30.59375 73.703125 30.59375 74 
C 30.59375 74.296875 30.296875 74.5 29.90625 74.5 
C 28.796875 74.5 20.296875 67.125 15.40625 56.15625 
C 10.40625 45.109375 9 34.359375 9 24.8125 
C 9 17.625 9.703125 5.484375 15.703125 -7.359375 
C 20.5 -17.734375 28.703125 -25 29.90625 -25 
C 30.40625 -25 30.59375 -24.796875 30.59375 -24.390625 
" id="CMR17-40"/>
      <path d="M 9.203125 17 
C 2.90625 10.8125 1.296875 9.328125 1.296875 8.9375 
C 1.296875 8.53125 1.703125 7.828125 2.40625 7.828125 
C 2.90625 7.828125 8.59375 13.296875 9.40625 14.203125 
C 10 7.53125 12.5 -1.140625 20.296875 -1.140625 
C 24.296875 -1.140625 27.90625 1.34375 29.5 2.546875 
C 30.796875 3.546875 35.59375 7.625 35.59375 8.53125 
C 35.59375 9.03125 35.09375 9.625 34.59375 9.625 
C 34.203125 9.625 32.703125 8.125 32.296875 7.734375 
C 28.796875 4.34375 24.40625 0.859375 20.40625 0.859375 
C 15 0.859375 14.296875 8.625 14.296875 14.015625 
C 14.296875 15 14.296875 19.1875 15 19.984375 
C 20.90625 26.046875 39.40625 45.09375 39.40625 62.71875 
C 39.40625 66.703125 37.90625 70.1875 33.59375 70.1875 
C 24.296875 70.1875 16.203125 49.65625 14.796875 45.875 
C 14.40625 44.890625 8.59375 29.546875 9.203125 17 
M 15.203125 22.984375 
C 15.296875 23.578125 19.796875 49.78125 28.203125 63.78125 
C 29.90625 66.484375 31.59375 68.1875 33.59375 68.1875 
C 37 68.1875 37.203125 64.984375 37.203125 62.78125 
C 37.203125 59.28125 36.203125 50.28125 27.5 37.6875 
C 24.90625 33.984375 20.90625 28.984375 15.203125 22.984375 
" id="CMMI12-96"/>
      <path d="M 26.296875 24.6875 
C 26.296875 31.875 25.59375 44.015625 19.59375 56.859375 
C 14.796875 67.234375 6.59375 74.5 5.40625 74.5 
C 5.09375 74.5 4.703125 74.390625 4.703125 73.890625 
C 4.703125 73.703125 4.796875 73.59375 4.90625 73.390625 
C 9.703125 68.40625 21.90625 55.75 21.90625 24.75 
C 21.90625 -6.359375 9.796875 -19.015625 4.90625 -24.015625 
C 4.796875 -24.203125 4.703125 -24.3125 4.703125 -24.5 
C 4.703125 -25 5.09375 -25 5.40625 -25 
C 6.5 -25 15 -17.625 19.90625 -6.65625 
C 24.90625 4.390625 26.296875 15.140625 26.296875 24.6875 
" id="CMR17-41"/>
      <path d="M 42.90625 71.296875 
C 42.90625 71.40625 43.5 72.90625 43.5 73.09375 
C 43.5 74.296875 42.5 75 41.703125 75 
C 41.203125 75 40.296875 75 39.5 72.796875 
L 6 -21.296875 
C 6 -21.40625 5.40625 -22.890625 5.40625 -23.09375 
C 5.40625 -24.296875 6.40625 -25 7.203125 -25 
C 7.796875 -25 8.703125 -24.890625 9.40625 -22.796875 
z
" id="CMMI12-61"/>
     </defs>
     <g transform="translate(59.198541 67.869072)scale(0.1 -0.1)">
      <use transform="scale(0.996264)" xlink:href="#CMMI12-14"/>
      <use transform="translate(46.941386 0)scale(0.996264)" xlink:href="#CMMI12-83"/>
      <use transform="translate(112.735825 36.153639)scale(0.697382)" xlink:href="#CMR17-97"/>
      <use transform="translate(144.719007 36.153639)scale(0.697382)" xlink:href="#CMR17-99"/>
      <use transform="translate(173.058839 36.153639)scale(0.697382)" xlink:href="#CMR17-99"/>
      <use transform="translate(201.896802 0)scale(0.996264)" xlink:href="#CMR17-40"/>
      <use transform="translate(237.17757 0)scale(0.996264)" xlink:href="#CMMI12-96"/>
      <use transform="translate(278.11179 0)scale(0.996264)" xlink:href="#CMR17-41"/>
      <use transform="translate(313.392557 0)scale(0.996264)" xlink:href="#CMMI12-61"/>
      <use transform="translate(362.167476 0)scale(0.996264)" xlink:href="#CMMI12-83"/>
      <use transform="translate(427.961915 36.153639)scale(0.697382)" xlink:href="#CMR17-97"/>
      <use transform="translate(459.945097 36.153639)scale(0.697382)" xlink:href="#CMR17-99"/>
      <use transform="translate(488.284929 36.153639)scale(0.697382)" xlink:href="#CMR17-99"/>
      <use transform="translate(517.122892 0)scale(0.996264)" xlink:href="#CMR17-40"/>
      <use transform="translate(552.40366 0)scale(0.996264)" xlink:href="#CMMI12-96"/>
      <use transform="translate(593.33788 0)scale(0.996264)" xlink:href="#CMR17-41"/>
     </g>
    </g>
    <g id="line2d_57"/>
    <g id="line2d_58">
     <g>
      <use style="fill:#feb965;stroke:#ff8c00;stroke-linejoin:miter;stroke-width:0.25;" x="54.198541" xlink:href="#mcbe324955b" y="77.869072"/>
     </g>
    </g>
    <g id="text_13">
     <!-- $\delta E /E$ -->
     <defs>
      <path d="M 69.5 23.265625 
C 69.59375 23.5625 69.90625 24.28125 69.90625 24.671875 
C 69.90625 25.171875 69.5 25.671875 68.90625 25.671875 
C 68.5 25.671875 68.296875 25.578125 68 25.265625 
C 67.796875 25.171875 67.796875 24.96875 66.90625 22.953125 
C 61 8.90625 56.703125 2.890625 40.703125 2.890625 
L 26.09375 2.890625 
C 24.703125 2.890625 24.5 2.890625 23.90625 3 
C 22.796875 3.09375 22.703125 3.296875 22.703125 4.09375 
C 22.703125 4.796875 22.90625 5.390625 23.09375 6.296875 
L 30 34 
L 39.90625 34 
C 47.703125 34 48.296875 32.28125 48.296875 29.28125 
C 48.296875 28.28125 48.296875 27.375 47.59375 24.375 
C 47.40625 23.96875 47.296875 23.5625 47.296875 23.265625 
C 47.296875 22.5625 47.796875 22.265625 48.40625 22.265625 
C 49.296875 22.265625 49.40625 22.953125 49.796875 24.359375 
L 55.5 47.53125 
C 55.5 48.015625 55.09375 48.515625 54.5 48.515625 
C 53.59375 48.515625 53.5 48.125 53.09375 46.71875 
C 51.09375 39.078125 49.09375 36.890625 40.203125 36.890625 
L 30.703125 36.890625 
L 36.90625 61.40625 
C 37.796875 64.90625 38 64.90625 42.09375 64.90625 
L 56.40625 64.90625 
C 68.703125 64.90625 71.203125 61.609375 71.203125 54.03125 
C 71.203125 53.921875 71.203125 51.140625 70.796875 47.84375 
C 70.703125 47.4375 70.59375 46.84375 70.59375 46.640625 
C 70.59375 45.84375 71.09375 45.546875 71.703125 45.546875 
C 72.40625 45.546875 72.796875 45.953125 73 47.734375 
L 75.09375 65.21875 
C 75.09375 65.546875 75.296875 66.609375 75.296875 66.828125 
C 75.296875 68 74.40625 68 72.59375 68 
L 23.796875 68 
C 21.90625 68 20.90625 68 20.90625 66.078125 
C 20.90625 64.90625 21.59375 64.90625 23.296875 64.90625 
C 29.5 64.90625 29.5 64.28125 29.5 63.3125 
C 29.5 62.8125 29.40625 62.40625 29.09375 61.3125 
L 15.59375 7.390625 
C 14.703125 3.890625 14.5 2.890625 7.5 2.890625 
C 5.59375 2.890625 4.59375 2.890625 4.59375 1.09375 
C 4.59375 0 5.203125 0 7.203125 0 
L 57.40625 0 
C 59.59375 0 59.703125 0.09375 60.40625 1.71875 
z
" id="CMMI12-69"/>
     </defs>
     <g transform="translate(59.198541 82.569072)scale(0.1 -0.1)">
      <use transform="scale(0.996264)" xlink:href="#CMMI12-14"/>
      <use transform="translate(46.941386 0)scale(0.996264)" xlink:href="#CMMI12-69"/>
      <use transform="translate(124.993022 0)scale(0.996264)" xlink:href="#CMMI12-61"/>
      <use transform="translate(173.767941 0)scale(0.996264)" xlink:href="#CMMI12-69"/>
     </g>
    </g>
   </g>
  </g>
  <g id="axes_2">
   <g id="patch_7">
    <path d="M 160.834141 49.040568 
L 223.329745 49.040568 
L 223.329745 7.083777 
L 160.834141 7.083777 
z
" style="fill:#ffffff;"/>
   </g>
   <g id="line2d_59">
    <defs>
     <path d="M 0 2 
C 0.530406 2 1.03916 1.789267 1.414214 1.414214 
C 1.789267 1.03916 2 0.530406 2 0 
C 2 -0.530406 1.789267 -1.03916 1.414214 -1.414214 
C 1.03916 -1.789267 0.530406 -2 0 -2 
C -0.530406 -2 -1.03916 -1.789267 -1.414214 -1.414214 
C -1.789267 -1.03916 -2 -0.530406 -2 0 
C -2 0.530406 -1.789267 1.03916 -1.414214 1.414214 
C -1.03916 1.789267 -0.530406 2 0 2 
z
" id="m0a91bc7e4d" style="stroke:#66cdaa;stroke-width:0.25;"/>
    </defs>
    <g clip-path="url(#pc8bceecacf)">
     <use style="fill:#a2e0cb;stroke:#66cdaa;stroke-width:0.25;" x="163.458002" xlink:href="#m0a91bc7e4d" y="45.97526"/>
     <use style="fill:#a2e0cb;stroke:#66cdaa;stroke-width:0.25;" x="168.228659" xlink:href="#m0a91bc7e4d" y="40.225755"/>
     <use style="fill:#a2e0cb;stroke:#66cdaa;stroke-width:0.25;" x="172.999316" xlink:href="#m0a91bc7e4d" y="34.205162"/>
     <use style="fill:#a2e0cb;stroke:#66cdaa;stroke-width:0.25;" x="177.769972" xlink:href="#m0a91bc7e4d" y="28.814957"/>
     <use style="fill:#a2e0cb;stroke:#66cdaa;stroke-width:0.25;" x="182.540629" xlink:href="#m0a91bc7e4d" y="24.058302"/>
     <use style="fill:#a2e0cb;stroke:#66cdaa;stroke-width:0.25;" x="187.311286" xlink:href="#m0a91bc7e4d" y="20.220046"/>
     <use style="fill:#a2e0cb;stroke:#66cdaa;stroke-width:0.25;" x="192.081943" xlink:href="#m0a91bc7e4d" y="17.04706"/>
     <use style="fill:#a2e0cb;stroke:#66cdaa;stroke-width:0.25;" x="196.8526" xlink:href="#m0a91bc7e4d" y="14.645844"/>
     <use style="fill:#a2e0cb;stroke:#66cdaa;stroke-width:0.25;" x="201.623256" xlink:href="#m0a91bc7e4d" y="12.759636"/>
     <use style="fill:#a2e0cb;stroke:#66cdaa;stroke-width:0.25;" x="206.393913" xlink:href="#m0a91bc7e4d" y="11.445824"/>
     <use style="fill:#a2e0cb;stroke:#66cdaa;stroke-width:0.25;" x="211.16457" xlink:href="#m0a91bc7e4d" y="10.491272"/>
     <use style="fill:#a2e0cb;stroke:#66cdaa;stroke-width:0.25;" x="215.935227" xlink:href="#m0a91bc7e4d" y="9.942501"/>
     <use style="fill:#a2e0cb;stroke:#66cdaa;stroke-width:0.25;" x="220.705884" xlink:href="#m0a91bc7e4d" y="9.629269"/>
    </g>
   </g>
   <g id="matplotlib.axis_3">
    <g id="xtick_32">
     <g id="line2d_60">
      <g>
       <use style="stroke:#000000;stroke-width:0.5;" x="177.769972" xlink:href="#m4045ea3cd8" y="49.040568"/>
      </g>
     </g>
     <g id="text_14">
      <!-- $10$ -->
      <g transform="translate(173.53579 58.57537)scale(0.08 -0.08)">
       <use transform="scale(0.996264)" xlink:href="#CMR17-49"/>
       <use transform="translate(45.690477 0)scale(0.996264)" xlink:href="#CMR17-48"/>
      </g>
     </g>
    </g>
    <g id="xtick_33">
     <g id="line2d_61">
      <g>
       <use style="stroke:#000000;stroke-width:0.5;" x="201.623256" xlink:href="#m4045ea3cd8" y="49.040568"/>
      </g>
     </g>
     <g id="text_15">
      <!-- $15$ -->
      <defs>
       <path d="M 11.40625 57.6875 
C 12.40625 57.28125 16.5 56 20.703125 56 
C 30 56 35.09375 61.109375 38 64.0625 
C 38 64.953125 38 65.5 37.40625 65.5 
C 37.296875 65.5 37.09375 65.5 36.296875 65.046875 
C 32.796875 63.40625 28.703125 62.078125 23.703125 62.078125 
C 20.703125 62.078125 16.203125 62.484375 11.296875 64.671875 
C 10.203125 65.171875 10 65.171875 9.90625 65.171875 
C 9.40625 65.171875 9.296875 65.0625 9.296875 63.078125 
L 9.296875 34.421875 
C 9.296875 32.640625 9.296875 32.140625 10.296875 32.140625 
C 10.796875 32.140625 11 32.34375 11.5 33.03125 
C 14.703125 37.515625 19.09375 39.40625 24.09375 39.40625 
C 27.59375 39.40625 35.09375 37.21875 35.09375 20.140625 
C 35.09375 16.953125 35.09375 11.171875 32.09375 6.578125 
C 29.59375 2.484375 25.703125 0.390625 21.40625 0.390625 
C 14.796875 0.390625 8.09375 5 6.296875 12.71875 
C 6.703125 12.609375 7.5 12.421875 7.90625 12.421875 
C 9.203125 12.421875 11.703125 13.125 11.703125 16.21875 
C 11.703125 18.90625 9.796875 20 7.90625 20 
C 5.59375 20 4.09375 18.59375 4.09375 15.796875 
C 4.09375 7.09375 11 -2 21.59375 -2 
C 31.90625 -2 41.703125 6.875 41.703125 19.75 
C 41.703125 31.71875 33.90625 41 24.203125 41 
C 19.09375 41 14.796875 39.109375 11.40625 35.53125 
z
" id="CMR17-53"/>
      </defs>
      <g transform="translate(197.389074 58.57537)scale(0.08 -0.08)">
       <use transform="scale(0.996264)" xlink:href="#CMR17-49"/>
       <use transform="translate(45.690477 0)scale(0.996264)" xlink:href="#CMR17-53"/>
      </g>
     </g>
    </g>
    <g id="text_16">
     <!-- $L$ -->
     <g transform="translate(188.691869 63.043614)scale(0.1 -0.1)">
      <use transform="scale(0.996264)" xlink:href="#CMMI12-76"/>
     </g>
    </g>
   </g>
   <g id="matplotlib.axis_4">
    <g id="ytick_22">
     <g id="line2d_62">
      <g>
       <use style="stroke:#000000;stroke-width:0.5;" x="160.834141" xlink:href="#m82d1ed0cf7" y="38.666636"/>
      </g>
     </g>
     <g id="text_17">
      <!-- $0.5$ -->
      <defs>
       <path d="M 18.40625 4.796875 
C 18.40625 7.6875 16 9.671875 13.59375 9.671875 
C 10.703125 9.671875 8.703125 7.28125 8.703125 4.890625 
C 8.703125 2 11.09375 0 13.5 0 
C 16.40625 0 18.40625 2.390625 18.40625 4.796875 
" id="CMMI12-58"/>
      </defs>
      <g transform="translate(146.013451 41.434037)scale(0.08 -0.08)">
       <use transform="scale(0.996264)" xlink:href="#CMR17-48"/>
       <use transform="translate(45.690477 0)scale(0.996264)" xlink:href="#CMMI12-58"/>
       <use transform="translate(72.787654 0)scale(0.996264)" xlink:href="#CMR17-53"/>
      </g>
     </g>
    </g>
    <g id="ytick_23">
     <g id="line2d_63">
      <g>
       <use style="stroke:#000000;stroke-width:0.5;" x="160.834141" xlink:href="#m82d1ed0cf7" y="27.140045"/>
      </g>
     </g>
     <g id="text_18">
      <!-- $1.0$ -->
      <g transform="translate(146.013451 29.907446)scale(0.08 -0.08)">
       <use transform="scale(0.996264)" xlink:href="#CMR17-49"/>
       <use transform="translate(45.690477 0)scale(0.996264)" xlink:href="#CMMI12-58"/>
       <use transform="translate(72.787654 0)scale(0.996264)" xlink:href="#CMR17-48"/>
      </g>
     </g>
    </g>
    <g id="ytick_24">
     <g id="line2d_64">
      <g>
       <use style="stroke:#000000;stroke-width:0.5;" x="160.834141" xlink:href="#m82d1ed0cf7" y="15.613454"/>
      </g>
     </g>
     <g id="text_19">
      <!-- $1.5$ -->
      <g transform="translate(146.013451 18.380855)scale(0.08 -0.08)">
       <use transform="scale(0.996264)" xlink:href="#CMR17-49"/>
       <use transform="translate(45.690477 0)scale(0.996264)" xlink:href="#CMMI12-58"/>
       <use transform="translate(72.787654 0)scale(0.996264)" xlink:href="#CMR17-53"/>
      </g>
     </g>
    </g>
    <g id="text_20">
     <!-- $\delta S^{\rm{acc}} /S^{\rm{acc}}$ -->
     <g transform="translate(141.522791 50.943416)rotate(-90)scale(0.1 -0.1)">
      <use transform="scale(0.996264)" xlink:href="#CMMI12-14"/>
      <use transform="translate(46.941386 0)scale(0.996264)" xlink:href="#CMMI12-83"/>
      <use transform="translate(112.735825 36.153639)scale(0.697382)" xlink:href="#CMR17-97"/>
      <use transform="translate(144.719007 36.153639)scale(0.697382)" xlink:href="#CMR17-99"/>
      <use transform="translate(173.058839 36.153639)scale(0.697382)" xlink:href="#CMR17-99"/>
      <use transform="translate(201.896802 0)scale(0.996264)" xlink:href="#CMMI12-61"/>
      <use transform="translate(250.671721 0)scale(0.996264)" xlink:href="#CMMI12-83"/>
      <use transform="translate(316.46616 36.153639)scale(0.697382)" xlink:href="#CMR17-97"/>
      <use transform="translate(348.449342 36.153639)scale(0.697382)" xlink:href="#CMR17-99"/>
      <use transform="translate(376.789174 36.153639)scale(0.697382)" xlink:href="#CMR17-99"/>
     </g>
    </g>
   </g>
   <g id="patch_8">
    <path d="M 160.834141 49.040568 
L 160.834141 7.083777 
" style="fill:none;stroke:#000000;stroke-linecap:square;stroke-linejoin:miter;"/>
   </g>
   <g id="patch_9">
    <path d="M 223.329745 49.040568 
L 223.329745 7.083777 
" style="fill:none;stroke:#000000;stroke-linecap:square;stroke-linejoin:miter;"/>
   </g>
   <g id="patch_10">
    <path d="M 160.834141 49.040568 
L 223.329745 49.040568 
" style="fill:none;stroke:#000000;stroke-linecap:square;stroke-linejoin:miter;"/>
   </g>
   <g id="patch_11">
    <path d="M 160.834141 7.083777 
L 223.329745 7.083777 
" style="fill:none;stroke:#000000;stroke-linecap:square;stroke-linejoin:miter;"/>
   </g>
   <g id="text_21">
    <!-- $n_{\rm{max}}=6$ -->
    <defs>
     <path d="M 10.59375 34 
C 10.59375 57.65625 21.796875 63 28.296875 63 
C 30.40625 63 35.5 62.640625 37.5 59 
C 35.90625 59 32.90625 59 32.90625 55.515625 
C 32.90625 52.828125 35.09375 51.921875 36.5 51.921875 
C 37.40625 51.921875 40.09375 52.3125 40.09375 55.625 
C 40.09375 61.78125 35.09375 65.296875 28.203125 65.296875 
C 16.296875 65.296875 3.796875 52.96875 3.796875 31 
C 3.796875 3.953125 15.09375 -2 23.09375 -2 
C 32.796875 -2 42 6.671875 42 20.046875 
C 42 32.515625 33.90625 41.59375 23.703125 41.59375 
C 17.59375 41.59375 13.09375 37.609375 10.59375 30.625 
z
M 23.09375 0.390625 
C 10.796875 0.390625 10.796875 18.75 10.796875 22.4375 
C 10.796875 29.625 14.203125 40 23.5 40 
C 25.203125 40 30.09375 40 33.40625 33.125 
C 35.203125 29.21875 35.203125 25.140625 35.203125 20.140625 
C 35.203125 14.75 35.203125 10.78125 33.09375 6.78125 
C 30.90625 2.671875 27.703125 0.390625 23.09375 0.390625 
" id="CMR17-54"/>
    </defs>
    <g transform="translate(177.769972 43.968868)scale(0.1 -0.1)">
     <use transform="translate(0 14.943915)scale(0.996264)" xlink:href="#CMMI12-110"/>
     <use transform="translate(58.230047 0)scale(0.697382)" xlink:href="#CMR17-109"/>
     <use transform="translate(112.073514 0)scale(0.697382)" xlink:href="#CMR17-97"/>
     <use transform="translate(144.056696 0)scale(0.697382)" xlink:href="#CMR17-120"/>
     <use transform="translate(206.033724 14.943915)scale(0.996264)" xlink:href="#CMR17-61"/>
     <use transform="translate(305.422521 14.943915)scale(0.996264)" xlink:href="#CMR17-54"/>
    </g>
   </g>
   <g id="text_22">
    <!-- $U=0.01$ -->
    <g transform="translate(183.971826 32.903341)scale(0.1 -0.1)">
     <use transform="scale(0.996264)" xlink:href="#CMMI12-85"/>
     <use transform="translate(104.332782 0)scale(0.996264)" xlink:href="#CMR17-61"/>
     <use transform="translate(203.721579 0)scale(0.996264)" xlink:href="#CMR17-48"/>
     <use transform="translate(249.412056 0)scale(0.996264)" xlink:href="#CMMI12-58"/>
     <use transform="translate(276.509233 0)scale(0.996264)" xlink:href="#CMR17-48"/>
     <use transform="translate(322.19971 0)scale(0.996264)" xlink:href="#CMR17-49"/>
    </g>
   </g>
  </g>
 </g>
 <defs>
  <clipPath id="pf0d05a6088">
   <rect height="114.358763" width="189.93762" x="36.333094" y="3.6"/>
  </clipPath>
  <clipPath id="pc8bceecacf">
   <rect height="41.956791" width="62.495604" x="160.834141" y="7.083777"/>
  </clipPath>
 </defs>
</svg>
