<?xml version="1.0" encoding="utf-8" standalone="no"?>
<!DOCTYPE svg PUBLIC "-//W3C//DTD SVG 1.1//EN"
  "http://www.w3.org/Graphics/SVG/1.1/DTD/svg11.dtd">
<!-- Created with matplotlib (http://matplotlib.org/) -->
<svg height="141pt" version="1.1" viewBox="0 0 242 141" width="242pt" xmlns="http://www.w3.org/2000/svg" xmlns:xlink="http://www.w3.org/1999/xlink">
 <defs>
  <style type="text/css">
*{stroke-linecap:butt;stroke-linejoin:round;}
  </style>
 </defs>
 <g id="figure_1">
  <g id="patch_1">
   <path d="M 0 141.498987 
L 242.446043 141.498987 
L 242.446043 0 
L 0 0 
z
" style="fill:#ffffff;"/>
  </g>
  <g id="axes_1">
   <g id="patch_2">
    <path d="M 91.906818 117.958763 
L 216.968626 117.958763 
L 216.968626 3.6 
L 91.906818 3.6 
z
" style="fill:#ffffff;"/>
   </g>
   <g id="matplotlib.axis_1">
    <g id="xtick_1">
     <g id="line2d_1">
      <defs>
       <path d="M 0 0 
L 0 -4 
" id="m17dd9fc8bf" style="stroke:#000000;stroke-width:0.5;"/>
      </defs>
      <g>
       <use style="stroke:#000000;stroke-width:0.5;" x="95.446304" xlink:href="#m17dd9fc8bf" y="117.958763"/>
      </g>
     </g>
     <g id="text_1">
      <!-- $10$ -->
      <defs>
       <path d="M 26.59375 63.40625 
C 26.59375 65.5 26.5 65.5 25.09375 65.5 
C 21.203125 61.1875 15.296875 59.796875 9.703125 59.796875 
C 9.40625 59.796875 8.90625 59.796875 8.796875 59.5 
C 8.703125 59.296875 8.703125 59.09375 8.703125 57 
C 11.796875 57 17 57.59375 21 59.984375 
L 21 7.203125 
C 21 3.6875 20.796875 2.5 12.203125 2.5 
L 9.203125 2.5 
L 9.203125 0 
C 14 0 19 0 23.796875 0 
C 28.59375 0 33.59375 0 38.40625 0 
L 38.40625 2.5 
L 35.40625 2.5 
C 26.796875 2.5 26.59375 3.59375 26.59375 7.15625 
z
" id="CMR17-49"/>
       <path d="M 42 31.640625 
C 42 37.75 41.90625 48.125 37.703125 56.109375 
C 34 63.109375 28.09375 65.59375 22.90625 65.59375 
C 18.09375 65.59375 12 63.40625 8.203125 56.203125 
C 4.203125 48.71875 3.796875 39.4375 3.796875 31.640625 
C 3.796875 25.953125 3.90625 17.28125 7 9.671875 
C 11.296875 -0.609375 19 -2 22.90625 -2 
C 27.5 -2 34.5 -0.109375 38.59375 9.375 
C 41.59375 16.28125 42 24.359375 42 31.640625 
M 22.90625 -0.40625 
C 16.5 -0.40625 12.703125 5.078125 11.296875 12.6875 
C 10.203125 18.5625 10.203125 27.15625 10.203125 32.75 
C 10.203125 40.4375 10.203125 46.828125 11.5 52.921875 
C 13.40625 61.390625 19 64 22.90625 64 
C 27 64 32.296875 61.296875 34.203125 53.125 
C 35.5 47.4375 35.59375 40.734375 35.59375 32.75 
C 35.59375 26.25 35.59375 18.265625 34.40625 12.375 
C 32.296875 1.484375 26.40625 -0.40625 22.90625 -0.40625 
" id="CMR17-48"/>
      </defs>
      <g transform="translate(91.212121 127.493565)scale(0.08 -0.08)">
       <use transform="scale(0.996264)" xlink:href="#CMR17-49"/>
       <use transform="translate(45.690477 0)scale(0.996264)" xlink:href="#CMR17-48"/>
      </g>
     </g>
    </g>
    <g id="xtick_2">
     <g id="line2d_2">
      <g>
       <use style="stroke:#000000;stroke-width:0.5;" x="154.437722" xlink:href="#m17dd9fc8bf" y="117.958763"/>
      </g>
     </g>
     <g id="text_2">
      <!-- $15$ -->
      <defs>
       <path d="M 11.40625 57.6875 
C 12.40625 57.28125 16.5 56 20.703125 56 
C 30 56 35.09375 61.109375 38 64.0625 
C 38 64.953125 38 65.5 37.40625 65.5 
C 37.296875 65.5 37.09375 65.5 36.296875 65.046875 
C 32.796875 63.40625 28.703125 62.078125 23.703125 62.078125 
C 20.703125 62.078125 16.203125 62.484375 11.296875 64.671875 
C 10.203125 65.171875 10 65.171875 9.90625 65.171875 
C 9.40625 65.171875 9.296875 65.0625 9.296875 63.078125 
L 9.296875 34.421875 
C 9.296875 32.640625 9.296875 32.140625 10.296875 32.140625 
C 10.796875 32.140625 11 32.34375 11.5 33.03125 
C 14.703125 37.515625 19.09375 39.40625 24.09375 39.40625 
C 27.59375 39.40625 35.09375 37.21875 35.09375 20.140625 
C 35.09375 16.953125 35.09375 11.171875 32.09375 6.578125 
C 29.59375 2.484375 25.703125 0.390625 21.40625 0.390625 
C 14.796875 0.390625 8.09375 5 6.296875 12.71875 
C 6.703125 12.609375 7.5 12.421875 7.90625 12.421875 
C 9.203125 12.421875 11.703125 13.125 11.703125 16.21875 
C 11.703125 18.90625 9.796875 20 7.90625 20 
C 5.59375 20 4.09375 18.59375 4.09375 15.796875 
C 4.09375 7.09375 11 -2 21.59375 -2 
C 31.90625 -2 41.703125 6.875 41.703125 19.75 
C 41.703125 31.71875 33.90625 41 24.203125 41 
C 19.09375 41 14.796875 39.109375 11.40625 35.53125 
z
" id="CMR17-53"/>
      </defs>
      <g transform="translate(150.203539 127.493565)scale(0.08 -0.08)">
       <use transform="scale(0.996264)" xlink:href="#CMR17-49"/>
       <use transform="translate(45.690477 0)scale(0.996264)" xlink:href="#CMR17-53"/>
      </g>
     </g>
    </g>
    <g id="xtick_3">
     <g id="line2d_3">
      <g>
       <use style="stroke:#000000;stroke-width:0.5;" x="213.429141" xlink:href="#m17dd9fc8bf" y="117.958763"/>
      </g>
     </g>
     <g id="text_3">
      <!-- $20$ -->
      <defs>
       <path d="M 41.703125 15.453125 
L 39.90625 15.453125 
C 38.90625 8.375 38.09375 7.171875 37.703125 6.5625 
C 37.203125 5.765625 30 5.765625 28.59375 5.765625 
L 9.40625 5.765625 
C 13 9.671875 20 16.75 28.5 24.953125 
C 34.59375 30.734375 41.703125 37.53125 41.703125 47.421875 
C 41.703125 59.21875 32.296875 66 21.796875 66 
C 10.796875 66 4.09375 56.3125 4.09375 47.34375 
C 4.09375 43.4375 7 42.9375 8.203125 42.9375 
C 9.203125 42.9375 12.203125 43.546875 12.203125 47.03125 
C 12.203125 50.109375 9.59375 51 8.203125 51 
C 7.59375 51 7 50.90625 6.59375 50.703125 
C 8.5 59.21875 14.296875 63.40625 20.40625 63.40625 
C 29.09375 63.40625 34.796875 56.515625 34.796875 47.421875 
C 34.796875 38.734375 29.703125 31.25 24 24.75 
L 4.09375 2.28125 
L 4.09375 0 
L 39.296875 0 
z
" id="CMR17-50"/>
      </defs>
      <g transform="translate(209.194958 127.493565)scale(0.08 -0.08)">
       <use transform="scale(0.996264)" xlink:href="#CMR17-50"/>
       <use transform="translate(45.690477 0)scale(0.996264)" xlink:href="#CMR17-48"/>
      </g>
     </g>
    </g>
    <g id="text_4">
     <!-- $L$ -->
     <defs>
      <path d="M 36.703125 60.328125 
C 37.59375 64.109375 37.90625 65.109375 46.703125 65.109375 
C 49.40625 65.109375 50.09375 65.109375 50.09375 67 
C 50.09375 68 49 68 48.59375 68 
C 46.59375 68 44.296875 68 42.296875 68 
L 28.90625 68 
C 27 68 24.796875 68 22.90625 68 
C 22.09375 68 21 68 21 66.109375 
C 21 65.109375 21.90625 65.109375 23.40625 65.109375 
C 29.5 65.109375 29.5 64.3125 29.5 63.21875 
C 29.5 63.03125 29.5 62.421875 29.09375 60.921875 
L 15.59375 7.375 
C 14.703125 3.890625 14.5 2.890625 7.5 2.890625 
C 5.59375 2.890625 4.59375 2.890625 4.59375 1.09375 
C 4.59375 0 5.203125 0 7.203125 0 
L 52 0 
C 54.203125 0 54.296875 0.09375 55 1.890625 
L 62.703125 23.09375 
C 62.90625 23.59375 63.09375 24.1875 63.09375 24.484375 
C 63.09375 25.078125 62.59375 25.484375 62.09375 25.484375 
C 62 25.484375 61.5 25.484375 61.296875 25.078125 
C 61.09375 24.984375 61.09375 24.78125 60.296875 22.890625 
C 57.09375 14.140625 52.59375 2.890625 35.703125 2.890625 
L 26.09375 2.890625 
C 24.703125 2.890625 24.5 2.890625 23.90625 3 
C 22.796875 3.09375 22.703125 3.296875 22.703125 4.09375 
C 22.703125 4.796875 22.90625 5.390625 23.09375 6.265625 
z
" id="CMMI12-76"/>
     </defs>
     <g transform="translate(151.047649 135.961809)scale(0.1 -0.1)">
      <use transform="scale(0.996264)" xlink:href="#CMMI12-76"/>
     </g>
    </g>
   </g>
   <g id="matplotlib.axis_2">
    <g id="ytick_1">
     <g id="line2d_4">
      <defs>
       <path d="M 0 0 
L -4 0 
" id="m429f19f505" style="stroke:#000000;stroke-width:0.5;"/>
      </defs>
      <g>
       <use style="stroke:#000000;stroke-width:0.5;" x="216.968626" xlink:href="#m429f19f505" y="117.958763"/>
      </g>
     </g>
     <g id="text_5">
      <!-- $10^{-1}$ -->
      <defs>
       <path d="M 65.90625 23 
C 67.59375 23 69.40625 23 69.40625 25 
C 69.40625 27 67.59375 27 65.90625 27 
L 11.796875 27 
C 10.09375 27 8.296875 27 8.296875 25 
C 8.296875 23 10.09375 23 11.796875 23 
z
" id="CMSY10-0"/>
      </defs>
      <g transform="translate(220.968626 120.726164)scale(0.08 -0.08)">
       <use transform="scale(0.996264)" xlink:href="#CMR17-49"/>
       <use transform="translate(45.690477 0)scale(0.996264)" xlink:href="#CMR17-48"/>
       <use transform="translate(91.380954 36.153639)scale(0.697382)" xlink:href="#CMSY10-0"/>
       <use transform="translate(145.621947 36.153639)scale(0.697382)" xlink:href="#CMR17-49"/>
      </g>
     </g>
    </g>
    <g id="ytick_2">
     <g id="line2d_5">
      <g>
       <use style="stroke:#000000;stroke-width:0.5;" x="216.968626" xlink:href="#m429f19f505" y="80.819422"/>
      </g>
     </g>
     <g id="text_6">
      <!-- $10^{0}$ -->
      <g transform="translate(220.968626 83.586823)scale(0.08 -0.08)">
       <use transform="scale(0.996264)" xlink:href="#CMR17-49"/>
       <use transform="translate(45.690477 0)scale(0.996264)" xlink:href="#CMR17-48"/>
       <use transform="translate(91.380954 36.153639)scale(0.697382)" xlink:href="#CMR17-48"/>
      </g>
     </g>
    </g>
    <g id="ytick_3">
     <g id="line2d_6">
      <g>
       <use style="stroke:#000000;stroke-width:0.5;" x="216.968626" xlink:href="#m429f19f505" y="43.68008"/>
      </g>
     </g>
     <g id="text_7">
      <!-- $10^{1}$ -->
      <g transform="translate(220.968626 46.447481)scale(0.08 -0.08)">
       <use transform="scale(0.996264)" xlink:href="#CMR17-49"/>
       <use transform="translate(45.690477 0)scale(0.996264)" xlink:href="#CMR17-48"/>
       <use transform="translate(91.380954 36.153639)scale(0.697382)" xlink:href="#CMR17-49"/>
      </g>
     </g>
    </g>
    <g id="ytick_4">
     <g id="line2d_7">
      <g>
       <use style="stroke:#000000;stroke-width:0.5;" x="216.968626" xlink:href="#m429f19f505" y="6.540739"/>
      </g>
     </g>
     <g id="text_8">
      <!-- $10^{2}$ -->
      <g transform="translate(220.968626 9.30814)scale(0.08 -0.08)">
       <use transform="scale(0.996264)" xlink:href="#CMR17-49"/>
       <use transform="translate(45.690477 0)scale(0.996264)" xlink:href="#CMR17-48"/>
       <use transform="translate(91.380954 36.153639)scale(0.697382)" xlink:href="#CMR17-50"/>
      </g>
     </g>
    </g>
    <g id="ytick_5">
     <g id="line2d_8">
      <defs>
       <path d="M 0 0 
L -2 0 
" id="m376ff199b1" style="stroke:#000000;stroke-width:0.6;"/>
      </defs>
      <g>
       <use style="stroke:#000000;stroke-width:0.6;" x="216.968626" xlink:href="#m376ff199b1" y="106.778707"/>
      </g>
     </g>
    </g>
    <g id="ytick_6">
     <g id="line2d_9">
      <g>
       <use style="stroke:#000000;stroke-width:0.6;" x="216.968626" xlink:href="#m376ff199b1" y="100.238794"/>
      </g>
     </g>
    </g>
    <g id="ytick_7">
     <g id="line2d_10">
      <g>
       <use style="stroke:#000000;stroke-width:0.6;" x="216.968626" xlink:href="#m376ff199b1" y="95.598651"/>
      </g>
     </g>
    </g>
    <g id="ytick_8">
     <g id="line2d_11">
      <g>
       <use style="stroke:#000000;stroke-width:0.6;" x="216.968626" xlink:href="#m376ff199b1" y="91.999477"/>
      </g>
     </g>
    </g>
    <g id="ytick_9">
     <g id="line2d_12">
      <g>
       <use style="stroke:#000000;stroke-width:0.6;" x="216.968626" xlink:href="#m376ff199b1" y="89.058738"/>
      </g>
     </g>
    </g>
    <g id="ytick_10">
     <g id="line2d_13">
      <g>
       <use style="stroke:#000000;stroke-width:0.6;" x="216.968626" xlink:href="#m376ff199b1" y="86.572378"/>
      </g>
     </g>
    </g>
    <g id="ytick_11">
     <g id="line2d_14">
      <g>
       <use style="stroke:#000000;stroke-width:0.6;" x="216.968626" xlink:href="#m376ff199b1" y="84.418596"/>
      </g>
     </g>
    </g>
    <g id="ytick_12">
     <g id="line2d_15">
      <g>
       <use style="stroke:#000000;stroke-width:0.6;" x="216.968626" xlink:href="#m376ff199b1" y="82.518825"/>
      </g>
     </g>
    </g>
    <g id="ytick_13">
     <g id="line2d_16">
      <g>
       <use style="stroke:#000000;stroke-width:0.6;" x="216.968626" xlink:href="#m376ff199b1" y="69.639366"/>
      </g>
     </g>
    </g>
    <g id="ytick_14">
     <g id="line2d_17">
      <g>
       <use style="stroke:#000000;stroke-width:0.6;" x="216.968626" xlink:href="#m376ff199b1" y="63.099453"/>
      </g>
     </g>
    </g>
    <g id="ytick_15">
     <g id="line2d_18">
      <g>
       <use style="stroke:#000000;stroke-width:0.6;" x="216.968626" xlink:href="#m376ff199b1" y="58.45931"/>
      </g>
     </g>
    </g>
    <g id="ytick_16">
     <g id="line2d_19">
      <g>
       <use style="stroke:#000000;stroke-width:0.6;" x="216.968626" xlink:href="#m376ff199b1" y="54.860136"/>
      </g>
     </g>
    </g>
    <g id="ytick_17">
     <g id="line2d_20">
      <g>
       <use style="stroke:#000000;stroke-width:0.6;" x="216.968626" xlink:href="#m376ff199b1" y="51.919397"/>
      </g>
     </g>
    </g>
    <g id="ytick_18">
     <g id="line2d_21">
      <g>
       <use style="stroke:#000000;stroke-width:0.6;" x="216.968626" xlink:href="#m376ff199b1" y="49.433037"/>
      </g>
     </g>
    </g>
    <g id="ytick_19">
     <g id="line2d_22">
      <g>
       <use style="stroke:#000000;stroke-width:0.6;" x="216.968626" xlink:href="#m376ff199b1" y="47.279255"/>
      </g>
     </g>
    </g>
    <g id="ytick_20">
     <g id="line2d_23">
      <g>
       <use style="stroke:#000000;stroke-width:0.6;" x="216.968626" xlink:href="#m376ff199b1" y="45.379484"/>
      </g>
     </g>
    </g>
    <g id="ytick_21">
     <g id="line2d_24">
      <g>
       <use style="stroke:#000000;stroke-width:0.6;" x="216.968626" xlink:href="#m376ff199b1" y="32.500025"/>
      </g>
     </g>
    </g>
    <g id="ytick_22">
     <g id="line2d_25">
      <g>
       <use style="stroke:#000000;stroke-width:0.6;" x="216.968626" xlink:href="#m376ff199b1" y="25.960111"/>
      </g>
     </g>
    </g>
    <g id="ytick_23">
     <g id="line2d_26">
      <g>
       <use style="stroke:#000000;stroke-width:0.6;" x="216.968626" xlink:href="#m376ff199b1" y="21.319969"/>
      </g>
     </g>
    </g>
    <g id="ytick_24">
     <g id="line2d_27">
      <g>
       <use style="stroke:#000000;stroke-width:0.6;" x="216.968626" xlink:href="#m376ff199b1" y="17.720795"/>
      </g>
     </g>
    </g>
    <g id="ytick_25">
     <g id="line2d_28">
      <g>
       <use style="stroke:#000000;stroke-width:0.6;" x="216.968626" xlink:href="#m376ff199b1" y="14.780056"/>
      </g>
     </g>
    </g>
    <g id="ytick_26">
     <g id="line2d_29">
      <g>
       <use style="stroke:#000000;stroke-width:0.6;" x="216.968626" xlink:href="#m376ff199b1" y="12.293696"/>
      </g>
     </g>
    </g>
    <g id="ytick_27">
     <g id="line2d_30">
      <g>
       <use style="stroke:#000000;stroke-width:0.6;" x="216.968626" xlink:href="#m376ff199b1" y="10.139913"/>
      </g>
     </g>
    </g>
    <g id="ytick_28">
     <g id="line2d_31">
      <g>
       <use style="stroke:#000000;stroke-width:0.6;" x="216.968626" xlink:href="#m376ff199b1" y="8.240142"/>
      </g>
     </g>
    </g>
    <g id="text_9">
     <!-- $t/t_D$ -->
     <defs>
      <path d="M 20.09375 40.09375 
L 29.296875 40.09375 
C 31.203125 40.09375 32.203125 40.09375 32.203125 41.890625 
C 32.203125 43 31.59375 43 29.59375 43 
L 20.796875 43 
L 24.5 57.6875 
C 24.90625 59.078125 24.90625 59.28125 24.90625 60 
C 24.90625 61.609375 23.59375 62.5 22.296875 62.5 
C 21.5 62.5 19.203125 62.203125 18.40625 58.984375 
L 14.5 43 
L 5.09375 43 
C 3.09375 43 2.203125 43 2.203125 41.09375 
C 2.203125 40.09375 2.90625 40.09375 4.796875 40.09375 
L 13.703125 40.09375 
L 7.09375 13.765625 
C 6.296875 10.28125 6 9.28125 6 7.984375 
C 6 3.296875 9.296875 -1 14.90625 -1 
C 25 -1 30.40625 13.5625 30.40625 14.25 
C 30.40625 14.859375 30 15.15625 29.40625 15.15625 
C 29.203125 15.15625 28.796875 15.15625 28.59375 14.75 
C 28.5 14.65625 28.40625 14.546875 27.703125 12.953125 
C 25.59375 7.984375 21 1 15.203125 1 
C 12.203125 1 12 3.5 12 5.6875 
C 12 5.78125 12 7.6875 12.296875 8.875 
z
" id="CMMI12-116"/>
      <path d="M 42.90625 71.296875 
C 42.90625 71.40625 43.5 72.90625 43.5 73.09375 
C 43.5 74.296875 42.5 75 41.703125 75 
C 41.203125 75 40.296875 75 39.5 72.796875 
L 6 -21.296875 
C 6 -21.40625 5.40625 -22.890625 5.40625 -23.09375 
C 5.40625 -24.296875 6.40625 -25 7.203125 -25 
C 7.796875 -25 8.703125 -24.890625 9.40625 -22.796875 
z
" id="CMMI12-61"/>
      <path d="M 15.703125 7.375 
C 14.796875 3.890625 14.59375 2.890625 7.59375 2.890625 
C 5.703125 2.890625 4.703125 2.890625 4.703125 1.09375 
C 4.703125 0 5.296875 0 7.296875 0 
L 39 0 
C 59.203125 0 78.90625 20.8125 78.90625 43.015625 
C 78.90625 57.359375 70.296875 68 56 68 
L 23.90625 68 
C 22 68 21.09375 68 21.09375 66.109375 
C 21.09375 65.109375 22 65.109375 23.5 65.109375 
C 29.59375 65.109375 29.59375 64.3125 29.59375 63.21875 
C 29.59375 63.03125 29.59375 62.421875 29.203125 60.921875 
z
M 36.796875 61.421875 
C 37.703125 65.109375 38.09375 65.109375 42 65.109375 
L 53 65.109375 
C 62.40625 65.109375 71 60.03125 71 46.296875 
C 71 41.3125 69 24 59.296875 13.046875 
C 56.5 9.765625 48.90625 2.890625 37.40625 2.890625 
L 26 2.890625 
C 24.59375 2.890625 24.40625 2.890625 23.796875 3 
C 22.703125 3.09375 22.59375 3.296875 22.59375 4.09375 
C 22.59375 4.796875 22.796875 5.390625 23 6.28125 
z
" id="CMMI12-68"/>
     </defs>
     <g transform="translate(236.871505 70.124708)rotate(-90)scale(0.1 -0.1)">
      <use transform="translate(0 14.943915)scale(0.996264)" xlink:href="#CMMI12-116"/>
      <use transform="translate(35.22633 14.943915)scale(0.996264)" xlink:href="#CMMI12-61"/>
      <use transform="translate(84.001249 14.943915)scale(0.996264)" xlink:href="#CMMI12-116"/>
      <use transform="translate(119.227579 0)scale(0.697382)" xlink:href="#CMMI12-68"/>
     </g>
    </g>
   </g>
   <g id="line2d_32">
    <path clip-path="url(#p24b2a6076f)" d="M 95.446304 68.982555 
L 107.244587 44.804717 
L 119.042871 24.117734 
L 130.841155 14.178506 
L 142.639438 10.616931 
L 154.437722 9.016037 
L 166.236006 8.633823 
L 178.03429 7.876166 
L 189.832573 6.725331 
" style="fill:none;stroke:#fed098;stroke-dasharray:5.6,2.4;stroke-dashoffset:0;stroke-width:0.5;"/>
    <defs>
     <path d="M -2 2 
L 2 2 
L 2 -2 
L -2 -2 
z
" id="m3d1db3a3d8" style="stroke:#fea232;stroke-linejoin:miter;stroke-width:0.5;"/>
    </defs>
    <g clip-path="url(#p24b2a6076f)">
     <use style="fill:none;stroke:#fea232;stroke-linejoin:miter;stroke-width:0.5;" x="95.446304" xlink:href="#m3d1db3a3d8" y="68.982555"/>
     <use style="fill:none;stroke:#fea232;stroke-linejoin:miter;stroke-width:0.5;" x="107.244587" xlink:href="#m3d1db3a3d8" y="44.804717"/>
     <use style="fill:none;stroke:#fea232;stroke-linejoin:miter;stroke-width:0.5;" x="119.042871" xlink:href="#m3d1db3a3d8" y="24.117734"/>
     <use style="fill:none;stroke:#fea232;stroke-linejoin:miter;stroke-width:0.5;" x="130.841155" xlink:href="#m3d1db3a3d8" y="14.178506"/>
     <use style="fill:none;stroke:#fea232;stroke-linejoin:miter;stroke-width:0.5;" x="142.639438" xlink:href="#m3d1db3a3d8" y="10.616931"/>
     <use style="fill:none;stroke:#fea232;stroke-linejoin:miter;stroke-width:0.5;" x="154.437722" xlink:href="#m3d1db3a3d8" y="9.016037"/>
     <use style="fill:none;stroke:#fea232;stroke-linejoin:miter;stroke-width:0.5;" x="166.236006" xlink:href="#m3d1db3a3d8" y="8.633823"/>
     <use style="fill:none;stroke:#fea232;stroke-linejoin:miter;stroke-width:0.5;" x="178.03429" xlink:href="#m3d1db3a3d8" y="7.876166"/>
     <use style="fill:none;stroke:#fea232;stroke-linejoin:miter;stroke-width:0.5;" x="189.832573" xlink:href="#m3d1db3a3d8" y="6.725331"/>
    </g>
   </g>
   <g id="line2d_33">
    <path clip-path="url(#p24b2a6076f)" d="M 95.446304 109.201017 
L 107.244587 83.657086 
L 119.042871 71.183261 
L 130.841155 60.861637 
L 142.639438 57.361395 
L 154.437722 56.699468 
L 166.236006 57.903808 
L 178.03429 58.141283 
L 189.832573 58.510579 
L 201.630857 58.990128 
L 213.429141 62.50813 
" style="fill:none;stroke:#fed098;stroke-dasharray:5.6,2.4;stroke-dashoffset:0;stroke-width:0.5;"/>
    <defs>
     <path d="M -2 2 
L 2 2 
L 2 -2 
L -2 -2 
z
" id="mfc5de147cc" style="stroke:#fea232;stroke-linejoin:miter;stroke-width:0.5;"/>
    </defs>
    <g clip-path="url(#p24b2a6076f)">
     <use style="fill:#feb965;stroke:#fea232;stroke-linejoin:miter;stroke-width:0.5;" x="95.446304" xlink:href="#mfc5de147cc" y="109.201017"/>
     <use style="fill:#feb965;stroke:#fea232;stroke-linejoin:miter;stroke-width:0.5;" x="107.244587" xlink:href="#mfc5de147cc" y="83.657086"/>
     <use style="fill:#feb965;stroke:#fea232;stroke-linejoin:miter;stroke-width:0.5;" x="119.042871" xlink:href="#mfc5de147cc" y="71.183261"/>
     <use style="fill:#feb965;stroke:#fea232;stroke-linejoin:miter;stroke-width:0.5;" x="130.841155" xlink:href="#mfc5de147cc" y="60.861637"/>
     <use style="fill:#feb965;stroke:#fea232;stroke-linejoin:miter;stroke-width:0.5;" x="142.639438" xlink:href="#mfc5de147cc" y="57.361395"/>
     <use style="fill:#feb965;stroke:#fea232;stroke-linejoin:miter;stroke-width:0.5;" x="154.437722" xlink:href="#mfc5de147cc" y="56.699468"/>
     <use style="fill:#feb965;stroke:#fea232;stroke-linejoin:miter;stroke-width:0.5;" x="166.236006" xlink:href="#mfc5de147cc" y="57.903808"/>
     <use style="fill:#feb965;stroke:#fea232;stroke-linejoin:miter;stroke-width:0.5;" x="178.03429" xlink:href="#mfc5de147cc" y="58.141283"/>
     <use style="fill:#feb965;stroke:#fea232;stroke-linejoin:miter;stroke-width:0.5;" x="189.832573" xlink:href="#mfc5de147cc" y="58.510579"/>
     <use style="fill:#feb965;stroke:#fea232;stroke-linejoin:miter;stroke-width:0.5;" x="201.630857" xlink:href="#mfc5de147cc" y="58.990128"/>
     <use style="fill:#feb965;stroke:#fea232;stroke-linejoin:miter;stroke-width:0.5;" x="213.429141" xlink:href="#mfc5de147cc" y="62.50813"/>
    </g>
   </g>
   <g id="line2d_34">
    <path clip-path="url(#p24b2a6076f)" d="M 95.446304 96.875366 
L 107.244587 80.187649 
L 119.042871 61.803709 
L 130.841155 54.860914 
L 142.639438 52.704211 
L 154.437722 52.350324 
L 166.236006 52.817161 
L 178.03429 53.530121 
L 189.832573 53.098315 
L 201.630857 57.272326 
L 213.429141 59.884497 
" style="fill:none;stroke:#c1eadc;stroke-dasharray:5.6,2.4;stroke-dashoffset:0;stroke-width:0.5;"/>
    <defs>
     <path d="M 0 2 
C 0.530406 2 1.03916 1.789267 1.414214 1.414214 
C 1.789267 1.03916 2 0.530406 2 0 
C 2 -0.530406 1.789267 -1.03916 1.414214 -1.414214 
C 1.03916 -1.789267 0.530406 -2 0 -2 
C -0.530406 -2 -1.03916 -1.789267 -1.414214 -1.414214 
C -1.789267 -1.03916 -2 -0.530406 -2 0 
C -2 0.530406 -1.789267 1.03916 -1.414214 1.414214 
C -1.03916 1.789267 -0.530406 2 0 2 
z
" id="m69464d68fa" style="stroke:#84d6ba;stroke-width:0.5;"/>
    </defs>
    <g clip-path="url(#p24b2a6076f)">
     <use style="fill:none;stroke:#84d6ba;stroke-width:0.5;" x="95.446304" xlink:href="#m69464d68fa" y="96.875366"/>
     <use style="fill:none;stroke:#84d6ba;stroke-width:0.5;" x="107.244587" xlink:href="#m69464d68fa" y="80.187649"/>
     <use style="fill:none;stroke:#84d6ba;stroke-width:0.5;" x="119.042871" xlink:href="#m69464d68fa" y="61.803709"/>
     <use style="fill:none;stroke:#84d6ba;stroke-width:0.5;" x="130.841155" xlink:href="#m69464d68fa" y="54.860914"/>
     <use style="fill:none;stroke:#84d6ba;stroke-width:0.5;" x="142.639438" xlink:href="#m69464d68fa" y="52.704211"/>
     <use style="fill:none;stroke:#84d6ba;stroke-width:0.5;" x="154.437722" xlink:href="#m69464d68fa" y="52.350324"/>
     <use style="fill:none;stroke:#84d6ba;stroke-width:0.5;" x="166.236006" xlink:href="#m69464d68fa" y="52.817161"/>
     <use style="fill:none;stroke:#84d6ba;stroke-width:0.5;" x="178.03429" xlink:href="#m69464d68fa" y="53.530121"/>
     <use style="fill:none;stroke:#84d6ba;stroke-width:0.5;" x="189.832573" xlink:href="#m69464d68fa" y="53.098315"/>
     <use style="fill:none;stroke:#84d6ba;stroke-width:0.5;" x="201.630857" xlink:href="#m69464d68fa" y="57.272326"/>
     <use style="fill:none;stroke:#84d6ba;stroke-width:0.5;" x="213.429141" xlink:href="#m69464d68fa" y="59.884497"/>
    </g>
   </g>
   <g id="line2d_35">
    <path clip-path="url(#p24b2a6076f)" d="M 95.446304 110.896885 
L 107.244587 104.174964 
L 119.042871 92.229739 
L 130.841155 93.926263 
L 142.639438 95.582592 
L 154.437722 94.036519 
L 166.236006 95.019245 
L 178.03429 96.28783 
L 189.832573 98.44002 
L 201.630857 104.528135 
L 213.429141 108.473599 
" style="fill:none;stroke:#c1eadc;stroke-dasharray:5.6,2.4;stroke-dashoffset:0;stroke-width:0.5;"/>
    <defs>
     <path d="M 0 2 
C 0.530406 2 1.03916 1.789267 1.414214 1.414214 
C 1.789267 1.03916 2 0.530406 2 0 
C 2 -0.530406 1.789267 -1.03916 1.414214 -1.414214 
C 1.03916 -1.789267 0.530406 -2 0 -2 
C -0.530406 -2 -1.03916 -1.789267 -1.414214 -1.414214 
C -1.789267 -1.03916 -2 -0.530406 -2 0 
C -2 0.530406 -1.789267 1.03916 -1.414214 1.414214 
C -1.03916 1.789267 -0.530406 2 0 2 
z
" id="m3797eebc9d" style="stroke:#84d6ba;stroke-width:0.5;"/>
    </defs>
    <g clip-path="url(#p24b2a6076f)">
     <use style="fill:#a2e0cb;stroke:#84d6ba;stroke-width:0.5;" x="95.446304" xlink:href="#m3797eebc9d" y="110.896885"/>
     <use style="fill:#a2e0cb;stroke:#84d6ba;stroke-width:0.5;" x="107.244587" xlink:href="#m3797eebc9d" y="104.174964"/>
     <use style="fill:#a2e0cb;stroke:#84d6ba;stroke-width:0.5;" x="119.042871" xlink:href="#m3797eebc9d" y="92.229739"/>
     <use style="fill:#a2e0cb;stroke:#84d6ba;stroke-width:0.5;" x="130.841155" xlink:href="#m3797eebc9d" y="93.926263"/>
     <use style="fill:#a2e0cb;stroke:#84d6ba;stroke-width:0.5;" x="142.639438" xlink:href="#m3797eebc9d" y="95.582592"/>
     <use style="fill:#a2e0cb;stroke:#84d6ba;stroke-width:0.5;" x="154.437722" xlink:href="#m3797eebc9d" y="94.036519"/>
     <use style="fill:#a2e0cb;stroke:#84d6ba;stroke-width:0.5;" x="166.236006" xlink:href="#m3797eebc9d" y="95.019245"/>
     <use style="fill:#a2e0cb;stroke:#84d6ba;stroke-width:0.5;" x="178.03429" xlink:href="#m3797eebc9d" y="96.28783"/>
     <use style="fill:#a2e0cb;stroke:#84d6ba;stroke-width:0.5;" x="189.832573" xlink:href="#m3797eebc9d" y="98.44002"/>
     <use style="fill:#a2e0cb;stroke:#84d6ba;stroke-width:0.5;" x="201.630857" xlink:href="#m3797eebc9d" y="104.528135"/>
     <use style="fill:#a2e0cb;stroke:#84d6ba;stroke-width:0.5;" x="213.429141" xlink:href="#m3797eebc9d" y="108.473599"/>
    </g>
   </g>
   <g id="patch_3">
    <path d="M 91.906818 117.958763 
L 91.906818 3.6 
" style="fill:none;stroke:#000000;stroke-linecap:square;stroke-linejoin:miter;"/>
   </g>
   <g id="patch_4">
    <path d="M 216.968626 117.958763 
L 216.968626 3.6 
" style="fill:none;stroke:#000000;stroke-linecap:square;stroke-linejoin:miter;"/>
   </g>
   <g id="patch_5">
    <path d="M 91.906818 117.958763 
L 216.968626 117.958763 
" style="fill:none;stroke:#000000;stroke-linecap:square;stroke-linejoin:miter;"/>
   </g>
   <g id="patch_6">
    <path d="M 91.906818 3.6 
L 216.968626 3.6 
" style="fill:none;stroke:#000000;stroke-linecap:square;stroke-linejoin:miter;"/>
   </g>
   <g id="legend_1">
    <g id="line2d_36">
     <path d="M 140.929069 72.521044 
L 140.929069 72.521044 
" style="fill:none;stroke:#c1eadc;stroke-dasharray:5.6,2.4;stroke-dashoffset:0;stroke-width:0.5;"/>
    </g>
    <g id="line2d_37">
     <g>
      <use style="fill:none;stroke:#84d6ba;stroke-width:0.5;" x="140.929069" xlink:href="#m69464d68fa" y="72.521044"/>
     </g>
    </g>
    <g id="text_10">
     <!-- $\mathcal{M}_{0,1}$ (PO) -->
     <defs>
      <path d="M 38.5 56.703125 
C 41.203125 43.703125 45.59375 22.296875 51.296875 10.703125 
C 53.5 6.390625 54.59375 4.203125 55.59375 4.203125 
C 56 4.203125 56.203125 4.203125 58 6 
C 65.59375 13.265625 70.796875 19.046875 77.796875 27.03125 
L 99.703125 52.453125 
C 98.296875 43.96875 94.703125 21.53125 94.703125 9.859375 
C 94.703125 7.171875 94.796875 4.578125 95.09375 1.875 
C 95.203125 0.796875 95.59375 -2.109375 99.796875 -2.109375 
C 104 -2.109375 111.59375 2.296875 111.59375 4.296875 
C 111.59375 4.890625 111 5 110.703125 5 
C 109.40625 5 107.40625 4.109375 106.296875 3.40625 
C 103.90625 3.71875 103.703125 5.3125 103.5 7.59375 
C 103.203125 10.78125 103.203125 13.78125 103.203125 14.1875 
C 103.203125 25.234375 107.59375 55.4375 110.5 67.8125 
C 110.59375 68.515625 110.703125 68.6875 110.703125 69.5 
C 110.703125 69.890625 110.59375 71 109.90625 71 
C 109.5 71 109.40625 70.890625 107.5 68.6875 
C 98.09375 57.34375 68.90625 22.4375 59 14.0625 
C 56.5 19.328125 54.703125 23.125 51.203125 37.0625 
C 48.296875 48.3125 46.59375 56.5625 44.90625 66.21875 
C 44.59375 67.609375 44.09375 70.296875 44.09375 70.5 
C 43.796875 71 43.296875 71 43 71 
C 41.203125 71 37 68.8125 36.703125 66.71875 
C 35.5 58.359375 33.5 45.203125 26.5 26.203125 
C 18.5 5 16.296875 5 14.40625 5 
C 13.09375 5 9.40625 5.796875 7.203125 7.78125 
C 6.703125 8.28125 6.5 8.28125 6.296875 8.28125 
C 4.90625 8.28125 2.703125 3.75 2.703125 0.9375 
C 2.703125 0.03125 2.703125 -1.1875 5.90625 -2.875 
C 8.40625 -4.203125 10.796875 -4.203125 11.296875 -4.203125 
C 17.5 -4.203125 23.40625 10.09375 25.40625 15.203125 
C 30.09375 26.5 35.703125 42.296875 38.5 56.703125 
" id="CMSY10-77"/>
      <path d="M 19.5 -0.484375 
C 19.5 5.359375 17.59375 9.671875 13.5 9.671875 
C 10.296875 9.671875 8.703125 7.078125 8.703125 4.890625 
C 8.703125 2.6875 10.203125 0 13.59375 0 
C 14.90625 0 16 0.40625 16.90625 1.296875 
C 17.09375 1.5 17.203125 1.5 17.296875 1.5 
C 17.5 1.5 17.5 0.078125 17.5 -0.421875 
C 17.5 -3.75 16.90625 -10.296875 11.09375 -16.875 
C 10 -18.078125 10 -18.28125 10 -18.484375 
C 10 -19 10.5 -19.5 11 -19.5 
C 11.796875 -19.5 19.5 -12.046875 19.5 -0.484375 
" id="CMMI12-59"/>
      <path d="M 30.59375 -24.390625 
C 30.59375 -24.296875 30.59375 -24.09375 30.296875 -23.796875 
C 25.703125 -19.125 13.40625 -6.359375 13.40625 24.6875 
C 13.40625 55.765625 25.5 68.421875 30.40625 73.390625 
C 30.40625 73.5 30.59375 73.703125 30.59375 74 
C 30.59375 74.296875 30.296875 74.5 29.90625 74.5 
C 28.796875 74.5 20.296875 67.125 15.40625 56.15625 
C 10.40625 45.109375 9 34.359375 9 24.8125 
C 9 17.625 9.703125 5.484375 15.703125 -7.359375 
C 20.5 -17.734375 28.703125 -25 29.90625 -25 
C 30.40625 -25 30.59375 -24.796875 30.59375 -24.390625 
" id="CMR17-40"/>
      <path d="M 19.796875 31.90625 
L 35.796875 31.90625 
C 48.703125 31.90625 58.09375 40.28125 58.09375 49.75 
C 58.09375 59.234375 48.90625 68 35.796875 68 
L 5.203125 68 
L 5.203125 65.40625 
C 12.09375 65.40625 13.203125 65.40625 13.203125 60.9375 
L 13.203125 6.96875 
C 13.203125 2.5 12.09375 2.5 5.203125 2.5 
L 5.203125 0 
C 8.09375 0 13.40625 0 16.5 0 
C 19.59375 0 24.90625 0 27.796875 0 
L 27.796875 2.5 
C 20.90625 2.5 19.796875 2.5 19.796875 6.96875 
z
M 19.59375 34 
L 19.59375 61.53125 
C 19.59375 64.921875 19.796875 65.40625 23.796875 65.40625 
L 33.90625 65.40625 
C 46.796875 65.40625 50.5 58.03125 50.5 49.75 
C 50.5 40.6875 46.09375 34 33.90625 34 
z
" id="CMR17-80"/>
      <path d="M 67.296875 33.359375 
C 67.296875 53.703125 52.59375 69 36 69 
C 19 69 4.59375 53.5 4.59375 33.359375 
C 4.59375 13.203125 19.203125 -2 35.90625 -2 
C 53 -2 67.296875 13.5 67.296875 33.359375 
M 36 -0.203125 
C 24.59375 -0.203125 12.203125 11.109375 12.203125 34.640625 
C 12.203125 58.0625 25.796875 67.203125 35.90625 67.203125 
C 46.5 67.203125 59.703125 57.78125 59.703125 34.640625 
C 59.703125 10.71875 47 -0.203125 36 -0.203125 
" id="CMR17-79"/>
      <path d="M 26.296875 24.6875 
C 26.296875 31.875 25.59375 44.015625 19.59375 56.859375 
C 14.796875 67.234375 6.59375 74.5 5.40625 74.5 
C 5.09375 74.5 4.703125 74.390625 4.703125 73.890625 
C 4.703125 73.703125 4.796875 73.59375 4.90625 73.390625 
C 9.703125 68.40625 21.90625 55.75 21.90625 24.75 
C 21.90625 -6.359375 9.796875 -19.015625 4.90625 -24.015625 
C 4.796875 -24.203125 4.703125 -24.3125 4.703125 -24.5 
C 4.703125 -25 5.09375 -25 5.40625 -25 
C 6.5 -25 15 -17.625 19.90625 -6.65625 
C 24.90625 4.390625 26.296875 15.140625 26.296875 24.6875 
" id="CMR17-41"/>
     </defs>
     <g transform="translate(145.929069 74.971044)scale(0.1 -0.1)">
      <use transform="translate(0 14.943915)scale(0.996264)" xlink:href="#CMSY10-77"/>
      <use transform="translate(119.641341 0)scale(0.697382)" xlink:href="#CMR17-48"/>
      <use transform="translate(151.624523 0)scale(0.697382)" xlink:href="#CMMI12-59"/>
      <use transform="translate(170.592456 0)scale(0.697382)" xlink:href="#CMR17-49"/>
      <use transform="translate(233.149736 14.943915)scale(0.996264)" xlink:href="#CMR17-40"/>
      <use transform="translate(268.430504 14.943915)scale(0.996264)" xlink:href="#CMR17-80"/>
      <use transform="translate(331.016805 14.943915)scale(0.996264)" xlink:href="#CMR17-79"/>
      <use transform="translate(402.731593 14.943915)scale(0.996264)" xlink:href="#CMR17-41"/>
     </g>
    </g>
    <g id="line2d_38">
     <path d="M 140.929069 87.84342 
L 140.929069 87.84342 
" style="fill:none;stroke:#c1eadc;stroke-dasharray:5.6,2.4;stroke-dashoffset:0;stroke-width:0.5;"/>
    </g>
    <g id="line2d_39">
     <g>
      <use style="fill:#a2e0cb;stroke:#84d6ba;stroke-width:0.5;" x="140.929069" xlink:href="#m3797eebc9d" y="87.84342"/>
     </g>
    </g>
    <g id="text_11">
     <!-- $\mathcal{M}_{0,1}$ (UB) -->
     <defs>
      <path d="M 54 22.390625 
C 54 9.046875 45.296875 0.59375 35.796875 0.59375 
C 30.703125 0.59375 26.09375 3.28125 23.296875 7.453125 
C 20.09375 12.234375 19.703125 18.40625 19.703125 21.890625 
L 19.703125 60.53125 
C 19.703125 65 20.796875 65 27.703125 65 
L 27.703125 67.5 
C 24.796875 67.5 19.5 67.5 16.40625 67.5 
C 13.296875 67.5 8 67.5 5.09375 67.5 
L 5.09375 65 
C 12 65 13.09375 65 13.09375 60.53125 
L 13.09375 22.390625 
C 13.09375 8.0625 24 -2 35.59375 -2 
C 48.59375 -2 56.09375 11.234375 56.09375 21 
L 56.09375 58.84375 
C 56.09375 64.40625 61.203125 65 64.09375 65 
L 64.09375 67.59375 
C 61.796875 67.5 57.59375 67.5 55.09375 67.5 
C 52.59375 67.5 48.296875 67.5 46 67.59375 
L 46 65 
C 54 65 54 60.328125 54 57.84375 
z
" id="CMR17-85"/>
      <path d="M 5.203125 68 
L 5.203125 65.40625 
C 12.09375 65.40625 13.203125 65.40625 13.203125 60.9375 
L 13.203125 7.0625 
C 13.203125 2.59375 12.09375 2.59375 5.203125 2.59375 
L 5.203125 0 
L 39.59375 0 
C 52.40625 0 60.703125 9.109375 60.703125 18.1875 
C 60.703125 27.203125 52.5 34.890625 41.796875 34.890625 
C 51.40625 36.8125 58.09375 43.296875 58.09375 51 
C 58.09375 59.40625 49.90625 68 37 68 
z
M 19.5 36 
L 19.5 61.515625 
C 19.5 64.921875 19.703125 65.40625 23.703125 65.40625 
L 36.5 65.40625 
C 46.40625 65.40625 50.796875 57.40625 50.796875 51.203125 
C 50.796875 43.609375 44.703125 36 33.90625 36 
z
M 23.703125 2.59375 
C 19.703125 2.59375 19.5 3.078125 19.5 6.453125 
L 19.5 34.40625 
L 38 34.40625 
C 48.296875 34.40625 53.296875 25.390625 53.296875 18.15625 
C 53.296875 10.921875 47.59375 2.59375 36.703125 2.59375 
z
" id="CMR17-66"/>
     </defs>
     <g transform="translate(145.929069 90.29342)scale(0.1 -0.1)">
      <use transform="translate(0 14.943915)scale(0.996264)" xlink:href="#CMSY10-77"/>
      <use transform="translate(119.641341 0)scale(0.697382)" xlink:href="#CMR17-48"/>
      <use transform="translate(151.624523 0)scale(0.697382)" xlink:href="#CMMI12-59"/>
      <use transform="translate(170.592456 0)scale(0.697382)" xlink:href="#CMR17-49"/>
      <use transform="translate(233.149736 14.943915)scale(0.996264)" xlink:href="#CMR17-40"/>
      <use transform="translate(268.430504 14.943915)scale(0.996264)" xlink:href="#CMR17-85"/>
      <use transform="translate(337.502934 14.943915)scale(0.996264)" xlink:href="#CMR17-66"/>
      <use transform="translate(402.691688 14.943915)scale(0.996264)" xlink:href="#CMR17-41"/>
     </g>
    </g>
   </g>
   <g id="legend_2">
    <g id="line2d_40">
     <path d="M 140.929069 25.440205 
L 140.929069 25.440205 
" style="fill:none;stroke:#fed098;stroke-dasharray:5.6,2.4;stroke-dashoffset:0;stroke-width:0.5;"/>
    </g>
    <g id="line2d_41">
     <g>
      <use style="fill:none;stroke:#fea232;stroke-linejoin:miter;stroke-width:0.5;" x="140.929069" xlink:href="#m3d1db3a3d8" y="25.440205"/>
     </g>
    </g>
    <g id="text_12">
     <!-- OBDM (PO) -->
     <defs>
      <path d="M 5.203125 68 
L 5.203125 65.40625 
C 12.09375 65.40625 13.203125 65.40625 13.203125 60.9375 
L 13.203125 7.0625 
C 13.203125 2.59375 12.09375 2.59375 5.203125 2.59375 
L 5.203125 0 
L 37 0 
C 53.09375 0 66 14.734375 66 33.453125 
C 66 52.28125 53.296875 68 37 68 
z
M 23.796875 2.59375 
C 19.796875 2.59375 19.59375 3.078125 19.59375 6.46875 
L 19.59375 61.53125 
C 19.59375 64.921875 19.796875 65.40625 23.796875 65.40625 
L 35 65.40625 
C 43.296875 65.40625 58.59375 60.53125 58.59375 33.453125 
C 58.59375 19.40625 54.5 13.734375 52.59375 11.046875 
C 50.203125 7.96875 44.5 2.59375 35 2.59375 
z
" id="CMR17-68"/>
      <path d="M 20.90625 66 
C 20.296875 67.5 20.203125 67.5 18.09375 67.5 
L 5.296875 67.5 
L 5.296875 65 
C 12.203125 65 13.296875 65 13.296875 60.546875 
L 13.296875 9.53125 
C 13.296875 7.046875 13.296875 2.390625 5.296875 2.390625 
L 5.296875 -0.203125 
C 7.59375 0 11.796875 0 14.296875 0 
C 16.796875 0 21 0 23.296875 -0.203125 
L 23.296875 2.390625 
C 15.296875 2.390625 15.296875 7.046875 15.296875 9.53125 
L 15.296875 64.609375 
L 15.40625 64.609375 
L 38.90625 1.390625 
C 39.296875 0.390625 39.5 -0.203125 40.296875 -0.203125 
C 41.09375 -0.203125 41.296875 0.390625 41.703125 1.390625 
L 65.40625 65.09375 
L 65.5 65.09375 
L 65.5 6.84375 
C 65.5 2.390625 64.40625 2.390625 57.5 2.390625 
L 57.5 -0.203125 
C 60.203125 0 65.59375 0 68.5 0 
C 71.40625 0 76.90625 0 79.59375 -0.203125 
L 79.59375 2.390625 
C 72.703125 2.390625 71.59375 2.390625 71.59375 6.84375 
L 71.59375 60.546875 
C 71.59375 65 72.703125 65 79.59375 65 
L 79.59375 67.5 
L 66.90625 67.5 
C 64.796875 67.5 64.703125 67.40625 64.09375 65.90625 
L 42.5 7.84375 
z
" id="CMR17-77"/>
     </defs>
     <g transform="translate(145.929069 27.890205)scale(0.1 -0.1)">
      <use transform="scale(0.996264)" xlink:href="#CMR17-79"/>
      <use transform="translate(71.714788 0)scale(0.996264)" xlink:href="#CMR17-66"/>
      <use transform="translate(136.903543 0)scale(0.996264)" xlink:href="#CMR17-68"/>
      <use transform="translate(207.297099 0)scale(0.996264)" xlink:href="#CMR17-77"/>
      <use transform="translate(322.060006 0)scale(0.996264)" xlink:href="#CMR17-40"/>
      <use transform="translate(357.340773 0)scale(0.996264)" xlink:href="#CMR17-80"/>
      <use transform="translate(419.927074 0)scale(0.996264)" xlink:href="#CMR17-79"/>
      <use transform="translate(491.641862 0)scale(0.996264)" xlink:href="#CMR17-41"/>
     </g>
    </g>
    <g id="line2d_42">
     <path d="M 140.929069 40.402845 
L 140.929069 40.402845 
" style="fill:none;stroke:#fed098;stroke-dasharray:5.6,2.4;stroke-dashoffset:0;stroke-width:0.5;"/>
    </g>
    <g id="line2d_43">
     <g>
      <use style="fill:#feb965;stroke:#fea232;stroke-linejoin:miter;stroke-width:0.5;" x="140.929069" xlink:href="#mfc5de147cc" y="40.402845"/>
     </g>
    </g>
    <g id="text_13">
     <!-- OBDM (UB) -->
     <g transform="translate(145.929069 42.852845)scale(0.1 -0.1)">
      <use transform="scale(0.996264)" xlink:href="#CMR17-79"/>
      <use transform="translate(71.714788 0)scale(0.996264)" xlink:href="#CMR17-66"/>
      <use transform="translate(136.903543 0)scale(0.996264)" xlink:href="#CMR17-68"/>
      <use transform="translate(207.297099 0)scale(0.996264)" xlink:href="#CMR17-77"/>
      <use transform="translate(322.060006 0)scale(0.996264)" xlink:href="#CMR17-40"/>
      <use transform="translate(357.340773 0)scale(0.996264)" xlink:href="#CMR17-85"/>
      <use transform="translate(426.413203 0)scale(0.996264)" xlink:href="#CMR17-66"/>
      <use transform="translate(491.601958 0)scale(0.996264)" xlink:href="#CMR17-41"/>
     </g>
    </g>
   </g>
  </g>
  <g id="axes_2">
   <g id="patch_7">
    <path d="M 27.031006 117.958763 
L 89.56191 117.958763 
L 89.56191 3.6 
L 27.031006 3.6 
z
" style="fill:#ffffff;"/>
   </g>
   <g id="line2d_44">
    <path clip-path="url(#pdb74a7b3b9)" d="M 22.767535 125.727043 
L 29.87332 112.528656 
L 44.084889 86.131883 
L 58.296458 59.735109 
L 72.508027 33.338336 
L 86.719596 6.941563 
L 90.995197 -1 
" style="fill:none;stroke:#8caad1;stroke-linecap:square;"/>
   </g>
   <g id="matplotlib.axis_3">
    <g id="xtick_4">
     <g id="line2d_45">
      <g>
       <use style="stroke:#000000;stroke-width:0.5;" x="29.87332" xlink:href="#m17dd9fc8bf" y="117.958763"/>
      </g>
     </g>
     <g id="text_14">
      <!-- $16$ -->
      <defs>
       <path d="M 10.59375 34 
C 10.59375 57.65625 21.796875 63 28.296875 63 
C 30.40625 63 35.5 62.640625 37.5 59 
C 35.90625 59 32.90625 59 32.90625 55.515625 
C 32.90625 52.828125 35.09375 51.921875 36.5 51.921875 
C 37.40625 51.921875 40.09375 52.3125 40.09375 55.625 
C 40.09375 61.78125 35.09375 65.296875 28.203125 65.296875 
C 16.296875 65.296875 3.796875 52.96875 3.796875 31 
C 3.796875 3.953125 15.09375 -2 23.09375 -2 
C 32.796875 -2 42 6.671875 42 20.046875 
C 42 32.515625 33.90625 41.59375 23.703125 41.59375 
C 17.59375 41.59375 13.09375 37.609375 10.59375 30.625 
z
M 23.09375 0.390625 
C 10.796875 0.390625 10.796875 18.75 10.796875 22.4375 
C 10.796875 29.625 14.203125 40 23.5 40 
C 25.203125 40 30.09375 40 33.40625 33.125 
C 35.203125 29.21875 35.203125 25.140625 35.203125 20.140625 
C 35.203125 14.75 35.203125 10.78125 33.09375 6.78125 
C 30.90625 2.671875 27.703125 0.390625 23.09375 0.390625 
" id="CMR17-54"/>
      </defs>
      <g transform="translate(25.639137 127.493565)scale(0.08 -0.08)">
       <use transform="scale(0.996264)" xlink:href="#CMR17-49"/>
       <use transform="translate(45.690477 0)scale(0.996264)" xlink:href="#CMR17-54"/>
      </g>
     </g>
    </g>
    <g id="xtick_5">
     <g id="line2d_46">
      <g>
       <use style="stroke:#000000;stroke-width:0.5;" x="58.296458" xlink:href="#m17dd9fc8bf" y="117.958763"/>
      </g>
     </g>
     <g id="text_15">
      <!-- $18$ -->
      <defs>
       <path d="M 27.203125 35.375 
C 33.5 38.546875 39.90625 43.328125 39.90625 50.984375 
C 39.90625 60.015625 31.09375 65.296875 23 65.296875 
C 13.90625 65.296875 5.90625 58.734375 5.90625 49.6875 
C 5.90625 47.203125 6.5 42.921875 10.40625 39.140625 
C 11.40625 38.15625 15.59375 35.171875 18.296875 33.28125 
C 13.796875 30.984375 3.296875 25.53125 3.296875 14.59375 
C 3.296875 4.359375 13.09375 -2 22.796875 -2 
C 33.5 -2 42.5 5.65625 42.5 15.78125 
C 42.5 24.84375 36.40625 29.015625 32.40625 31.703125 
z
M 14.09375 44.09375 
C 13.296875 44.59375 9.296875 47.671875 9.296875 52.359375 
C 9.296875 58.421875 15.59375 63 22.796875 63 
C 30.703125 63 36.5 57.4375 36.5 50.96875 
C 36.5 41.703125 26.09375 36.421875 25.59375 36.421875 
C 25.5 36.421875 25.40625 36.421875 24.59375 37.03125 
z
M 32.5 23.734375 
C 34 22.640625 38.796875 19.375 38.796875 13.296875 
C 38.796875 5.953125 31.40625 0.390625 23 0.390625 
C 13.90625 0.390625 7 6.84375 7 14.6875 
C 7 22.546875 13.09375 29.09375 20 32.1875 
z
" id="CMR17-56"/>
      </defs>
      <g transform="translate(54.062275 127.493565)scale(0.08 -0.08)">
       <use transform="scale(0.996264)" xlink:href="#CMR17-49"/>
       <use transform="translate(45.690477 0)scale(0.996264)" xlink:href="#CMR17-56"/>
      </g>
     </g>
    </g>
    <g id="xtick_6">
     <g id="line2d_47">
      <g>
       <use style="stroke:#000000;stroke-width:0.5;" x="86.719596" xlink:href="#m17dd9fc8bf" y="117.958763"/>
      </g>
     </g>
     <g id="text_16">
      <!-- $20$ -->
      <g transform="translate(82.485413 127.493565)scale(0.08 -0.08)">
       <use transform="scale(0.996264)" xlink:href="#CMR17-50"/>
       <use transform="translate(45.690477 0)scale(0.996264)" xlink:href="#CMR17-48"/>
      </g>
     </g>
    </g>
    <g id="text_17">
     <!-- $L$ -->
     <g transform="translate(54.906384 135.961809)scale(0.1 -0.1)">
      <use transform="scale(0.996264)" xlink:href="#CMMI12-76"/>
     </g>
    </g>
   </g>
   <g id="matplotlib.axis_4">
    <g id="ytick_29">
     <g id="line2d_48">
      <defs>
       <path d="M 0 0 
L 4 0 
" id="md5d1db77a4" style="stroke:#000000;stroke-width:0.5;"/>
      </defs>
      <g>
       <use style="stroke:#000000;stroke-width:0.5;" x="27.031006" xlink:href="#md5d1db77a4" y="112.943028"/>
      </g>
     </g>
     <g id="text_18">
      <!-- $10$ -->
      <g transform="translate(14.56264 115.710428)scale(0.08 -0.08)">
       <use transform="scale(0.996264)" xlink:href="#CMR17-49"/>
       <use transform="translate(45.690477 0)scale(0.996264)" xlink:href="#CMR17-48"/>
      </g>
     </g>
    </g>
    <g id="ytick_30">
     <g id="line2d_49">
      <g>
       <use style="stroke:#000000;stroke-width:0.5;" x="27.031006" xlink:href="#md5d1db77a4" y="62.785675"/>
      </g>
     </g>
     <g id="text_19">
      <!-- $15$ -->
      <g transform="translate(14.56264 65.553076)scale(0.08 -0.08)">
       <use transform="scale(0.996264)" xlink:href="#CMR17-49"/>
       <use transform="translate(45.690477 0)scale(0.996264)" xlink:href="#CMR17-53"/>
      </g>
     </g>
    </g>
    <g id="ytick_31">
     <g id="line2d_50">
      <g>
       <use style="stroke:#000000;stroke-width:0.5;" x="27.031006" xlink:href="#md5d1db77a4" y="12.628323"/>
      </g>
     </g>
     <g id="text_20">
      <!-- $20$ -->
      <g transform="translate(14.56264 15.395724)scale(0.08 -0.08)">
       <use transform="scale(0.996264)" xlink:href="#CMR17-50"/>
       <use transform="translate(45.690477 0)scale(0.996264)" xlink:href="#CMR17-48"/>
      </g>
     </g>
    </g>
    <g id="text_21">
     <!-- $t_{\rm{PO}}/t_{\rm{UB}}$ -->
     <g transform="translate(11.625462 78.577286)rotate(-90)scale(0.1 -0.1)">
      <use transform="translate(0 14.943915)scale(0.996264)" xlink:href="#CMMI12-116"/>
      <use transform="translate(35.22633 0)scale(0.697382)" xlink:href="#CMR17-80"/>
      <use transform="translate(79.036544 0)scale(0.697382)" xlink:href="#CMR17-79"/>
      <use transform="translate(129.734808 14.943915)scale(0.996264)" xlink:href="#CMMI12-61"/>
      <use transform="translate(178.509727 14.943915)scale(0.996264)" xlink:href="#CMMI12-116"/>
      <use transform="translate(213.736057 0)scale(0.697382)" xlink:href="#CMR17-85"/>
      <use transform="translate(262.086542 0)scale(0.697382)" xlink:href="#CMR17-66"/>
     </g>
    </g>
   </g>
   <g id="line2d_51">
    <defs>
     <path d="M 0 -2 
L -2 2 
L 2 2 
z
" id="m5d9163c7f1" style="stroke:#668ec1;stroke-linejoin:miter;stroke-width:0.5;"/>
    </defs>
    <g clip-path="url(#pdb74a7b3b9)">
     <use style="fill:none;stroke:#668ec1;stroke-linejoin:miter;stroke-width:0.5;" x="29.87332" xlink:href="#m5d9163c7f1" y="108.355889"/>
     <use style="fill:none;stroke:#668ec1;stroke-linejoin:miter;stroke-width:0.5;" x="44.084889" xlink:href="#m5d9163c7f1" y="97.150493"/>
     <use style="fill:none;stroke:#668ec1;stroke-linejoin:miter;stroke-width:0.5;" x="58.296458" xlink:href="#m5d9163c7f1" y="52.089365"/>
     <use style="fill:none;stroke:#668ec1;stroke-linejoin:miter;stroke-width:0.5;" x="72.508027" xlink:href="#m5d9163c7f1" y="32.265062"/>
     <use style="fill:none;stroke:#668ec1;stroke-linejoin:miter;stroke-width:0.5;" x="86.719596" xlink:href="#m5d9163c7f1" y="8.814738"/>
    </g>
   </g>
   <g id="patch_8">
    <path d="M 27.031006 117.958763 
L 27.031006 3.6 
" style="fill:none;stroke:#000000;stroke-linecap:square;stroke-linejoin:miter;"/>
   </g>
   <g id="patch_9">
    <path d="M 89.56191 117.958763 
L 89.56191 3.6 
" style="fill:none;stroke:#000000;stroke-linecap:square;stroke-linejoin:miter;"/>
   </g>
   <g id="patch_10">
    <path d="M 27.031006 117.958763 
L 89.56191 117.958763 
" style="fill:none;stroke:#000000;stroke-linecap:square;stroke-linejoin:miter;"/>
   </g>
   <g id="patch_11">
    <path d="M 27.031006 3.6 
L 89.56191 3.6 
" style="fill:none;stroke:#000000;stroke-linecap:square;stroke-linejoin:miter;"/>
   </g>
  </g>
 </g>
 <defs>
  <clipPath id="p24b2a6076f">
   <rect height="114.358763" width="125.061807" x="91.906818" y="3.6"/>
  </clipPath>
  <clipPath id="pdb74a7b3b9">
   <rect height="114.358763" width="62.530904" x="27.031006" y="3.6"/>
  </clipPath>
 </defs>
</svg>
